M48
INCH,TZ
T1C0.0157
T2C0.0315
T3C0.0354
T4C0.0374
T5C0.0394
T6C0.0472
T7C0.1260
%
G90
G05
T1
X28368Y-38801
X28821Y-37329
X29325Y-37817
X29565Y-35813
X31211Y-29341
X31254Y-29974
X31628Y-30817
X33396Y-39793
X34254Y-36722
X34770Y-26770
X34770Y-39384
X35360Y-26742
X35360Y-39396
X45230Y-34726
X45628Y-33719
T2
X27411Y-47112
X27411Y-48096
X27411Y-49081
X27411Y-50065
X56467Y-31658
X56467Y-32642
X56467Y-35306
X56467Y-36290
X56467Y-38955
X56467Y-39939
X60175Y-31348
X60175Y-40195
X61159Y-31348
X61159Y-40195
X66533Y-24644
X66533Y-25628
X66533Y-26612
X66533Y-27596
T3
X51341Y-31907
X51341Y-32907
T4
X53565Y-24537
X53565Y-26506
X55927Y-24537
X55927Y-26506
T5
X26313Y-25817
X26313Y-26817
X26313Y-27817
X26313Y-28817
X26313Y-29817
X26313Y-30817
X26313Y-31817
X26313Y-32817
X26313Y-33817
X26313Y-34817
X26313Y-35817
X26313Y-36817
X26313Y-37817
X26313Y-38817
X26313Y-39817
X26313Y-40817
X26313Y-41817
X27313Y-25817
X27313Y-26817
X27313Y-27817
X27313Y-28817
X27313Y-29817
X27313Y-30817
X27313Y-31817
X27313Y-32817
X27313Y-33817
X27313Y-34817
X27313Y-35817
X27313Y-36817
X27313Y-37817
X27313Y-38817
X27313Y-39817
X27313Y-40817
X27313Y-41817
X32872Y-46112
X32872Y-47112
X32872Y-48112
X32872Y-49112
X32872Y-50112
X32872Y-51112
X38163Y-23726
X38163Y-24726
X38163Y-25726
X38163Y-26726
X38163Y-27726
X38163Y-28726
X38163Y-29726
X38163Y-30726
X38163Y-31726
X38163Y-32726
X38163Y-33726
X38163Y-34726
X38163Y-35726
X38163Y-36726
X38163Y-37726
X44163Y-23726
X44163Y-24726
X44163Y-25726
X44163Y-26726
X44163Y-27726
X44163Y-28726
X44163Y-29726
X44163Y-30726
X44163Y-31726
X44163Y-32726
X44163Y-33726
X44163Y-34726
X44163Y-35726
X44163Y-36726
X44163Y-37726
X59990Y-24124
X59990Y-25124
X59990Y-26124
X59990Y-27124
X60990Y-24124
X60990Y-25124
X60990Y-26124
X60990Y-27124
X65679Y-31348
X66679Y-31348
T6
X60337Y-34772
X60337Y-35772
X60337Y-36772
T7
X24183Y-20246
X24183Y-54557
X70388Y-20246
X70388Y-54557
T0
M30
