G04 #@! TF.GenerationSoftware,KiCad,Pcbnew,(5.1.10)-1*
G04 #@! TF.CreationDate,2021-12-19T22:42:05+01:00*
G04 #@! TF.ProjectId,DrawBridge,44726177-4272-4696-9467-652e6b696361,1.0*
G04 #@! TF.SameCoordinates,Original*
G04 #@! TF.FileFunction,Legend,Top*
G04 #@! TF.FilePolarity,Positive*
%FSLAX46Y46*%
G04 Gerber Fmt 4.6, Leading zero omitted, Abs format (unit mm)*
G04 Created by KiCad (PCBNEW (5.1.10)-1) date 2021-12-19 22:42:05*
%MOMM*%
%LPD*%
G01*
G04 APERTURE LIST*
%ADD10C,0.200000*%
%ADD11C,0.150000*%
%ADD12C,0.250000*%
%ADD13C,0.120000*%
%ADD14C,0.127000*%
G04 APERTURE END LIST*
D10*
X131176428Y-50003571D02*
X131319285Y-50051190D01*
X131366904Y-50098809D01*
X131414523Y-50194047D01*
X131414523Y-50336904D01*
X131366904Y-50432142D01*
X131319285Y-50479761D01*
X131224047Y-50527380D01*
X130843095Y-50527380D01*
X130843095Y-49527380D01*
X131176428Y-49527380D01*
X131271666Y-49575000D01*
X131319285Y-49622619D01*
X131366904Y-49717857D01*
X131366904Y-49813095D01*
X131319285Y-49908333D01*
X131271666Y-49955952D01*
X131176428Y-50003571D01*
X130843095Y-50003571D01*
X131843095Y-50527380D02*
X131843095Y-49860714D01*
X131843095Y-50051190D02*
X131890714Y-49955952D01*
X131938333Y-49908333D01*
X132033571Y-49860714D01*
X132128809Y-49860714D01*
X132462142Y-50527380D02*
X132462142Y-49860714D01*
X132462142Y-49527380D02*
X132414523Y-49575000D01*
X132462142Y-49622619D01*
X132509761Y-49575000D01*
X132462142Y-49527380D01*
X132462142Y-49622619D01*
X133366904Y-50527380D02*
X133366904Y-49527380D01*
X133366904Y-50479761D02*
X133271666Y-50527380D01*
X133081190Y-50527380D01*
X132985952Y-50479761D01*
X132938333Y-50432142D01*
X132890714Y-50336904D01*
X132890714Y-50051190D01*
X132938333Y-49955952D01*
X132985952Y-49908333D01*
X133081190Y-49860714D01*
X133271666Y-49860714D01*
X133366904Y-49908333D01*
X134271666Y-49860714D02*
X134271666Y-50670238D01*
X134224047Y-50765476D01*
X134176428Y-50813095D01*
X134081190Y-50860714D01*
X133938333Y-50860714D01*
X133843095Y-50813095D01*
X134271666Y-50479761D02*
X134176428Y-50527380D01*
X133985952Y-50527380D01*
X133890714Y-50479761D01*
X133843095Y-50432142D01*
X133795476Y-50336904D01*
X133795476Y-50051190D01*
X133843095Y-49955952D01*
X133890714Y-49908333D01*
X133985952Y-49860714D01*
X134176428Y-49860714D01*
X134271666Y-49908333D01*
X135128809Y-50479761D02*
X135033571Y-50527380D01*
X134843095Y-50527380D01*
X134747857Y-50479761D01*
X134700238Y-50384523D01*
X134700238Y-50003571D01*
X134747857Y-49908333D01*
X134843095Y-49860714D01*
X135033571Y-49860714D01*
X135128809Y-49908333D01*
X135176428Y-50003571D01*
X135176428Y-50098809D01*
X134700238Y-50194047D01*
X136890714Y-50527380D02*
X136319285Y-50527380D01*
X136605000Y-50527380D02*
X136605000Y-49527380D01*
X136509761Y-49670238D01*
X136414523Y-49765476D01*
X136319285Y-49813095D01*
X137319285Y-50146428D02*
X138081190Y-50146428D01*
X138557380Y-49860714D02*
X139319285Y-50146428D01*
X138557380Y-50432142D01*
X139747857Y-49622619D02*
X139795476Y-49575000D01*
X139890714Y-49527380D01*
X140128809Y-49527380D01*
X140224047Y-49575000D01*
X140271666Y-49622619D01*
X140319285Y-49717857D01*
X140319285Y-49813095D01*
X140271666Y-49955952D01*
X139700238Y-50527380D01*
X140319285Y-50527380D01*
X141366904Y-49860714D02*
X141747857Y-49860714D01*
X141509761Y-49527380D02*
X141509761Y-50384523D01*
X141557380Y-50479761D01*
X141652619Y-50527380D01*
X141747857Y-50527380D01*
X142224047Y-50527380D02*
X142128809Y-50479761D01*
X142081190Y-50432142D01*
X142033571Y-50336904D01*
X142033571Y-50051190D01*
X142081190Y-49955952D01*
X142128809Y-49908333D01*
X142224047Y-49860714D01*
X142366904Y-49860714D01*
X142462142Y-49908333D01*
X142509761Y-49955952D01*
X142557380Y-50051190D01*
X142557380Y-50336904D01*
X142509761Y-50432142D01*
X142462142Y-50479761D01*
X142366904Y-50527380D01*
X142224047Y-50527380D01*
X144176428Y-49860714D02*
X144176428Y-50670238D01*
X144128809Y-50765476D01*
X144081190Y-50813095D01*
X143985952Y-50860714D01*
X143843095Y-50860714D01*
X143747857Y-50813095D01*
X144176428Y-50479761D02*
X144081190Y-50527380D01*
X143890714Y-50527380D01*
X143795476Y-50479761D01*
X143747857Y-50432142D01*
X143700238Y-50336904D01*
X143700238Y-50051190D01*
X143747857Y-49955952D01*
X143795476Y-49908333D01*
X143890714Y-49860714D01*
X144081190Y-49860714D01*
X144176428Y-49908333D01*
X145033571Y-50479761D02*
X144938333Y-50527380D01*
X144747857Y-50527380D01*
X144652619Y-50479761D01*
X144605000Y-50384523D01*
X144605000Y-50003571D01*
X144652619Y-49908333D01*
X144747857Y-49860714D01*
X144938333Y-49860714D01*
X145033571Y-49908333D01*
X145081190Y-50003571D01*
X145081190Y-50098809D01*
X144605000Y-50194047D01*
X145366904Y-49860714D02*
X145747857Y-49860714D01*
X145509761Y-49527380D02*
X145509761Y-50384523D01*
X145557380Y-50479761D01*
X145652619Y-50527380D01*
X145747857Y-50527380D01*
X148081190Y-49527380D02*
X147605000Y-49527380D01*
X147557380Y-50003571D01*
X147605000Y-49955952D01*
X147700238Y-49908333D01*
X147938333Y-49908333D01*
X148033571Y-49955952D01*
X148081190Y-50003571D01*
X148128809Y-50098809D01*
X148128809Y-50336904D01*
X148081190Y-50432142D01*
X148033571Y-50479761D01*
X147938333Y-50527380D01*
X147700238Y-50527380D01*
X147605000Y-50479761D01*
X147557380Y-50432142D01*
X148414523Y-49527380D02*
X148747857Y-50527380D01*
X149081190Y-49527380D01*
X150033571Y-49860714D02*
X150414523Y-49860714D01*
X150176428Y-50527380D02*
X150176428Y-49670238D01*
X150224047Y-49575000D01*
X150319285Y-49527380D01*
X150414523Y-49527380D01*
X150747857Y-50527380D02*
X150747857Y-49860714D01*
X150747857Y-50051190D02*
X150795476Y-49955952D01*
X150843095Y-49908333D01*
X150938333Y-49860714D01*
X151033571Y-49860714D01*
X151509761Y-50527380D02*
X151414523Y-50479761D01*
X151366904Y-50432142D01*
X151319285Y-50336904D01*
X151319285Y-50051190D01*
X151366904Y-49955952D01*
X151414523Y-49908333D01*
X151509761Y-49860714D01*
X151652619Y-49860714D01*
X151747857Y-49908333D01*
X151795476Y-49955952D01*
X151843095Y-50051190D01*
X151843095Y-50336904D01*
X151795476Y-50432142D01*
X151747857Y-50479761D01*
X151652619Y-50527380D01*
X151509761Y-50527380D01*
X152271666Y-50527380D02*
X152271666Y-49860714D01*
X152271666Y-49955952D02*
X152319285Y-49908333D01*
X152414523Y-49860714D01*
X152557380Y-49860714D01*
X152652619Y-49908333D01*
X152700238Y-50003571D01*
X152700238Y-50527380D01*
X152700238Y-50003571D02*
X152747857Y-49908333D01*
X152843095Y-49860714D01*
X152985952Y-49860714D01*
X153081190Y-49908333D01*
X153128809Y-50003571D01*
X153128809Y-50527380D01*
X154795476Y-49860714D02*
X154795476Y-50527380D01*
X154557380Y-49479761D02*
X154319285Y-50194047D01*
X154938333Y-50194047D01*
X155319285Y-50146428D02*
X156081190Y-50146428D01*
X156557380Y-50527380D02*
X156557380Y-49527380D01*
X156938333Y-49527380D01*
X157033571Y-49575000D01*
X157081190Y-49622619D01*
X157128809Y-49717857D01*
X157128809Y-49860714D01*
X157081190Y-49955952D01*
X157033571Y-50003571D01*
X156938333Y-50051190D01*
X156557380Y-50051190D01*
X157557380Y-50527380D02*
X157557380Y-49860714D01*
X157557380Y-49527380D02*
X157509761Y-49575000D01*
X157557380Y-49622619D01*
X157605000Y-49575000D01*
X157557380Y-49527380D01*
X157557380Y-49622619D01*
X158033571Y-49860714D02*
X158033571Y-50527380D01*
X158033571Y-49955952D02*
X158081190Y-49908333D01*
X158176428Y-49860714D01*
X158319285Y-49860714D01*
X158414523Y-49908333D01*
X158462142Y-50003571D01*
X158462142Y-50527380D01*
X160033571Y-50003571D02*
X160176428Y-50051190D01*
X160224047Y-50098809D01*
X160271666Y-50194047D01*
X160271666Y-50336904D01*
X160224047Y-50432142D01*
X160176428Y-50479761D01*
X160081190Y-50527380D01*
X159700238Y-50527380D01*
X159700238Y-49527380D01*
X160033571Y-49527380D01*
X160128809Y-49575000D01*
X160176428Y-49622619D01*
X160224047Y-49717857D01*
X160224047Y-49813095D01*
X160176428Y-49908333D01*
X160128809Y-49955952D01*
X160033571Y-50003571D01*
X159700238Y-50003571D01*
X161081190Y-50479761D02*
X160985952Y-50527380D01*
X160795476Y-50527380D01*
X160700238Y-50479761D01*
X160652619Y-50384523D01*
X160652619Y-50003571D01*
X160700238Y-49908333D01*
X160795476Y-49860714D01*
X160985952Y-49860714D01*
X161081190Y-49908333D01*
X161128809Y-50003571D01*
X161128809Y-50098809D01*
X160652619Y-50194047D01*
X161557380Y-50527380D02*
X161557380Y-49860714D01*
X161557380Y-50051190D02*
X161605000Y-49955952D01*
X161652619Y-49908333D01*
X161747857Y-49860714D01*
X161843095Y-49860714D01*
X162605000Y-49860714D02*
X162605000Y-50670238D01*
X162557380Y-50765476D01*
X162509761Y-50813095D01*
X162414523Y-50860714D01*
X162271666Y-50860714D01*
X162176428Y-50813095D01*
X162605000Y-50479761D02*
X162509761Y-50527380D01*
X162319285Y-50527380D01*
X162224047Y-50479761D01*
X162176428Y-50432142D01*
X162128809Y-50336904D01*
X162128809Y-50051190D01*
X162176428Y-49955952D01*
X162224047Y-49908333D01*
X162319285Y-49860714D01*
X162509761Y-49860714D01*
X162605000Y-49908333D01*
X131414523Y-52132142D02*
X131366904Y-52179761D01*
X131224047Y-52227380D01*
X131128809Y-52227380D01*
X130985952Y-52179761D01*
X130890714Y-52084523D01*
X130843095Y-51989285D01*
X130795476Y-51798809D01*
X130795476Y-51655952D01*
X130843095Y-51465476D01*
X130890714Y-51370238D01*
X130985952Y-51275000D01*
X131128809Y-51227380D01*
X131224047Y-51227380D01*
X131366904Y-51275000D01*
X131414523Y-51322619D01*
X131985952Y-52227380D02*
X131890714Y-52179761D01*
X131843095Y-52132142D01*
X131795476Y-52036904D01*
X131795476Y-51751190D01*
X131843095Y-51655952D01*
X131890714Y-51608333D01*
X131985952Y-51560714D01*
X132128809Y-51560714D01*
X132224047Y-51608333D01*
X132271666Y-51655952D01*
X132319285Y-51751190D01*
X132319285Y-52036904D01*
X132271666Y-52132142D01*
X132224047Y-52179761D01*
X132128809Y-52227380D01*
X131985952Y-52227380D01*
X132747857Y-51560714D02*
X132747857Y-52227380D01*
X132747857Y-51655952D02*
X132795476Y-51608333D01*
X132890714Y-51560714D01*
X133033571Y-51560714D01*
X133128809Y-51608333D01*
X133176428Y-51703571D01*
X133176428Y-52227380D01*
X133652619Y-51560714D02*
X133652619Y-52227380D01*
X133652619Y-51655952D02*
X133700238Y-51608333D01*
X133795476Y-51560714D01*
X133938333Y-51560714D01*
X134033571Y-51608333D01*
X134081190Y-51703571D01*
X134081190Y-52227380D01*
X134938333Y-52179761D02*
X134843095Y-52227380D01*
X134652619Y-52227380D01*
X134557380Y-52179761D01*
X134509761Y-52084523D01*
X134509761Y-51703571D01*
X134557380Y-51608333D01*
X134652619Y-51560714D01*
X134843095Y-51560714D01*
X134938333Y-51608333D01*
X134985952Y-51703571D01*
X134985952Y-51798809D01*
X134509761Y-51894047D01*
X135843095Y-52179761D02*
X135747857Y-52227380D01*
X135557380Y-52227380D01*
X135462142Y-52179761D01*
X135414523Y-52132142D01*
X135366904Y-52036904D01*
X135366904Y-51751190D01*
X135414523Y-51655952D01*
X135462142Y-51608333D01*
X135557380Y-51560714D01*
X135747857Y-51560714D01*
X135843095Y-51608333D01*
X136128809Y-51560714D02*
X136509761Y-51560714D01*
X136271666Y-51227380D02*
X136271666Y-52084523D01*
X136319285Y-52179761D01*
X136414523Y-52227380D01*
X136509761Y-52227380D01*
X137985952Y-52179761D02*
X137890714Y-52227380D01*
X137700238Y-52227380D01*
X137605000Y-52179761D01*
X137557380Y-52084523D01*
X137557380Y-51703571D01*
X137605000Y-51608333D01*
X137700238Y-51560714D01*
X137890714Y-51560714D01*
X137985952Y-51608333D01*
X138033571Y-51703571D01*
X138033571Y-51798809D01*
X137557380Y-51894047D01*
X138366904Y-52227380D02*
X138890714Y-51560714D01*
X138366904Y-51560714D02*
X138890714Y-52227380D01*
X139128809Y-51560714D02*
X139509761Y-51560714D01*
X139271666Y-51227380D02*
X139271666Y-52084523D01*
X139319285Y-52179761D01*
X139414523Y-52227380D01*
X139509761Y-52227380D01*
X139843095Y-52132142D02*
X139890714Y-52179761D01*
X139843095Y-52227380D01*
X139795476Y-52179761D01*
X139843095Y-52132142D01*
X139843095Y-52227380D01*
X141557380Y-51227380D02*
X141081190Y-51227380D01*
X141033571Y-51703571D01*
X141081190Y-51655952D01*
X141176428Y-51608333D01*
X141414523Y-51608333D01*
X141509761Y-51655952D01*
X141557380Y-51703571D01*
X141605000Y-51798809D01*
X141605000Y-52036904D01*
X141557380Y-52132142D01*
X141509761Y-52179761D01*
X141414523Y-52227380D01*
X141176428Y-52227380D01*
X141081190Y-52179761D01*
X141033571Y-52132142D01*
X141890714Y-51227380D02*
X142224047Y-52227380D01*
X142557380Y-51227380D01*
X143605000Y-52179761D02*
X143700238Y-52227380D01*
X143890714Y-52227380D01*
X143985952Y-52179761D01*
X144033571Y-52084523D01*
X144033571Y-52036904D01*
X143985952Y-51941666D01*
X143890714Y-51894047D01*
X143747857Y-51894047D01*
X143652619Y-51846428D01*
X143605000Y-51751190D01*
X143605000Y-51703571D01*
X143652619Y-51608333D01*
X143747857Y-51560714D01*
X143890714Y-51560714D01*
X143985952Y-51608333D01*
X144605000Y-52227380D02*
X144509761Y-52179761D01*
X144462142Y-52132142D01*
X144414523Y-52036904D01*
X144414523Y-51751190D01*
X144462142Y-51655952D01*
X144509761Y-51608333D01*
X144605000Y-51560714D01*
X144747857Y-51560714D01*
X144843095Y-51608333D01*
X144890714Y-51655952D01*
X144938333Y-51751190D01*
X144938333Y-52036904D01*
X144890714Y-52132142D01*
X144843095Y-52179761D01*
X144747857Y-52227380D01*
X144605000Y-52227380D01*
X145795476Y-51560714D02*
X145795476Y-52227380D01*
X145366904Y-51560714D02*
X145366904Y-52084523D01*
X145414523Y-52179761D01*
X145509761Y-52227380D01*
X145652619Y-52227380D01*
X145747857Y-52179761D01*
X145795476Y-52132142D01*
X146271666Y-52227380D02*
X146271666Y-51560714D01*
X146271666Y-51751190D02*
X146319285Y-51655952D01*
X146366904Y-51608333D01*
X146462142Y-51560714D01*
X146557380Y-51560714D01*
X147319285Y-52179761D02*
X147224047Y-52227380D01*
X147033571Y-52227380D01*
X146938333Y-52179761D01*
X146890714Y-52132142D01*
X146843095Y-52036904D01*
X146843095Y-51751190D01*
X146890714Y-51655952D01*
X146938333Y-51608333D01*
X147033571Y-51560714D01*
X147224047Y-51560714D01*
X147319285Y-51608333D01*
X148128809Y-52179761D02*
X148033571Y-52227380D01*
X147843095Y-52227380D01*
X147747857Y-52179761D01*
X147700238Y-52084523D01*
X147700238Y-51703571D01*
X147747857Y-51608333D01*
X147843095Y-51560714D01*
X148033571Y-51560714D01*
X148128809Y-51608333D01*
X148176428Y-51703571D01*
X148176428Y-51798809D01*
X147700238Y-51894047D01*
X149224047Y-51560714D02*
X149605000Y-51560714D01*
X149366904Y-51227380D02*
X149366904Y-52084523D01*
X149414523Y-52179761D01*
X149509761Y-52227380D01*
X149605000Y-52227380D01*
X150081190Y-52227380D02*
X149985952Y-52179761D01*
X149938333Y-52132142D01*
X149890714Y-52036904D01*
X149890714Y-51751190D01*
X149938333Y-51655952D01*
X149985952Y-51608333D01*
X150081190Y-51560714D01*
X150224047Y-51560714D01*
X150319285Y-51608333D01*
X150366904Y-51655952D01*
X150414523Y-51751190D01*
X150414523Y-52036904D01*
X150366904Y-52132142D01*
X150319285Y-52179761D01*
X150224047Y-52227380D01*
X150081190Y-52227380D01*
X152128809Y-52227380D02*
X151557380Y-52227380D01*
X151843095Y-52227380D02*
X151843095Y-51227380D01*
X151747857Y-51370238D01*
X151652619Y-51465476D01*
X151557380Y-51513095D01*
X153605000Y-52608333D02*
X153557380Y-52560714D01*
X153462142Y-52417857D01*
X153414523Y-52322619D01*
X153366904Y-52179761D01*
X153319285Y-51941666D01*
X153319285Y-51751190D01*
X153366904Y-51513095D01*
X153414523Y-51370238D01*
X153462142Y-51275000D01*
X153557380Y-51132142D01*
X153605000Y-51084523D01*
X154462142Y-51227380D02*
X153985952Y-51227380D01*
X153938333Y-51703571D01*
X153985952Y-51655952D01*
X154081190Y-51608333D01*
X154319285Y-51608333D01*
X154414523Y-51655952D01*
X154462142Y-51703571D01*
X154509761Y-51798809D01*
X154509761Y-52036904D01*
X154462142Y-52132142D01*
X154414523Y-52179761D01*
X154319285Y-52227380D01*
X154081190Y-52227380D01*
X153985952Y-52179761D01*
X153938333Y-52132142D01*
X154795476Y-51227380D02*
X155128809Y-52227380D01*
X155462142Y-51227380D01*
X155700238Y-52608333D02*
X155747857Y-52560714D01*
X155843095Y-52417857D01*
X155890714Y-52322619D01*
X155938333Y-52179761D01*
X155985952Y-51941666D01*
X155985952Y-51751190D01*
X155938333Y-51513095D01*
X155890714Y-51370238D01*
X155843095Y-51275000D01*
X155747857Y-51132142D01*
X155700238Y-51084523D01*
X157652619Y-52227380D02*
X157652619Y-51703571D01*
X157605000Y-51608333D01*
X157509761Y-51560714D01*
X157319285Y-51560714D01*
X157224047Y-51608333D01*
X157652619Y-52179761D02*
X157557380Y-52227380D01*
X157319285Y-52227380D01*
X157224047Y-52179761D01*
X157176428Y-52084523D01*
X157176428Y-51989285D01*
X157224047Y-51894047D01*
X157319285Y-51846428D01*
X157557380Y-51846428D01*
X157652619Y-51798809D01*
X158128809Y-51560714D02*
X158128809Y-52227380D01*
X158128809Y-51655952D02*
X158176428Y-51608333D01*
X158271666Y-51560714D01*
X158414523Y-51560714D01*
X158509761Y-51608333D01*
X158557380Y-51703571D01*
X158557380Y-52227380D01*
X159462142Y-52227380D02*
X159462142Y-51227380D01*
X159462142Y-52179761D02*
X159366904Y-52227380D01*
X159176428Y-52227380D01*
X159081190Y-52179761D01*
X159033571Y-52132142D01*
X158985952Y-52036904D01*
X158985952Y-51751190D01*
X159033571Y-51655952D01*
X159081190Y-51608333D01*
X159176428Y-51560714D01*
X159366904Y-51560714D01*
X159462142Y-51608333D01*
X161366904Y-51227380D02*
X161985952Y-51227380D01*
X161652619Y-51608333D01*
X161795476Y-51608333D01*
X161890714Y-51655952D01*
X161938333Y-51703571D01*
X161985952Y-51798809D01*
X161985952Y-52036904D01*
X161938333Y-52132142D01*
X161890714Y-52179761D01*
X161795476Y-52227380D01*
X161509761Y-52227380D01*
X161414523Y-52179761D01*
X161366904Y-52132142D01*
X163462142Y-52608333D02*
X163414523Y-52560714D01*
X163319285Y-52417857D01*
X163271666Y-52322619D01*
X163224047Y-52179761D01*
X163176428Y-51941666D01*
X163176428Y-51751190D01*
X163224047Y-51513095D01*
X163271666Y-51370238D01*
X163319285Y-51275000D01*
X163414523Y-51132142D01*
X163462142Y-51084523D01*
X164366904Y-51275000D02*
X164271666Y-51227380D01*
X164128809Y-51227380D01*
X163985952Y-51275000D01*
X163890714Y-51370238D01*
X163843095Y-51465476D01*
X163795476Y-51655952D01*
X163795476Y-51798809D01*
X163843095Y-51989285D01*
X163890714Y-52084523D01*
X163985952Y-52179761D01*
X164128809Y-52227380D01*
X164224047Y-52227380D01*
X164366904Y-52179761D01*
X164414523Y-52132142D01*
X164414523Y-51798809D01*
X164224047Y-51798809D01*
X164843095Y-52227380D02*
X164843095Y-51227380D01*
X165414523Y-52227380D01*
X165414523Y-51227380D01*
X165890714Y-52227380D02*
X165890714Y-51227380D01*
X166128809Y-51227380D01*
X166271666Y-51275000D01*
X166366904Y-51370238D01*
X166414523Y-51465476D01*
X166462142Y-51655952D01*
X166462142Y-51798809D01*
X166414523Y-51989285D01*
X166366904Y-52084523D01*
X166271666Y-52179761D01*
X166128809Y-52227380D01*
X165890714Y-52227380D01*
X166795476Y-52608333D02*
X166843095Y-52560714D01*
X166938333Y-52417857D01*
X166985952Y-52322619D01*
X167033571Y-52179761D01*
X167081190Y-51941666D01*
X167081190Y-51751190D01*
X167033571Y-51513095D01*
X166985952Y-51370238D01*
X166938333Y-51275000D01*
X166843095Y-51132142D01*
X166795476Y-51084523D01*
X131176428Y-53403571D02*
X131319285Y-53451190D01*
X131366904Y-53498809D01*
X131414523Y-53594047D01*
X131414523Y-53736904D01*
X131366904Y-53832142D01*
X131319285Y-53879761D01*
X131224047Y-53927380D01*
X130843095Y-53927380D01*
X130843095Y-52927380D01*
X131176428Y-52927380D01*
X131271666Y-52975000D01*
X131319285Y-53022619D01*
X131366904Y-53117857D01*
X131366904Y-53213095D01*
X131319285Y-53308333D01*
X131271666Y-53355952D01*
X131176428Y-53403571D01*
X130843095Y-53403571D01*
X131843095Y-53927380D02*
X131843095Y-53260714D01*
X131843095Y-53451190D02*
X131890714Y-53355952D01*
X131938333Y-53308333D01*
X132033571Y-53260714D01*
X132128809Y-53260714D01*
X132462142Y-53927380D02*
X132462142Y-53260714D01*
X132462142Y-52927380D02*
X132414523Y-52975000D01*
X132462142Y-53022619D01*
X132509761Y-52975000D01*
X132462142Y-52927380D01*
X132462142Y-53022619D01*
X133366904Y-53927380D02*
X133366904Y-52927380D01*
X133366904Y-53879761D02*
X133271666Y-53927380D01*
X133081190Y-53927380D01*
X132985952Y-53879761D01*
X132938333Y-53832142D01*
X132890714Y-53736904D01*
X132890714Y-53451190D01*
X132938333Y-53355952D01*
X132985952Y-53308333D01*
X133081190Y-53260714D01*
X133271666Y-53260714D01*
X133366904Y-53308333D01*
X134271666Y-53260714D02*
X134271666Y-54070238D01*
X134224047Y-54165476D01*
X134176428Y-54213095D01*
X134081190Y-54260714D01*
X133938333Y-54260714D01*
X133843095Y-54213095D01*
X134271666Y-53879761D02*
X134176428Y-53927380D01*
X133985952Y-53927380D01*
X133890714Y-53879761D01*
X133843095Y-53832142D01*
X133795476Y-53736904D01*
X133795476Y-53451190D01*
X133843095Y-53355952D01*
X133890714Y-53308333D01*
X133985952Y-53260714D01*
X134176428Y-53260714D01*
X134271666Y-53308333D01*
X135128809Y-53879761D02*
X135033571Y-53927380D01*
X134843095Y-53927380D01*
X134747857Y-53879761D01*
X134700238Y-53784523D01*
X134700238Y-53403571D01*
X134747857Y-53308333D01*
X134843095Y-53260714D01*
X135033571Y-53260714D01*
X135128809Y-53308333D01*
X135176428Y-53403571D01*
X135176428Y-53498809D01*
X134700238Y-53594047D01*
X136271666Y-52927380D02*
X136938333Y-52927380D01*
X136509761Y-53927380D01*
X137319285Y-53546428D02*
X138081190Y-53546428D01*
X138557380Y-53260714D02*
X139319285Y-53546428D01*
X138557380Y-53832142D01*
X139938333Y-53355952D02*
X139843095Y-53308333D01*
X139795476Y-53260714D01*
X139747857Y-53165476D01*
X139747857Y-53117857D01*
X139795476Y-53022619D01*
X139843095Y-52975000D01*
X139938333Y-52927380D01*
X140128809Y-52927380D01*
X140224047Y-52975000D01*
X140271666Y-53022619D01*
X140319285Y-53117857D01*
X140319285Y-53165476D01*
X140271666Y-53260714D01*
X140224047Y-53308333D01*
X140128809Y-53355952D01*
X139938333Y-53355952D01*
X139843095Y-53403571D01*
X139795476Y-53451190D01*
X139747857Y-53546428D01*
X139747857Y-53736904D01*
X139795476Y-53832142D01*
X139843095Y-53879761D01*
X139938333Y-53927380D01*
X140128809Y-53927380D01*
X140224047Y-53879761D01*
X140271666Y-53832142D01*
X140319285Y-53736904D01*
X140319285Y-53546428D01*
X140271666Y-53451190D01*
X140224047Y-53403571D01*
X140128809Y-53355952D01*
X141366904Y-53260714D02*
X141747857Y-53260714D01*
X141509761Y-52927380D02*
X141509761Y-53784523D01*
X141557380Y-53879761D01*
X141652619Y-53927380D01*
X141747857Y-53927380D01*
X142224047Y-53927380D02*
X142128809Y-53879761D01*
X142081190Y-53832142D01*
X142033571Y-53736904D01*
X142033571Y-53451190D01*
X142081190Y-53355952D01*
X142128809Y-53308333D01*
X142224047Y-53260714D01*
X142366904Y-53260714D01*
X142462142Y-53308333D01*
X142509761Y-53355952D01*
X142557380Y-53451190D01*
X142557380Y-53736904D01*
X142509761Y-53832142D01*
X142462142Y-53879761D01*
X142366904Y-53927380D01*
X142224047Y-53927380D01*
X144176428Y-53260714D02*
X144176428Y-54070238D01*
X144128809Y-54165476D01*
X144081190Y-54213095D01*
X143985952Y-54260714D01*
X143843095Y-54260714D01*
X143747857Y-54213095D01*
X144176428Y-53879761D02*
X144081190Y-53927380D01*
X143890714Y-53927380D01*
X143795476Y-53879761D01*
X143747857Y-53832142D01*
X143700238Y-53736904D01*
X143700238Y-53451190D01*
X143747857Y-53355952D01*
X143795476Y-53308333D01*
X143890714Y-53260714D01*
X144081190Y-53260714D01*
X144176428Y-53308333D01*
X145033571Y-53879761D02*
X144938333Y-53927380D01*
X144747857Y-53927380D01*
X144652619Y-53879761D01*
X144605000Y-53784523D01*
X144605000Y-53403571D01*
X144652619Y-53308333D01*
X144747857Y-53260714D01*
X144938333Y-53260714D01*
X145033571Y-53308333D01*
X145081190Y-53403571D01*
X145081190Y-53498809D01*
X144605000Y-53594047D01*
X145366904Y-53260714D02*
X145747857Y-53260714D01*
X145509761Y-52927380D02*
X145509761Y-53784523D01*
X145557380Y-53879761D01*
X145652619Y-53927380D01*
X145747857Y-53927380D01*
X147366904Y-53927380D02*
X146795476Y-53927380D01*
X147081190Y-53927380D02*
X147081190Y-52927380D01*
X146985952Y-53070238D01*
X146890714Y-53165476D01*
X146795476Y-53213095D01*
X147747857Y-53022619D02*
X147795476Y-52975000D01*
X147890714Y-52927380D01*
X148128809Y-52927380D01*
X148224047Y-52975000D01*
X148271666Y-53022619D01*
X148319285Y-53117857D01*
X148319285Y-53213095D01*
X148271666Y-53355952D01*
X147700238Y-53927380D01*
X148319285Y-53927380D01*
X148605000Y-52927380D02*
X148938333Y-53927380D01*
X149271666Y-52927380D01*
X150224047Y-53260714D02*
X150605000Y-53260714D01*
X150366904Y-53927380D02*
X150366904Y-53070238D01*
X150414523Y-52975000D01*
X150509761Y-52927380D01*
X150605000Y-52927380D01*
X150938333Y-53927380D02*
X150938333Y-53260714D01*
X150938333Y-53451190D02*
X150985952Y-53355952D01*
X151033571Y-53308333D01*
X151128809Y-53260714D01*
X151224047Y-53260714D01*
X151700238Y-53927380D02*
X151605000Y-53879761D01*
X151557380Y-53832142D01*
X151509761Y-53736904D01*
X151509761Y-53451190D01*
X151557380Y-53355952D01*
X151605000Y-53308333D01*
X151700238Y-53260714D01*
X151843095Y-53260714D01*
X151938333Y-53308333D01*
X151985952Y-53355952D01*
X152033571Y-53451190D01*
X152033571Y-53736904D01*
X151985952Y-53832142D01*
X151938333Y-53879761D01*
X151843095Y-53927380D01*
X151700238Y-53927380D01*
X152462142Y-53927380D02*
X152462142Y-53260714D01*
X152462142Y-53355952D02*
X152509761Y-53308333D01*
X152605000Y-53260714D01*
X152747857Y-53260714D01*
X152843095Y-53308333D01*
X152890714Y-53403571D01*
X152890714Y-53927380D01*
X152890714Y-53403571D02*
X152938333Y-53308333D01*
X153033571Y-53260714D01*
X153176428Y-53260714D01*
X153271666Y-53308333D01*
X153319285Y-53403571D01*
X153319285Y-53927380D01*
X154985952Y-53260714D02*
X154985952Y-53927380D01*
X154747857Y-52879761D02*
X154509761Y-53594047D01*
X155128809Y-53594047D01*
X155509761Y-53546428D02*
X156271666Y-53546428D01*
X156747857Y-53927380D02*
X156747857Y-52927380D01*
X157128809Y-52927380D01*
X157224047Y-52975000D01*
X157271666Y-53022619D01*
X157319285Y-53117857D01*
X157319285Y-53260714D01*
X157271666Y-53355952D01*
X157224047Y-53403571D01*
X157128809Y-53451190D01*
X156747857Y-53451190D01*
X157747857Y-53927380D02*
X157747857Y-53260714D01*
X157747857Y-52927380D02*
X157700238Y-52975000D01*
X157747857Y-53022619D01*
X157795476Y-52975000D01*
X157747857Y-52927380D01*
X157747857Y-53022619D01*
X158224047Y-53260714D02*
X158224047Y-53927380D01*
X158224047Y-53355952D02*
X158271666Y-53308333D01*
X158366904Y-53260714D01*
X158509761Y-53260714D01*
X158605000Y-53308333D01*
X158652619Y-53403571D01*
X158652619Y-53927380D01*
X160224047Y-53403571D02*
X160366904Y-53451190D01*
X160414523Y-53498809D01*
X160462142Y-53594047D01*
X160462142Y-53736904D01*
X160414523Y-53832142D01*
X160366904Y-53879761D01*
X160271666Y-53927380D01*
X159890714Y-53927380D01*
X159890714Y-52927380D01*
X160224047Y-52927380D01*
X160319285Y-52975000D01*
X160366904Y-53022619D01*
X160414523Y-53117857D01*
X160414523Y-53213095D01*
X160366904Y-53308333D01*
X160319285Y-53355952D01*
X160224047Y-53403571D01*
X159890714Y-53403571D01*
X161271666Y-53879761D02*
X161176428Y-53927380D01*
X160985952Y-53927380D01*
X160890714Y-53879761D01*
X160843095Y-53784523D01*
X160843095Y-53403571D01*
X160890714Y-53308333D01*
X160985952Y-53260714D01*
X161176428Y-53260714D01*
X161271666Y-53308333D01*
X161319285Y-53403571D01*
X161319285Y-53498809D01*
X160843095Y-53594047D01*
X161747857Y-53927380D02*
X161747857Y-53260714D01*
X161747857Y-53451190D02*
X161795476Y-53355952D01*
X161843095Y-53308333D01*
X161938333Y-53260714D01*
X162033571Y-53260714D01*
X162795476Y-53260714D02*
X162795476Y-54070238D01*
X162747857Y-54165476D01*
X162700238Y-54213095D01*
X162605000Y-54260714D01*
X162462142Y-54260714D01*
X162366904Y-54213095D01*
X162795476Y-53879761D02*
X162700238Y-53927380D01*
X162509761Y-53927380D01*
X162414523Y-53879761D01*
X162366904Y-53832142D01*
X162319285Y-53736904D01*
X162319285Y-53451190D01*
X162366904Y-53355952D01*
X162414523Y-53308333D01*
X162509761Y-53260714D01*
X162700238Y-53260714D01*
X162795476Y-53308333D01*
X131414523Y-55532142D02*
X131366904Y-55579761D01*
X131224047Y-55627380D01*
X131128809Y-55627380D01*
X130985952Y-55579761D01*
X130890714Y-55484523D01*
X130843095Y-55389285D01*
X130795476Y-55198809D01*
X130795476Y-55055952D01*
X130843095Y-54865476D01*
X130890714Y-54770238D01*
X130985952Y-54675000D01*
X131128809Y-54627380D01*
X131224047Y-54627380D01*
X131366904Y-54675000D01*
X131414523Y-54722619D01*
X131985952Y-55627380D02*
X131890714Y-55579761D01*
X131843095Y-55532142D01*
X131795476Y-55436904D01*
X131795476Y-55151190D01*
X131843095Y-55055952D01*
X131890714Y-55008333D01*
X131985952Y-54960714D01*
X132128809Y-54960714D01*
X132224047Y-55008333D01*
X132271666Y-55055952D01*
X132319285Y-55151190D01*
X132319285Y-55436904D01*
X132271666Y-55532142D01*
X132224047Y-55579761D01*
X132128809Y-55627380D01*
X131985952Y-55627380D01*
X132747857Y-54960714D02*
X132747857Y-55627380D01*
X132747857Y-55055952D02*
X132795476Y-55008333D01*
X132890714Y-54960714D01*
X133033571Y-54960714D01*
X133128809Y-55008333D01*
X133176428Y-55103571D01*
X133176428Y-55627380D01*
X133652619Y-54960714D02*
X133652619Y-55627380D01*
X133652619Y-55055952D02*
X133700238Y-55008333D01*
X133795476Y-54960714D01*
X133938333Y-54960714D01*
X134033571Y-55008333D01*
X134081190Y-55103571D01*
X134081190Y-55627380D01*
X134938333Y-55579761D02*
X134843095Y-55627380D01*
X134652619Y-55627380D01*
X134557380Y-55579761D01*
X134509761Y-55484523D01*
X134509761Y-55103571D01*
X134557380Y-55008333D01*
X134652619Y-54960714D01*
X134843095Y-54960714D01*
X134938333Y-55008333D01*
X134985952Y-55103571D01*
X134985952Y-55198809D01*
X134509761Y-55294047D01*
X135843095Y-55579761D02*
X135747857Y-55627380D01*
X135557380Y-55627380D01*
X135462142Y-55579761D01*
X135414523Y-55532142D01*
X135366904Y-55436904D01*
X135366904Y-55151190D01*
X135414523Y-55055952D01*
X135462142Y-55008333D01*
X135557380Y-54960714D01*
X135747857Y-54960714D01*
X135843095Y-55008333D01*
X136128809Y-54960714D02*
X136509761Y-54960714D01*
X136271666Y-54627380D02*
X136271666Y-55484523D01*
X136319285Y-55579761D01*
X136414523Y-55627380D01*
X136509761Y-55627380D01*
X137985952Y-55579761D02*
X137890714Y-55627380D01*
X137700238Y-55627380D01*
X137605000Y-55579761D01*
X137557380Y-55484523D01*
X137557380Y-55103571D01*
X137605000Y-55008333D01*
X137700238Y-54960714D01*
X137890714Y-54960714D01*
X137985952Y-55008333D01*
X138033571Y-55103571D01*
X138033571Y-55198809D01*
X137557380Y-55294047D01*
X138366904Y-55627380D02*
X138890714Y-54960714D01*
X138366904Y-54960714D02*
X138890714Y-55627380D01*
X139128809Y-54960714D02*
X139509761Y-54960714D01*
X139271666Y-54627380D02*
X139271666Y-55484523D01*
X139319285Y-55579761D01*
X139414523Y-55627380D01*
X139509761Y-55627380D01*
X139843095Y-55532142D02*
X139890714Y-55579761D01*
X139843095Y-55627380D01*
X139795476Y-55579761D01*
X139843095Y-55532142D01*
X139843095Y-55627380D01*
X141605000Y-55627380D02*
X141033571Y-55627380D01*
X141319285Y-55627380D02*
X141319285Y-54627380D01*
X141224047Y-54770238D01*
X141128809Y-54865476D01*
X141033571Y-54913095D01*
X141985952Y-54722619D02*
X142033571Y-54675000D01*
X142128809Y-54627380D01*
X142366904Y-54627380D01*
X142462142Y-54675000D01*
X142509761Y-54722619D01*
X142557380Y-54817857D01*
X142557380Y-54913095D01*
X142509761Y-55055952D01*
X141938333Y-55627380D01*
X142557380Y-55627380D01*
X142843095Y-54627380D02*
X143176428Y-55627380D01*
X143509761Y-54627380D01*
X144557380Y-55579761D02*
X144652619Y-55627380D01*
X144843095Y-55627380D01*
X144938333Y-55579761D01*
X144985952Y-55484523D01*
X144985952Y-55436904D01*
X144938333Y-55341666D01*
X144843095Y-55294047D01*
X144700238Y-55294047D01*
X144605000Y-55246428D01*
X144557380Y-55151190D01*
X144557380Y-55103571D01*
X144605000Y-55008333D01*
X144700238Y-54960714D01*
X144843095Y-54960714D01*
X144938333Y-55008333D01*
X145557380Y-55627380D02*
X145462142Y-55579761D01*
X145414523Y-55532142D01*
X145366904Y-55436904D01*
X145366904Y-55151190D01*
X145414523Y-55055952D01*
X145462142Y-55008333D01*
X145557380Y-54960714D01*
X145700238Y-54960714D01*
X145795476Y-55008333D01*
X145843095Y-55055952D01*
X145890714Y-55151190D01*
X145890714Y-55436904D01*
X145843095Y-55532142D01*
X145795476Y-55579761D01*
X145700238Y-55627380D01*
X145557380Y-55627380D01*
X146747857Y-54960714D02*
X146747857Y-55627380D01*
X146319285Y-54960714D02*
X146319285Y-55484523D01*
X146366904Y-55579761D01*
X146462142Y-55627380D01*
X146605000Y-55627380D01*
X146700238Y-55579761D01*
X146747857Y-55532142D01*
X147224047Y-55627380D02*
X147224047Y-54960714D01*
X147224047Y-55151190D02*
X147271666Y-55055952D01*
X147319285Y-55008333D01*
X147414523Y-54960714D01*
X147509761Y-54960714D01*
X148271666Y-55579761D02*
X148176428Y-55627380D01*
X147985952Y-55627380D01*
X147890714Y-55579761D01*
X147843095Y-55532142D01*
X147795476Y-55436904D01*
X147795476Y-55151190D01*
X147843095Y-55055952D01*
X147890714Y-55008333D01*
X147985952Y-54960714D01*
X148176428Y-54960714D01*
X148271666Y-55008333D01*
X149081190Y-55579761D02*
X148985952Y-55627380D01*
X148795476Y-55627380D01*
X148700238Y-55579761D01*
X148652619Y-55484523D01*
X148652619Y-55103571D01*
X148700238Y-55008333D01*
X148795476Y-54960714D01*
X148985952Y-54960714D01*
X149081190Y-55008333D01*
X149128809Y-55103571D01*
X149128809Y-55198809D01*
X148652619Y-55294047D01*
X150176428Y-54960714D02*
X150557380Y-54960714D01*
X150319285Y-54627380D02*
X150319285Y-55484523D01*
X150366904Y-55579761D01*
X150462142Y-55627380D01*
X150557380Y-55627380D01*
X151033571Y-55627380D02*
X150938333Y-55579761D01*
X150890714Y-55532142D01*
X150843095Y-55436904D01*
X150843095Y-55151190D01*
X150890714Y-55055952D01*
X150938333Y-55008333D01*
X151033571Y-54960714D01*
X151176428Y-54960714D01*
X151271666Y-55008333D01*
X151319285Y-55055952D01*
X151366904Y-55151190D01*
X151366904Y-55436904D01*
X151319285Y-55532142D01*
X151271666Y-55579761D01*
X151176428Y-55627380D01*
X151033571Y-55627380D01*
X152462142Y-54627380D02*
X153128809Y-54627380D01*
X152700238Y-55627380D01*
X154557380Y-56008333D02*
X154509761Y-55960714D01*
X154414523Y-55817857D01*
X154366904Y-55722619D01*
X154319285Y-55579761D01*
X154271666Y-55341666D01*
X154271666Y-55151190D01*
X154319285Y-54913095D01*
X154366904Y-54770238D01*
X154414523Y-54675000D01*
X154509761Y-54532142D01*
X154557380Y-54484523D01*
X155462142Y-55627380D02*
X154890714Y-55627380D01*
X155176428Y-55627380D02*
X155176428Y-54627380D01*
X155081190Y-54770238D01*
X154985952Y-54865476D01*
X154890714Y-54913095D01*
X155843095Y-54722619D02*
X155890714Y-54675000D01*
X155985952Y-54627380D01*
X156224047Y-54627380D01*
X156319285Y-54675000D01*
X156366904Y-54722619D01*
X156414523Y-54817857D01*
X156414523Y-54913095D01*
X156366904Y-55055952D01*
X155795476Y-55627380D01*
X156414523Y-55627380D01*
X156700238Y-54627380D02*
X157033571Y-55627380D01*
X157366904Y-54627380D01*
X157605000Y-56008333D02*
X157652619Y-55960714D01*
X157747857Y-55817857D01*
X157795476Y-55722619D01*
X157843095Y-55579761D01*
X157890714Y-55341666D01*
X157890714Y-55151190D01*
X157843095Y-54913095D01*
X157795476Y-54770238D01*
X157747857Y-54675000D01*
X157652619Y-54532142D01*
X157605000Y-54484523D01*
X159557380Y-55627380D02*
X159557380Y-55103571D01*
X159509761Y-55008333D01*
X159414523Y-54960714D01*
X159224047Y-54960714D01*
X159128809Y-55008333D01*
X159557380Y-55579761D02*
X159462142Y-55627380D01*
X159224047Y-55627380D01*
X159128809Y-55579761D01*
X159081190Y-55484523D01*
X159081190Y-55389285D01*
X159128809Y-55294047D01*
X159224047Y-55246428D01*
X159462142Y-55246428D01*
X159557380Y-55198809D01*
X160033571Y-54960714D02*
X160033571Y-55627380D01*
X160033571Y-55055952D02*
X160081190Y-55008333D01*
X160176428Y-54960714D01*
X160319285Y-54960714D01*
X160414523Y-55008333D01*
X160462142Y-55103571D01*
X160462142Y-55627380D01*
X161366904Y-55627380D02*
X161366904Y-54627380D01*
X161366904Y-55579761D02*
X161271666Y-55627380D01*
X161081190Y-55627380D01*
X160985952Y-55579761D01*
X160938333Y-55532142D01*
X160890714Y-55436904D01*
X160890714Y-55151190D01*
X160938333Y-55055952D01*
X160985952Y-55008333D01*
X161081190Y-54960714D01*
X161271666Y-54960714D01*
X161366904Y-55008333D01*
X163843095Y-54627380D02*
X163366904Y-54627380D01*
X163319285Y-55103571D01*
X163366904Y-55055952D01*
X163462142Y-55008333D01*
X163700238Y-55008333D01*
X163795476Y-55055952D01*
X163843095Y-55103571D01*
X163890714Y-55198809D01*
X163890714Y-55436904D01*
X163843095Y-55532142D01*
X163795476Y-55579761D01*
X163700238Y-55627380D01*
X163462142Y-55627380D01*
X163366904Y-55579761D01*
X163319285Y-55532142D01*
X165366904Y-56008333D02*
X165319285Y-55960714D01*
X165224047Y-55817857D01*
X165176428Y-55722619D01*
X165128809Y-55579761D01*
X165081190Y-55341666D01*
X165081190Y-55151190D01*
X165128809Y-54913095D01*
X165176428Y-54770238D01*
X165224047Y-54675000D01*
X165319285Y-54532142D01*
X165366904Y-54484523D01*
X166271666Y-54675000D02*
X166176428Y-54627380D01*
X166033571Y-54627380D01*
X165890714Y-54675000D01*
X165795476Y-54770238D01*
X165747857Y-54865476D01*
X165700238Y-55055952D01*
X165700238Y-55198809D01*
X165747857Y-55389285D01*
X165795476Y-55484523D01*
X165890714Y-55579761D01*
X166033571Y-55627380D01*
X166128809Y-55627380D01*
X166271666Y-55579761D01*
X166319285Y-55532142D01*
X166319285Y-55198809D01*
X166128809Y-55198809D01*
X166747857Y-55627380D02*
X166747857Y-54627380D01*
X167319285Y-55627380D01*
X167319285Y-54627380D01*
X167795476Y-55627380D02*
X167795476Y-54627380D01*
X168033571Y-54627380D01*
X168176428Y-54675000D01*
X168271666Y-54770238D01*
X168319285Y-54865476D01*
X168366904Y-55055952D01*
X168366904Y-55198809D01*
X168319285Y-55389285D01*
X168271666Y-55484523D01*
X168176428Y-55579761D01*
X168033571Y-55627380D01*
X167795476Y-55627380D01*
X168700238Y-56008333D02*
X168747857Y-55960714D01*
X168843095Y-55817857D01*
X168890714Y-55722619D01*
X168938333Y-55579761D01*
X168985952Y-55341666D01*
X168985952Y-55151190D01*
X168938333Y-54913095D01*
X168890714Y-54770238D01*
X168843095Y-54675000D01*
X168747857Y-54532142D01*
X168700238Y-54484523D01*
D11*
X149841666Y-68427380D02*
X150508333Y-68427380D01*
X150079761Y-69427380D01*
X150460714Y-61777380D02*
X149889285Y-61777380D01*
X150175000Y-61777380D02*
X150175000Y-60777380D01*
X150079761Y-60920238D01*
X149984523Y-61015476D01*
X149889285Y-61063095D01*
X157029761Y-68855952D02*
X156934523Y-68808333D01*
X156886904Y-68760714D01*
X156839285Y-68665476D01*
X156839285Y-68617857D01*
X156886904Y-68522619D01*
X156934523Y-68475000D01*
X157029761Y-68427380D01*
X157220238Y-68427380D01*
X157315476Y-68475000D01*
X157363095Y-68522619D01*
X157410714Y-68617857D01*
X157410714Y-68665476D01*
X157363095Y-68760714D01*
X157315476Y-68808333D01*
X157220238Y-68855952D01*
X157029761Y-68855952D01*
X156934523Y-68903571D01*
X156886904Y-68951190D01*
X156839285Y-69046428D01*
X156839285Y-69236904D01*
X156886904Y-69332142D01*
X156934523Y-69379761D01*
X157029761Y-69427380D01*
X157220238Y-69427380D01*
X157315476Y-69379761D01*
X157363095Y-69332142D01*
X157410714Y-69236904D01*
X157410714Y-69046428D01*
X157363095Y-68951190D01*
X157315476Y-68903571D01*
X157220238Y-68855952D01*
X156989285Y-60872619D02*
X157036904Y-60825000D01*
X157132142Y-60777380D01*
X157370238Y-60777380D01*
X157465476Y-60825000D01*
X157513095Y-60872619D01*
X157560714Y-60967857D01*
X157560714Y-61063095D01*
X157513095Y-61205952D01*
X156941666Y-61777380D01*
X157560714Y-61777380D01*
X146705952Y-63475000D02*
X146610714Y-63427380D01*
X146467857Y-63427380D01*
X146325000Y-63475000D01*
X146229761Y-63570238D01*
X146182142Y-63665476D01*
X146134523Y-63855952D01*
X146134523Y-63998809D01*
X146182142Y-64189285D01*
X146229761Y-64284523D01*
X146325000Y-64379761D01*
X146467857Y-64427380D01*
X146563095Y-64427380D01*
X146705952Y-64379761D01*
X146753571Y-64332142D01*
X146753571Y-63998809D01*
X146563095Y-63998809D01*
X147182142Y-64427380D02*
X147182142Y-63427380D01*
X147753571Y-64427380D01*
X147753571Y-63427380D01*
X148229761Y-64427380D02*
X148229761Y-63427380D01*
X148467857Y-63427380D01*
X148610714Y-63475000D01*
X148705952Y-63570238D01*
X148753571Y-63665476D01*
X148801190Y-63855952D01*
X148801190Y-63998809D01*
X148753571Y-64189285D01*
X148705952Y-64284523D01*
X148610714Y-64379761D01*
X148467857Y-64427380D01*
X148229761Y-64427380D01*
X149896428Y-63427380D02*
X150515476Y-63427380D01*
X150182142Y-63808333D01*
X150325000Y-63808333D01*
X150420238Y-63855952D01*
X150467857Y-63903571D01*
X150515476Y-63998809D01*
X150515476Y-64236904D01*
X150467857Y-64332142D01*
X150420238Y-64379761D01*
X150325000Y-64427380D01*
X150039285Y-64427380D01*
X149944047Y-64379761D01*
X149896428Y-64332142D01*
X146705952Y-65975000D02*
X146610714Y-65927380D01*
X146467857Y-65927380D01*
X146325000Y-65975000D01*
X146229761Y-66070238D01*
X146182142Y-66165476D01*
X146134523Y-66355952D01*
X146134523Y-66498809D01*
X146182142Y-66689285D01*
X146229761Y-66784523D01*
X146325000Y-66879761D01*
X146467857Y-66927380D01*
X146563095Y-66927380D01*
X146705952Y-66879761D01*
X146753571Y-66832142D01*
X146753571Y-66498809D01*
X146563095Y-66498809D01*
X147182142Y-66927380D02*
X147182142Y-65927380D01*
X147753571Y-66927380D01*
X147753571Y-65927380D01*
X148229761Y-66927380D02*
X148229761Y-65927380D01*
X148467857Y-65927380D01*
X148610714Y-65975000D01*
X148705952Y-66070238D01*
X148753571Y-66165476D01*
X148801190Y-66355952D01*
X148801190Y-66498809D01*
X148753571Y-66689285D01*
X148705952Y-66784523D01*
X148610714Y-66879761D01*
X148467857Y-66927380D01*
X148229761Y-66927380D01*
X150467857Y-65927380D02*
X149991666Y-65927380D01*
X149944047Y-66403571D01*
X149991666Y-66355952D01*
X150086904Y-66308333D01*
X150325000Y-66308333D01*
X150420238Y-66355952D01*
X150467857Y-66403571D01*
X150515476Y-66498809D01*
X150515476Y-66736904D01*
X150467857Y-66832142D01*
X150420238Y-66879761D01*
X150325000Y-66927380D01*
X150086904Y-66927380D01*
X149991666Y-66879761D01*
X149944047Y-66832142D01*
X157260714Y-65927380D02*
X157070238Y-65927380D01*
X156975000Y-65975000D01*
X156927380Y-66022619D01*
X156832142Y-66165476D01*
X156784523Y-66355952D01*
X156784523Y-66736904D01*
X156832142Y-66832142D01*
X156879761Y-66879761D01*
X156975000Y-66927380D01*
X157165476Y-66927380D01*
X157260714Y-66879761D01*
X157308333Y-66832142D01*
X157355952Y-66736904D01*
X157355952Y-66498809D01*
X157308333Y-66403571D01*
X157260714Y-66355952D01*
X157165476Y-66308333D01*
X156975000Y-66308333D01*
X156879761Y-66355952D01*
X156832142Y-66403571D01*
X156784523Y-66498809D01*
X159070238Y-65975000D02*
X158975000Y-65927380D01*
X158832142Y-65927380D01*
X158689285Y-65975000D01*
X158594047Y-66070238D01*
X158546428Y-66165476D01*
X158498809Y-66355952D01*
X158498809Y-66498809D01*
X158546428Y-66689285D01*
X158594047Y-66784523D01*
X158689285Y-66879761D01*
X158832142Y-66927380D01*
X158927380Y-66927380D01*
X159070238Y-66879761D01*
X159117857Y-66832142D01*
X159117857Y-66498809D01*
X158927380Y-66498809D01*
X159546428Y-66927380D02*
X159546428Y-65927380D01*
X160117857Y-66927380D01*
X160117857Y-65927380D01*
X160594047Y-66927380D02*
X160594047Y-65927380D01*
X160832142Y-65927380D01*
X160975000Y-65975000D01*
X161070238Y-66070238D01*
X161117857Y-66165476D01*
X161165476Y-66355952D01*
X161165476Y-66498809D01*
X161117857Y-66689285D01*
X161070238Y-66784523D01*
X160975000Y-66879761D01*
X160832142Y-66927380D01*
X160594047Y-66927380D01*
X157310714Y-63760714D02*
X157310714Y-64427380D01*
X157072619Y-63379761D02*
X156834523Y-64094047D01*
X157453571Y-64094047D01*
X159120238Y-63475000D02*
X159025000Y-63427380D01*
X158882142Y-63427380D01*
X158739285Y-63475000D01*
X158644047Y-63570238D01*
X158596428Y-63665476D01*
X158548809Y-63855952D01*
X158548809Y-63998809D01*
X158596428Y-64189285D01*
X158644047Y-64284523D01*
X158739285Y-64379761D01*
X158882142Y-64427380D01*
X158977380Y-64427380D01*
X159120238Y-64379761D01*
X159167857Y-64332142D01*
X159167857Y-63998809D01*
X158977380Y-63998809D01*
X159596428Y-64427380D02*
X159596428Y-63427380D01*
X160167857Y-64427380D01*
X160167857Y-63427380D01*
X160644047Y-64427380D02*
X160644047Y-63427380D01*
X160882142Y-63427380D01*
X161025000Y-63475000D01*
X161120238Y-63570238D01*
X161167857Y-63665476D01*
X161215476Y-63855952D01*
X161215476Y-63998809D01*
X161167857Y-64189285D01*
X161120238Y-64284523D01*
X161025000Y-64379761D01*
X160882142Y-64427380D01*
X160644047Y-64427380D01*
D10*
X110495476Y-120291666D02*
X110971666Y-120291666D01*
X110400238Y-120577380D02*
X110733571Y-119577380D01*
X111066904Y-120577380D01*
X111400238Y-120577380D02*
X111400238Y-119910714D01*
X111400238Y-120101190D02*
X111447857Y-120005952D01*
X111495476Y-119958333D01*
X111590714Y-119910714D01*
X111685952Y-119910714D01*
X112447857Y-120577380D02*
X112447857Y-119577380D01*
X112447857Y-120529761D02*
X112352619Y-120577380D01*
X112162142Y-120577380D01*
X112066904Y-120529761D01*
X112019285Y-120482142D01*
X111971666Y-120386904D01*
X111971666Y-120101190D01*
X112019285Y-120005952D01*
X112066904Y-119958333D01*
X112162142Y-119910714D01*
X112352619Y-119910714D01*
X112447857Y-119958333D01*
X113352619Y-119910714D02*
X113352619Y-120577380D01*
X112924047Y-119910714D02*
X112924047Y-120434523D01*
X112971666Y-120529761D01*
X113066904Y-120577380D01*
X113209761Y-120577380D01*
X113305000Y-120529761D01*
X113352619Y-120482142D01*
X113828809Y-120577380D02*
X113828809Y-119910714D01*
X113828809Y-119577380D02*
X113781190Y-119625000D01*
X113828809Y-119672619D01*
X113876428Y-119625000D01*
X113828809Y-119577380D01*
X113828809Y-119672619D01*
X114305000Y-119910714D02*
X114305000Y-120577380D01*
X114305000Y-120005952D02*
X114352619Y-119958333D01*
X114447857Y-119910714D01*
X114590714Y-119910714D01*
X114685952Y-119958333D01*
X114733571Y-120053571D01*
X114733571Y-120577380D01*
X115352619Y-120577380D02*
X115257380Y-120529761D01*
X115209761Y-120482142D01*
X115162142Y-120386904D01*
X115162142Y-120101190D01*
X115209761Y-120005952D01*
X115257380Y-119958333D01*
X115352619Y-119910714D01*
X115495476Y-119910714D01*
X115590714Y-119958333D01*
X115638333Y-120005952D01*
X115685952Y-120101190D01*
X115685952Y-120386904D01*
X115638333Y-120482142D01*
X115590714Y-120529761D01*
X115495476Y-120577380D01*
X115352619Y-120577380D01*
X116876428Y-120577380D02*
X116876428Y-119577380D01*
X117257380Y-119577380D01*
X117352619Y-119625000D01*
X117400238Y-119672619D01*
X117447857Y-119767857D01*
X117447857Y-119910714D01*
X117400238Y-120005952D01*
X117352619Y-120053571D01*
X117257380Y-120101190D01*
X116876428Y-120101190D01*
X118019285Y-120577380D02*
X117924047Y-120529761D01*
X117876428Y-120482142D01*
X117828809Y-120386904D01*
X117828809Y-120101190D01*
X117876428Y-120005952D01*
X117924047Y-119958333D01*
X118019285Y-119910714D01*
X118162142Y-119910714D01*
X118257380Y-119958333D01*
X118305000Y-120005952D01*
X118352619Y-120101190D01*
X118352619Y-120386904D01*
X118305000Y-120482142D01*
X118257380Y-120529761D01*
X118162142Y-120577380D01*
X118019285Y-120577380D01*
X118685952Y-119910714D02*
X118876428Y-120577380D01*
X119066904Y-120101190D01*
X119257380Y-120577380D01*
X119447857Y-119910714D01*
X120209761Y-120529761D02*
X120114523Y-120577380D01*
X119924047Y-120577380D01*
X119828809Y-120529761D01*
X119781190Y-120434523D01*
X119781190Y-120053571D01*
X119828809Y-119958333D01*
X119924047Y-119910714D01*
X120114523Y-119910714D01*
X120209761Y-119958333D01*
X120257380Y-120053571D01*
X120257380Y-120148809D01*
X119781190Y-120244047D01*
X120685952Y-120577380D02*
X120685952Y-119910714D01*
X120685952Y-120101190D02*
X120733571Y-120005952D01*
X120781190Y-119958333D01*
X120876428Y-119910714D01*
X120971666Y-119910714D01*
X121685952Y-120529761D02*
X121590714Y-120577380D01*
X121400238Y-120577380D01*
X121305000Y-120529761D01*
X121257380Y-120434523D01*
X121257380Y-120053571D01*
X121305000Y-119958333D01*
X121400238Y-119910714D01*
X121590714Y-119910714D01*
X121685952Y-119958333D01*
X121733571Y-120053571D01*
X121733571Y-120148809D01*
X121257380Y-120244047D01*
X122590714Y-120577380D02*
X122590714Y-119577380D01*
X122590714Y-120529761D02*
X122495476Y-120577380D01*
X122305000Y-120577380D01*
X122209761Y-120529761D01*
X122162142Y-120482142D01*
X122114523Y-120386904D01*
X122114523Y-120101190D01*
X122162142Y-120005952D01*
X122209761Y-119958333D01*
X122305000Y-119910714D01*
X122495476Y-119910714D01*
X122590714Y-119958333D01*
X124162142Y-120053571D02*
X123828809Y-120053571D01*
X123828809Y-120577380D02*
X123828809Y-119577380D01*
X124305000Y-119577380D01*
X124828809Y-120577380D02*
X124733571Y-120529761D01*
X124685952Y-120434523D01*
X124685952Y-119577380D01*
X125352619Y-120577380D02*
X125257380Y-120529761D01*
X125209761Y-120482142D01*
X125162142Y-120386904D01*
X125162142Y-120101190D01*
X125209761Y-120005952D01*
X125257380Y-119958333D01*
X125352619Y-119910714D01*
X125495476Y-119910714D01*
X125590714Y-119958333D01*
X125638333Y-120005952D01*
X125685952Y-120101190D01*
X125685952Y-120386904D01*
X125638333Y-120482142D01*
X125590714Y-120529761D01*
X125495476Y-120577380D01*
X125352619Y-120577380D01*
X126114523Y-119910714D02*
X126114523Y-120910714D01*
X126114523Y-119958333D02*
X126209761Y-119910714D01*
X126400238Y-119910714D01*
X126495476Y-119958333D01*
X126543095Y-120005952D01*
X126590714Y-120101190D01*
X126590714Y-120386904D01*
X126543095Y-120482142D01*
X126495476Y-120529761D01*
X126400238Y-120577380D01*
X126209761Y-120577380D01*
X126114523Y-120529761D01*
X127019285Y-119910714D02*
X127019285Y-120910714D01*
X127019285Y-119958333D02*
X127114523Y-119910714D01*
X127305000Y-119910714D01*
X127400238Y-119958333D01*
X127447857Y-120005952D01*
X127495476Y-120101190D01*
X127495476Y-120386904D01*
X127447857Y-120482142D01*
X127400238Y-120529761D01*
X127305000Y-120577380D01*
X127114523Y-120577380D01*
X127019285Y-120529761D01*
X127828809Y-119910714D02*
X128066904Y-120577380D01*
X128305000Y-119910714D02*
X128066904Y-120577380D01*
X127971666Y-120815476D01*
X127924047Y-120863095D01*
X127828809Y-120910714D01*
X129447857Y-120577380D02*
X129447857Y-119577380D01*
X129685952Y-119577380D01*
X129828809Y-119625000D01*
X129924047Y-119720238D01*
X129971666Y-119815476D01*
X130019285Y-120005952D01*
X130019285Y-120148809D01*
X129971666Y-120339285D01*
X129924047Y-120434523D01*
X129828809Y-120529761D01*
X129685952Y-120577380D01*
X129447857Y-120577380D01*
X130447857Y-120577380D02*
X130447857Y-119910714D01*
X130447857Y-119577380D02*
X130400238Y-119625000D01*
X130447857Y-119672619D01*
X130495476Y-119625000D01*
X130447857Y-119577380D01*
X130447857Y-119672619D01*
X130876428Y-120529761D02*
X130971666Y-120577380D01*
X131162142Y-120577380D01*
X131257380Y-120529761D01*
X131305000Y-120434523D01*
X131305000Y-120386904D01*
X131257380Y-120291666D01*
X131162142Y-120244047D01*
X131019285Y-120244047D01*
X130924047Y-120196428D01*
X130876428Y-120101190D01*
X130876428Y-120053571D01*
X130924047Y-119958333D01*
X131019285Y-119910714D01*
X131162142Y-119910714D01*
X131257380Y-119958333D01*
X131733571Y-120577380D02*
X131733571Y-119577380D01*
X131828809Y-120196428D02*
X132114523Y-120577380D01*
X132114523Y-119910714D02*
X131733571Y-120291666D01*
X133876428Y-120577380D02*
X133543095Y-120101190D01*
X133305000Y-120577380D02*
X133305000Y-119577380D01*
X133685952Y-119577380D01*
X133781190Y-119625000D01*
X133828809Y-119672619D01*
X133876428Y-119767857D01*
X133876428Y-119910714D01*
X133828809Y-120005952D01*
X133781190Y-120053571D01*
X133685952Y-120101190D01*
X133305000Y-120101190D01*
X134685952Y-120529761D02*
X134590714Y-120577380D01*
X134400238Y-120577380D01*
X134305000Y-120529761D01*
X134257380Y-120434523D01*
X134257380Y-120053571D01*
X134305000Y-119958333D01*
X134400238Y-119910714D01*
X134590714Y-119910714D01*
X134685952Y-119958333D01*
X134733571Y-120053571D01*
X134733571Y-120148809D01*
X134257380Y-120244047D01*
X135590714Y-120577380D02*
X135590714Y-120053571D01*
X135543095Y-119958333D01*
X135447857Y-119910714D01*
X135257380Y-119910714D01*
X135162142Y-119958333D01*
X135590714Y-120529761D02*
X135495476Y-120577380D01*
X135257380Y-120577380D01*
X135162142Y-120529761D01*
X135114523Y-120434523D01*
X135114523Y-120339285D01*
X135162142Y-120244047D01*
X135257380Y-120196428D01*
X135495476Y-120196428D01*
X135590714Y-120148809D01*
X136495476Y-120577380D02*
X136495476Y-119577380D01*
X136495476Y-120529761D02*
X136400238Y-120577380D01*
X136209761Y-120577380D01*
X136114523Y-120529761D01*
X136066904Y-120482142D01*
X136019285Y-120386904D01*
X136019285Y-120101190D01*
X136066904Y-120005952D01*
X136114523Y-119958333D01*
X136209761Y-119910714D01*
X136400238Y-119910714D01*
X136495476Y-119958333D01*
X137352619Y-120529761D02*
X137257380Y-120577380D01*
X137066904Y-120577380D01*
X136971666Y-120529761D01*
X136924047Y-120434523D01*
X136924047Y-120053571D01*
X136971666Y-119958333D01*
X137066904Y-119910714D01*
X137257380Y-119910714D01*
X137352619Y-119958333D01*
X137400238Y-120053571D01*
X137400238Y-120148809D01*
X136924047Y-120244047D01*
X137828809Y-120577380D02*
X137828809Y-119910714D01*
X137828809Y-120101190D02*
X137876428Y-120005952D01*
X137924047Y-119958333D01*
X138019285Y-119910714D01*
X138114523Y-119910714D01*
X139638333Y-120577380D02*
X139638333Y-120053571D01*
X139590714Y-119958333D01*
X139495476Y-119910714D01*
X139305000Y-119910714D01*
X139209761Y-119958333D01*
X139638333Y-120529761D02*
X139543095Y-120577380D01*
X139305000Y-120577380D01*
X139209761Y-120529761D01*
X139162142Y-120434523D01*
X139162142Y-120339285D01*
X139209761Y-120244047D01*
X139305000Y-120196428D01*
X139543095Y-120196428D01*
X139638333Y-120148809D01*
X140114523Y-119910714D02*
X140114523Y-120577380D01*
X140114523Y-120005952D02*
X140162142Y-119958333D01*
X140257380Y-119910714D01*
X140400238Y-119910714D01*
X140495476Y-119958333D01*
X140543095Y-120053571D01*
X140543095Y-120577380D01*
X141447857Y-120577380D02*
X141447857Y-119577380D01*
X141447857Y-120529761D02*
X141352619Y-120577380D01*
X141162142Y-120577380D01*
X141066904Y-120529761D01*
X141019285Y-120482142D01*
X140971666Y-120386904D01*
X140971666Y-120101190D01*
X141019285Y-120005952D01*
X141066904Y-119958333D01*
X141162142Y-119910714D01*
X141352619Y-119910714D01*
X141447857Y-119958333D01*
X142590714Y-119577380D02*
X142828809Y-120577380D01*
X143019285Y-119863095D01*
X143209761Y-120577380D01*
X143447857Y-119577380D01*
X143828809Y-120577380D02*
X143828809Y-119910714D01*
X143828809Y-120101190D02*
X143876428Y-120005952D01*
X143924047Y-119958333D01*
X144019285Y-119910714D01*
X144114523Y-119910714D01*
X144447857Y-120577380D02*
X144447857Y-119910714D01*
X144447857Y-119577380D02*
X144400238Y-119625000D01*
X144447857Y-119672619D01*
X144495476Y-119625000D01*
X144447857Y-119577380D01*
X144447857Y-119672619D01*
X144781190Y-119910714D02*
X145162142Y-119910714D01*
X144924047Y-119577380D02*
X144924047Y-120434523D01*
X144971666Y-120529761D01*
X145066904Y-120577380D01*
X145162142Y-120577380D01*
X145876428Y-120529761D02*
X145781190Y-120577380D01*
X145590714Y-120577380D01*
X145495476Y-120529761D01*
X145447857Y-120434523D01*
X145447857Y-120053571D01*
X145495476Y-119958333D01*
X145590714Y-119910714D01*
X145781190Y-119910714D01*
X145876428Y-119958333D01*
X145924047Y-120053571D01*
X145924047Y-120148809D01*
X145447857Y-120244047D01*
X146352619Y-120577380D02*
X146352619Y-119910714D01*
X146352619Y-120101190D02*
X146400238Y-120005952D01*
X146447857Y-119958333D01*
X146543095Y-119910714D01*
X146638333Y-119910714D01*
X111114523Y-122182142D02*
X111066904Y-122229761D01*
X110924047Y-122277380D01*
X110828809Y-122277380D01*
X110685952Y-122229761D01*
X110590714Y-122134523D01*
X110543095Y-122039285D01*
X110495476Y-121848809D01*
X110495476Y-121705952D01*
X110543095Y-121515476D01*
X110590714Y-121420238D01*
X110685952Y-121325000D01*
X110828809Y-121277380D01*
X110924047Y-121277380D01*
X111066904Y-121325000D01*
X111114523Y-121372619D01*
X111543095Y-122277380D02*
X111543095Y-121610714D01*
X111543095Y-121801190D02*
X111590714Y-121705952D01*
X111638333Y-121658333D01*
X111733571Y-121610714D01*
X111828809Y-121610714D01*
X112543095Y-122229761D02*
X112447857Y-122277380D01*
X112257380Y-122277380D01*
X112162142Y-122229761D01*
X112114523Y-122134523D01*
X112114523Y-121753571D01*
X112162142Y-121658333D01*
X112257380Y-121610714D01*
X112447857Y-121610714D01*
X112543095Y-121658333D01*
X112590714Y-121753571D01*
X112590714Y-121848809D01*
X112114523Y-121944047D01*
X113447857Y-122277380D02*
X113447857Y-121753571D01*
X113400238Y-121658333D01*
X113305000Y-121610714D01*
X113114523Y-121610714D01*
X113019285Y-121658333D01*
X113447857Y-122229761D02*
X113352619Y-122277380D01*
X113114523Y-122277380D01*
X113019285Y-122229761D01*
X112971666Y-122134523D01*
X112971666Y-122039285D01*
X113019285Y-121944047D01*
X113114523Y-121896428D01*
X113352619Y-121896428D01*
X113447857Y-121848809D01*
X113781190Y-121610714D02*
X114162142Y-121610714D01*
X113924047Y-121277380D02*
X113924047Y-122134523D01*
X113971666Y-122229761D01*
X114066904Y-122277380D01*
X114162142Y-122277380D01*
X114876428Y-122229761D02*
X114781190Y-122277380D01*
X114590714Y-122277380D01*
X114495476Y-122229761D01*
X114447857Y-122134523D01*
X114447857Y-121753571D01*
X114495476Y-121658333D01*
X114590714Y-121610714D01*
X114781190Y-121610714D01*
X114876428Y-121658333D01*
X114924047Y-121753571D01*
X114924047Y-121848809D01*
X114447857Y-121944047D01*
X115781190Y-122277380D02*
X115781190Y-121277380D01*
X115781190Y-122229761D02*
X115685952Y-122277380D01*
X115495476Y-122277380D01*
X115400238Y-122229761D01*
X115352619Y-122182142D01*
X115305000Y-122086904D01*
X115305000Y-121801190D01*
X115352619Y-121705952D01*
X115400238Y-121658333D01*
X115495476Y-121610714D01*
X115685952Y-121610714D01*
X115781190Y-121658333D01*
X117019285Y-122277380D02*
X117019285Y-121277380D01*
X117019285Y-121658333D02*
X117114523Y-121610714D01*
X117305000Y-121610714D01*
X117400238Y-121658333D01*
X117447857Y-121705952D01*
X117495476Y-121801190D01*
X117495476Y-122086904D01*
X117447857Y-122182142D01*
X117400238Y-122229761D01*
X117305000Y-122277380D01*
X117114523Y-122277380D01*
X117019285Y-122229761D01*
X117828809Y-121610714D02*
X118066904Y-122277380D01*
X118305000Y-121610714D02*
X118066904Y-122277380D01*
X117971666Y-122515476D01*
X117924047Y-122563095D01*
X117828809Y-122610714D01*
X120019285Y-122277380D02*
X119685952Y-121801190D01*
X119447857Y-122277380D02*
X119447857Y-121277380D01*
X119828809Y-121277380D01*
X119924047Y-121325000D01*
X119971666Y-121372619D01*
X120019285Y-121467857D01*
X120019285Y-121610714D01*
X119971666Y-121705952D01*
X119924047Y-121753571D01*
X119828809Y-121801190D01*
X119447857Y-121801190D01*
X120590714Y-122277380D02*
X120495476Y-122229761D01*
X120447857Y-122182142D01*
X120400238Y-122086904D01*
X120400238Y-121801190D01*
X120447857Y-121705952D01*
X120495476Y-121658333D01*
X120590714Y-121610714D01*
X120733571Y-121610714D01*
X120828809Y-121658333D01*
X120876428Y-121705952D01*
X120924047Y-121801190D01*
X120924047Y-122086904D01*
X120876428Y-122182142D01*
X120828809Y-122229761D01*
X120733571Y-122277380D01*
X120590714Y-122277380D01*
X121352619Y-122277380D02*
X121352619Y-121277380D01*
X121352619Y-121658333D02*
X121447857Y-121610714D01*
X121638333Y-121610714D01*
X121733571Y-121658333D01*
X121781190Y-121705952D01*
X121828809Y-121801190D01*
X121828809Y-122086904D01*
X121781190Y-122182142D01*
X121733571Y-122229761D01*
X121638333Y-122277380D01*
X121447857Y-122277380D01*
X121352619Y-122229761D01*
X122638333Y-122229761D02*
X122543095Y-122277380D01*
X122352619Y-122277380D01*
X122257380Y-122229761D01*
X122209761Y-122134523D01*
X122209761Y-121753571D01*
X122257380Y-121658333D01*
X122352619Y-121610714D01*
X122543095Y-121610714D01*
X122638333Y-121658333D01*
X122685952Y-121753571D01*
X122685952Y-121848809D01*
X122209761Y-121944047D01*
X123114523Y-122277380D02*
X123114523Y-121610714D01*
X123114523Y-121801190D02*
X123162142Y-121705952D01*
X123209761Y-121658333D01*
X123305000Y-121610714D01*
X123400238Y-121610714D01*
X123590714Y-121610714D02*
X123971666Y-121610714D01*
X123733571Y-121277380D02*
X123733571Y-122134523D01*
X123781190Y-122229761D01*
X123876428Y-122277380D01*
X123971666Y-122277380D01*
X125019285Y-122229761D02*
X125162142Y-122277380D01*
X125400238Y-122277380D01*
X125495476Y-122229761D01*
X125543095Y-122182142D01*
X125590714Y-122086904D01*
X125590714Y-121991666D01*
X125543095Y-121896428D01*
X125495476Y-121848809D01*
X125400238Y-121801190D01*
X125209761Y-121753571D01*
X125114523Y-121705952D01*
X125066904Y-121658333D01*
X125019285Y-121563095D01*
X125019285Y-121467857D01*
X125066904Y-121372619D01*
X125114523Y-121325000D01*
X125209761Y-121277380D01*
X125447857Y-121277380D01*
X125590714Y-121325000D01*
X126019285Y-122277380D02*
X126019285Y-121610714D01*
X126019285Y-121705952D02*
X126066904Y-121658333D01*
X126162142Y-121610714D01*
X126305000Y-121610714D01*
X126400238Y-121658333D01*
X126447857Y-121753571D01*
X126447857Y-122277380D01*
X126447857Y-121753571D02*
X126495476Y-121658333D01*
X126590714Y-121610714D01*
X126733571Y-121610714D01*
X126828809Y-121658333D01*
X126876428Y-121753571D01*
X126876428Y-122277380D01*
X127352619Y-122277380D02*
X127352619Y-121610714D01*
X127352619Y-121277380D02*
X127305000Y-121325000D01*
X127352619Y-121372619D01*
X127400238Y-121325000D01*
X127352619Y-121277380D01*
X127352619Y-121372619D01*
X127685952Y-121610714D02*
X128066904Y-121610714D01*
X127828809Y-121277380D02*
X127828809Y-122134523D01*
X127876428Y-122229761D01*
X127971666Y-122277380D01*
X128066904Y-122277380D01*
X128400238Y-122277380D02*
X128400238Y-121277380D01*
X128828809Y-122277380D02*
X128828809Y-121753571D01*
X128781190Y-121658333D01*
X128685952Y-121610714D01*
X128543095Y-121610714D01*
X128447857Y-121658333D01*
X128400238Y-121705952D01*
X111162142Y-123501190D02*
X111114523Y-123453571D01*
X111019285Y-123405952D01*
X110924047Y-123405952D01*
X110828809Y-123453571D01*
X110781190Y-123501190D01*
X110733571Y-123596428D01*
X110733571Y-123691666D01*
X110781190Y-123786904D01*
X110828809Y-123834523D01*
X110924047Y-123882142D01*
X111019285Y-123882142D01*
X111114523Y-123834523D01*
X111162142Y-123786904D01*
X111162142Y-123405952D02*
X111162142Y-123786904D01*
X111209761Y-123834523D01*
X111257380Y-123834523D01*
X111352619Y-123786904D01*
X111400238Y-123691666D01*
X111400238Y-123453571D01*
X111305000Y-123310714D01*
X111162142Y-123215476D01*
X110971666Y-123167857D01*
X110781190Y-123215476D01*
X110638333Y-123310714D01*
X110543095Y-123453571D01*
X110495476Y-123644047D01*
X110543095Y-123834523D01*
X110638333Y-123977380D01*
X110781190Y-124072619D01*
X110971666Y-124120238D01*
X111162142Y-124072619D01*
X111305000Y-123977380D01*
X112400238Y-123977380D02*
X112066904Y-123501190D01*
X111828809Y-123977380D02*
X111828809Y-122977380D01*
X112209761Y-122977380D01*
X112305000Y-123025000D01*
X112352619Y-123072619D01*
X112400238Y-123167857D01*
X112400238Y-123310714D01*
X112352619Y-123405952D01*
X112305000Y-123453571D01*
X112209761Y-123501190D01*
X111828809Y-123501190D01*
X112971666Y-123977380D02*
X112876428Y-123929761D01*
X112828809Y-123882142D01*
X112781190Y-123786904D01*
X112781190Y-123501190D01*
X112828809Y-123405952D01*
X112876428Y-123358333D01*
X112971666Y-123310714D01*
X113114523Y-123310714D01*
X113209761Y-123358333D01*
X113257380Y-123405952D01*
X113305000Y-123501190D01*
X113305000Y-123786904D01*
X113257380Y-123882142D01*
X113209761Y-123929761D01*
X113114523Y-123977380D01*
X112971666Y-123977380D01*
X113733571Y-123977380D02*
X113733571Y-122977380D01*
X113733571Y-123358333D02*
X113828809Y-123310714D01*
X114019285Y-123310714D01*
X114114523Y-123358333D01*
X114162142Y-123405952D01*
X114209761Y-123501190D01*
X114209761Y-123786904D01*
X114162142Y-123882142D01*
X114114523Y-123929761D01*
X114019285Y-123977380D01*
X113828809Y-123977380D01*
X113733571Y-123929761D01*
X114590714Y-123929761D02*
X114733571Y-123977380D01*
X114971666Y-123977380D01*
X115066904Y-123929761D01*
X115114523Y-123882142D01*
X115162142Y-123786904D01*
X115162142Y-123691666D01*
X115114523Y-123596428D01*
X115066904Y-123548809D01*
X114971666Y-123501190D01*
X114781190Y-123453571D01*
X114685952Y-123405952D01*
X114638333Y-123358333D01*
X114590714Y-123263095D01*
X114590714Y-123167857D01*
X114638333Y-123072619D01*
X114685952Y-123025000D01*
X114781190Y-122977380D01*
X115019285Y-122977380D01*
X115162142Y-123025000D01*
X115590714Y-123977380D02*
X115590714Y-123310714D01*
X115590714Y-123405952D02*
X115638333Y-123358333D01*
X115733571Y-123310714D01*
X115876428Y-123310714D01*
X115971666Y-123358333D01*
X116019285Y-123453571D01*
X116019285Y-123977380D01*
X116019285Y-123453571D02*
X116066904Y-123358333D01*
X116162142Y-123310714D01*
X116305000Y-123310714D01*
X116400238Y-123358333D01*
X116447857Y-123453571D01*
X116447857Y-123977380D01*
X116924047Y-123977380D02*
X116924047Y-123310714D01*
X116924047Y-122977380D02*
X116876428Y-123025000D01*
X116924047Y-123072619D01*
X116971666Y-123025000D01*
X116924047Y-122977380D01*
X116924047Y-123072619D01*
X117257380Y-123310714D02*
X117638333Y-123310714D01*
X117400238Y-122977380D02*
X117400238Y-123834523D01*
X117447857Y-123929761D01*
X117543095Y-123977380D01*
X117638333Y-123977380D01*
X117971666Y-123977380D02*
X117971666Y-122977380D01*
X118400238Y-123977380D02*
X118400238Y-123453571D01*
X118352619Y-123358333D01*
X118257380Y-123310714D01*
X118114523Y-123310714D01*
X118019285Y-123358333D01*
X117971666Y-123405952D01*
X118876428Y-123977380D02*
X118876428Y-122977380D01*
X119114523Y-122977380D01*
X119257380Y-123025000D01*
X119352619Y-123120238D01*
X119400238Y-123215476D01*
X119447857Y-123405952D01*
X119447857Y-123548809D01*
X119400238Y-123739285D01*
X119352619Y-123834523D01*
X119257380Y-123929761D01*
X119114523Y-123977380D01*
X118876428Y-123977380D01*
X120257380Y-123929761D02*
X120162142Y-123977380D01*
X119971666Y-123977380D01*
X119876428Y-123929761D01*
X119828809Y-123834523D01*
X119828809Y-123453571D01*
X119876428Y-123358333D01*
X119971666Y-123310714D01*
X120162142Y-123310714D01*
X120257380Y-123358333D01*
X120305000Y-123453571D01*
X120305000Y-123548809D01*
X119828809Y-123644047D01*
X120638333Y-123310714D02*
X120876428Y-123977380D01*
X121114523Y-123310714D01*
X122257380Y-123977380D02*
X122257380Y-122977380D01*
X122685952Y-123977380D02*
X122685952Y-123453571D01*
X122638333Y-123358333D01*
X122543095Y-123310714D01*
X122400238Y-123310714D01*
X122305000Y-123358333D01*
X122257380Y-123405952D01*
X123019285Y-123310714D02*
X123400238Y-123310714D01*
X123162142Y-122977380D02*
X123162142Y-123834523D01*
X123209761Y-123929761D01*
X123305000Y-123977380D01*
X123400238Y-123977380D01*
X123590714Y-123310714D02*
X123971666Y-123310714D01*
X123733571Y-122977380D02*
X123733571Y-123834523D01*
X123781190Y-123929761D01*
X123876428Y-123977380D01*
X123971666Y-123977380D01*
X124305000Y-123310714D02*
X124305000Y-124310714D01*
X124305000Y-123358333D02*
X124400238Y-123310714D01*
X124590714Y-123310714D01*
X124685952Y-123358333D01*
X124733571Y-123405952D01*
X124781190Y-123501190D01*
X124781190Y-123786904D01*
X124733571Y-123882142D01*
X124685952Y-123929761D01*
X124590714Y-123977380D01*
X124400238Y-123977380D01*
X124305000Y-123929761D01*
X125162142Y-123929761D02*
X125257380Y-123977380D01*
X125447857Y-123977380D01*
X125543095Y-123929761D01*
X125590714Y-123834523D01*
X125590714Y-123786904D01*
X125543095Y-123691666D01*
X125447857Y-123644047D01*
X125305000Y-123644047D01*
X125209761Y-123596428D01*
X125162142Y-123501190D01*
X125162142Y-123453571D01*
X125209761Y-123358333D01*
X125305000Y-123310714D01*
X125447857Y-123310714D01*
X125543095Y-123358333D01*
X126019285Y-123882142D02*
X126066904Y-123929761D01*
X126019285Y-123977380D01*
X125971666Y-123929761D01*
X126019285Y-123882142D01*
X126019285Y-123977380D01*
X126019285Y-123358333D02*
X126066904Y-123405952D01*
X126019285Y-123453571D01*
X125971666Y-123405952D01*
X126019285Y-123358333D01*
X126019285Y-123453571D01*
X127209761Y-122929761D02*
X126352619Y-124215476D01*
X128257380Y-122929761D02*
X127400238Y-124215476D01*
X129019285Y-123977380D02*
X129019285Y-123453571D01*
X128971666Y-123358333D01*
X128876428Y-123310714D01*
X128685952Y-123310714D01*
X128590714Y-123358333D01*
X129019285Y-123929761D02*
X128924047Y-123977380D01*
X128685952Y-123977380D01*
X128590714Y-123929761D01*
X128543095Y-123834523D01*
X128543095Y-123739285D01*
X128590714Y-123644047D01*
X128685952Y-123596428D01*
X128924047Y-123596428D01*
X129019285Y-123548809D01*
X129495476Y-123977380D02*
X129495476Y-123310714D01*
X129495476Y-123405952D02*
X129543095Y-123358333D01*
X129638333Y-123310714D01*
X129781190Y-123310714D01*
X129876428Y-123358333D01*
X129924047Y-123453571D01*
X129924047Y-123977380D01*
X129924047Y-123453571D02*
X129971666Y-123358333D01*
X130066904Y-123310714D01*
X130209761Y-123310714D01*
X130305000Y-123358333D01*
X130352619Y-123453571D01*
X130352619Y-123977380D01*
X130828809Y-123977380D02*
X130828809Y-123310714D01*
X130828809Y-122977380D02*
X130781190Y-123025000D01*
X130828809Y-123072619D01*
X130876428Y-123025000D01*
X130828809Y-122977380D01*
X130828809Y-123072619D01*
X131733571Y-123310714D02*
X131733571Y-124120238D01*
X131685952Y-124215476D01*
X131638333Y-124263095D01*
X131543095Y-124310714D01*
X131400238Y-124310714D01*
X131305000Y-124263095D01*
X131733571Y-123929761D02*
X131638333Y-123977380D01*
X131447857Y-123977380D01*
X131352619Y-123929761D01*
X131305000Y-123882142D01*
X131257380Y-123786904D01*
X131257380Y-123501190D01*
X131305000Y-123405952D01*
X131352619Y-123358333D01*
X131447857Y-123310714D01*
X131638333Y-123310714D01*
X131733571Y-123358333D01*
X132638333Y-123977380D02*
X132638333Y-123453571D01*
X132590714Y-123358333D01*
X132495476Y-123310714D01*
X132305000Y-123310714D01*
X132209761Y-123358333D01*
X132638333Y-123929761D02*
X132543095Y-123977380D01*
X132305000Y-123977380D01*
X132209761Y-123929761D01*
X132162142Y-123834523D01*
X132162142Y-123739285D01*
X132209761Y-123644047D01*
X132305000Y-123596428D01*
X132543095Y-123596428D01*
X132638333Y-123548809D01*
X133114523Y-123882142D02*
X133162142Y-123929761D01*
X133114523Y-123977380D01*
X133066904Y-123929761D01*
X133114523Y-123882142D01*
X133114523Y-123977380D01*
X133590714Y-123977380D02*
X133590714Y-123310714D01*
X133590714Y-123501190D02*
X133638333Y-123405952D01*
X133685952Y-123358333D01*
X133781190Y-123310714D01*
X133876428Y-123310714D01*
X134352619Y-123977380D02*
X134257380Y-123929761D01*
X134209761Y-123882142D01*
X134162142Y-123786904D01*
X134162142Y-123501190D01*
X134209761Y-123405952D01*
X134257380Y-123358333D01*
X134352619Y-123310714D01*
X134495476Y-123310714D01*
X134590714Y-123358333D01*
X134638333Y-123405952D01*
X134685952Y-123501190D01*
X134685952Y-123786904D01*
X134638333Y-123882142D01*
X134590714Y-123929761D01*
X134495476Y-123977380D01*
X134352619Y-123977380D01*
X135114523Y-123977380D02*
X135114523Y-122977380D01*
X135114523Y-123358333D02*
X135209761Y-123310714D01*
X135400238Y-123310714D01*
X135495476Y-123358333D01*
X135543095Y-123405952D01*
X135590714Y-123501190D01*
X135590714Y-123786904D01*
X135543095Y-123882142D01*
X135495476Y-123929761D01*
X135400238Y-123977380D01*
X135209761Y-123977380D01*
X135114523Y-123929761D01*
X135971666Y-123929761D02*
X136066904Y-123977380D01*
X136257380Y-123977380D01*
X136352619Y-123929761D01*
X136400238Y-123834523D01*
X136400238Y-123786904D01*
X136352619Y-123691666D01*
X136257380Y-123644047D01*
X136114523Y-123644047D01*
X136019285Y-123596428D01*
X135971666Y-123501190D01*
X135971666Y-123453571D01*
X136019285Y-123358333D01*
X136114523Y-123310714D01*
X136257380Y-123310714D01*
X136352619Y-123358333D01*
X136828809Y-123977380D02*
X136828809Y-123310714D01*
X136828809Y-123405952D02*
X136876428Y-123358333D01*
X136971666Y-123310714D01*
X137114523Y-123310714D01*
X137209761Y-123358333D01*
X137257380Y-123453571D01*
X137257380Y-123977380D01*
X137257380Y-123453571D02*
X137305000Y-123358333D01*
X137400238Y-123310714D01*
X137543095Y-123310714D01*
X137638333Y-123358333D01*
X137685952Y-123453571D01*
X137685952Y-123977380D01*
X138162142Y-123977380D02*
X138162142Y-123310714D01*
X138162142Y-122977380D02*
X138114523Y-123025000D01*
X138162142Y-123072619D01*
X138209761Y-123025000D01*
X138162142Y-122977380D01*
X138162142Y-123072619D01*
X138495476Y-123310714D02*
X138876428Y-123310714D01*
X138638333Y-122977380D02*
X138638333Y-123834523D01*
X138685952Y-123929761D01*
X138781190Y-123977380D01*
X138876428Y-123977380D01*
X139209761Y-123977380D02*
X139209761Y-122977380D01*
X139638333Y-123977380D02*
X139638333Y-123453571D01*
X139590714Y-123358333D01*
X139495476Y-123310714D01*
X139352619Y-123310714D01*
X139257380Y-123358333D01*
X139209761Y-123405952D01*
X140543095Y-123977380D02*
X140543095Y-122977380D01*
X140543095Y-123929761D02*
X140447857Y-123977380D01*
X140257380Y-123977380D01*
X140162142Y-123929761D01*
X140114523Y-123882142D01*
X140066904Y-123786904D01*
X140066904Y-123501190D01*
X140114523Y-123405952D01*
X140162142Y-123358333D01*
X140257380Y-123310714D01*
X140447857Y-123310714D01*
X140543095Y-123358333D01*
X141400238Y-123929761D02*
X141305000Y-123977380D01*
X141114523Y-123977380D01*
X141019285Y-123929761D01*
X140971666Y-123834523D01*
X140971666Y-123453571D01*
X141019285Y-123358333D01*
X141114523Y-123310714D01*
X141305000Y-123310714D01*
X141400238Y-123358333D01*
X141447857Y-123453571D01*
X141447857Y-123548809D01*
X140971666Y-123644047D01*
X141781190Y-123310714D02*
X142019285Y-123977380D01*
X142257380Y-123310714D01*
X142638333Y-123882142D02*
X142685952Y-123929761D01*
X142638333Y-123977380D01*
X142590714Y-123929761D01*
X142638333Y-123882142D01*
X142638333Y-123977380D01*
X143543095Y-123929761D02*
X143447857Y-123977380D01*
X143257380Y-123977380D01*
X143162142Y-123929761D01*
X143114523Y-123882142D01*
X143066904Y-123786904D01*
X143066904Y-123501190D01*
X143114523Y-123405952D01*
X143162142Y-123358333D01*
X143257380Y-123310714D01*
X143447857Y-123310714D01*
X143543095Y-123358333D01*
X144114523Y-123977380D02*
X144019285Y-123929761D01*
X143971666Y-123882142D01*
X143924047Y-123786904D01*
X143924047Y-123501190D01*
X143971666Y-123405952D01*
X144019285Y-123358333D01*
X144114523Y-123310714D01*
X144257380Y-123310714D01*
X144352619Y-123358333D01*
X144400238Y-123405952D01*
X144447857Y-123501190D01*
X144447857Y-123786904D01*
X144400238Y-123882142D01*
X144352619Y-123929761D01*
X144257380Y-123977380D01*
X144114523Y-123977380D01*
X144876428Y-123882142D02*
X144924047Y-123929761D01*
X144876428Y-123977380D01*
X144828809Y-123929761D01*
X144876428Y-123882142D01*
X144876428Y-123977380D01*
X145781190Y-123310714D02*
X145781190Y-123977380D01*
X145352619Y-123310714D02*
X145352619Y-123834523D01*
X145400238Y-123929761D01*
X145495476Y-123977380D01*
X145638333Y-123977380D01*
X145733571Y-123929761D01*
X145781190Y-123882142D01*
X146257380Y-123977380D02*
X146257380Y-122977380D01*
X146352619Y-123596428D02*
X146638333Y-123977380D01*
X146638333Y-123310714D02*
X146257380Y-123691666D01*
X110400238Y-126377380D02*
X110971666Y-126377380D01*
X110685952Y-127377380D02*
X110685952Y-126377380D01*
X111305000Y-127377380D02*
X111305000Y-126377380D01*
X111733571Y-127377380D02*
X111733571Y-126853571D01*
X111685952Y-126758333D01*
X111590714Y-126710714D01*
X111447857Y-126710714D01*
X111352619Y-126758333D01*
X111305000Y-126805952D01*
X112209761Y-127377380D02*
X112209761Y-126710714D01*
X112209761Y-126377380D02*
X112162142Y-126425000D01*
X112209761Y-126472619D01*
X112257380Y-126425000D01*
X112209761Y-126377380D01*
X112209761Y-126472619D01*
X112638333Y-127329761D02*
X112733571Y-127377380D01*
X112924047Y-127377380D01*
X113019285Y-127329761D01*
X113066904Y-127234523D01*
X113066904Y-127186904D01*
X113019285Y-127091666D01*
X112924047Y-127044047D01*
X112781190Y-127044047D01*
X112685952Y-126996428D01*
X112638333Y-126901190D01*
X112638333Y-126853571D01*
X112685952Y-126758333D01*
X112781190Y-126710714D01*
X112924047Y-126710714D01*
X113019285Y-126758333D01*
X114257380Y-127377380D02*
X114257380Y-126377380D01*
X114638333Y-126377380D01*
X114733571Y-126425000D01*
X114781190Y-126472619D01*
X114828809Y-126567857D01*
X114828809Y-126710714D01*
X114781190Y-126805952D01*
X114733571Y-126853571D01*
X114638333Y-126901190D01*
X114257380Y-126901190D01*
X115828809Y-127282142D02*
X115781190Y-127329761D01*
X115638333Y-127377380D01*
X115543095Y-127377380D01*
X115400238Y-127329761D01*
X115305000Y-127234523D01*
X115257380Y-127139285D01*
X115209761Y-126948809D01*
X115209761Y-126805952D01*
X115257380Y-126615476D01*
X115305000Y-126520238D01*
X115400238Y-126425000D01*
X115543095Y-126377380D01*
X115638333Y-126377380D01*
X115781190Y-126425000D01*
X115828809Y-126472619D01*
X116590714Y-126853571D02*
X116733571Y-126901190D01*
X116781190Y-126948809D01*
X116828809Y-127044047D01*
X116828809Y-127186904D01*
X116781190Y-127282142D01*
X116733571Y-127329761D01*
X116638333Y-127377380D01*
X116257380Y-127377380D01*
X116257380Y-126377380D01*
X116590714Y-126377380D01*
X116685952Y-126425000D01*
X116733571Y-126472619D01*
X116781190Y-126567857D01*
X116781190Y-126663095D01*
X116733571Y-126758333D01*
X116685952Y-126805952D01*
X116590714Y-126853571D01*
X116257380Y-126853571D01*
X118447857Y-127329761D02*
X118352619Y-127377380D01*
X118162142Y-127377380D01*
X118066904Y-127329761D01*
X118019285Y-127282142D01*
X117971666Y-127186904D01*
X117971666Y-126901190D01*
X118019285Y-126805952D01*
X118066904Y-126758333D01*
X118162142Y-126710714D01*
X118352619Y-126710714D01*
X118447857Y-126758333D01*
X118876428Y-127377380D02*
X118876428Y-126710714D01*
X118876428Y-126901190D02*
X118924047Y-126805952D01*
X118971666Y-126758333D01*
X119066904Y-126710714D01*
X119162142Y-126710714D01*
X119876428Y-127329761D02*
X119781190Y-127377380D01*
X119590714Y-127377380D01*
X119495476Y-127329761D01*
X119447857Y-127234523D01*
X119447857Y-126853571D01*
X119495476Y-126758333D01*
X119590714Y-126710714D01*
X119781190Y-126710714D01*
X119876428Y-126758333D01*
X119924047Y-126853571D01*
X119924047Y-126948809D01*
X119447857Y-127044047D01*
X120781190Y-127377380D02*
X120781190Y-126853571D01*
X120733571Y-126758333D01*
X120638333Y-126710714D01*
X120447857Y-126710714D01*
X120352619Y-126758333D01*
X120781190Y-127329761D02*
X120685952Y-127377380D01*
X120447857Y-127377380D01*
X120352619Y-127329761D01*
X120305000Y-127234523D01*
X120305000Y-127139285D01*
X120352619Y-127044047D01*
X120447857Y-126996428D01*
X120685952Y-126996428D01*
X120781190Y-126948809D01*
X121114523Y-126710714D02*
X121495476Y-126710714D01*
X121257380Y-126377380D02*
X121257380Y-127234523D01*
X121305000Y-127329761D01*
X121400238Y-127377380D01*
X121495476Y-127377380D01*
X122209761Y-127329761D02*
X122114523Y-127377380D01*
X121924047Y-127377380D01*
X121828809Y-127329761D01*
X121781190Y-127234523D01*
X121781190Y-126853571D01*
X121828809Y-126758333D01*
X121924047Y-126710714D01*
X122114523Y-126710714D01*
X122209761Y-126758333D01*
X122257380Y-126853571D01*
X122257380Y-126948809D01*
X121781190Y-127044047D01*
X123114523Y-127377380D02*
X123114523Y-126377380D01*
X123114523Y-127329761D02*
X123019285Y-127377380D01*
X122828809Y-127377380D01*
X122733571Y-127329761D01*
X122685952Y-127282142D01*
X122638333Y-127186904D01*
X122638333Y-126901190D01*
X122685952Y-126805952D01*
X122733571Y-126758333D01*
X122828809Y-126710714D01*
X123019285Y-126710714D01*
X123114523Y-126758333D01*
X124352619Y-127377380D02*
X124352619Y-126377380D01*
X124352619Y-126758333D02*
X124447857Y-126710714D01*
X124638333Y-126710714D01*
X124733571Y-126758333D01*
X124781190Y-126805952D01*
X124828809Y-126901190D01*
X124828809Y-127186904D01*
X124781190Y-127282142D01*
X124733571Y-127329761D01*
X124638333Y-127377380D01*
X124447857Y-127377380D01*
X124352619Y-127329761D01*
X125162142Y-126710714D02*
X125400238Y-127377380D01*
X125638333Y-126710714D02*
X125400238Y-127377380D01*
X125305000Y-127615476D01*
X125257380Y-127663095D01*
X125162142Y-127710714D01*
X126781190Y-127377380D02*
X126781190Y-126377380D01*
X127019285Y-126377380D01*
X127162142Y-126425000D01*
X127257380Y-126520238D01*
X127305000Y-126615476D01*
X127352619Y-126805952D01*
X127352619Y-126948809D01*
X127305000Y-127139285D01*
X127257380Y-127234523D01*
X127162142Y-127329761D01*
X127019285Y-127377380D01*
X126781190Y-127377380D01*
X128209761Y-127377380D02*
X128209761Y-126853571D01*
X128162142Y-126758333D01*
X128066904Y-126710714D01*
X127876428Y-126710714D01*
X127781190Y-126758333D01*
X128209761Y-127329761D02*
X128114523Y-127377380D01*
X127876428Y-127377380D01*
X127781190Y-127329761D01*
X127733571Y-127234523D01*
X127733571Y-127139285D01*
X127781190Y-127044047D01*
X127876428Y-126996428D01*
X128114523Y-126996428D01*
X128209761Y-126948809D01*
X128685952Y-126710714D02*
X128685952Y-127377380D01*
X128685952Y-126805952D02*
X128733571Y-126758333D01*
X128828809Y-126710714D01*
X128971666Y-126710714D01*
X129066904Y-126758333D01*
X129114523Y-126853571D01*
X129114523Y-127377380D01*
X129590714Y-127377380D02*
X129590714Y-126710714D01*
X129590714Y-126377380D02*
X129543095Y-126425000D01*
X129590714Y-126472619D01*
X129638333Y-126425000D01*
X129590714Y-126377380D01*
X129590714Y-126472619D01*
X130447857Y-127329761D02*
X130352619Y-127377380D01*
X130162142Y-127377380D01*
X130066904Y-127329761D01*
X130019285Y-127234523D01*
X130019285Y-126853571D01*
X130066904Y-126758333D01*
X130162142Y-126710714D01*
X130352619Y-126710714D01*
X130447857Y-126758333D01*
X130495476Y-126853571D01*
X130495476Y-126948809D01*
X130019285Y-127044047D01*
X131066904Y-127377380D02*
X130971666Y-127329761D01*
X130924047Y-127234523D01*
X130924047Y-126377380D01*
X132066904Y-126377380D02*
X132400238Y-127377380D01*
X132733571Y-126377380D01*
X133495476Y-127377380D02*
X133495476Y-126853571D01*
X133447857Y-126758333D01*
X133352619Y-126710714D01*
X133162142Y-126710714D01*
X133066904Y-126758333D01*
X133495476Y-127329761D02*
X133400238Y-127377380D01*
X133162142Y-127377380D01*
X133066904Y-127329761D01*
X133019285Y-127234523D01*
X133019285Y-127139285D01*
X133066904Y-127044047D01*
X133162142Y-126996428D01*
X133400238Y-126996428D01*
X133495476Y-126948809D01*
X133971666Y-127377380D02*
X133971666Y-126710714D01*
X133971666Y-126901190D02*
X134019285Y-126805952D01*
X134066904Y-126758333D01*
X134162142Y-126710714D01*
X134257380Y-126710714D01*
X135019285Y-126710714D02*
X135019285Y-127520238D01*
X134971666Y-127615476D01*
X134924047Y-127663095D01*
X134828809Y-127710714D01*
X134685952Y-127710714D01*
X134590714Y-127663095D01*
X135019285Y-127329761D02*
X134924047Y-127377380D01*
X134733571Y-127377380D01*
X134638333Y-127329761D01*
X134590714Y-127282142D01*
X134543095Y-127186904D01*
X134543095Y-126901190D01*
X134590714Y-126805952D01*
X134638333Y-126758333D01*
X134733571Y-126710714D01*
X134924047Y-126710714D01*
X135019285Y-126758333D01*
X135924047Y-127377380D02*
X135924047Y-126853571D01*
X135876428Y-126758333D01*
X135781190Y-126710714D01*
X135590714Y-126710714D01*
X135495476Y-126758333D01*
X135924047Y-127329761D02*
X135828809Y-127377380D01*
X135590714Y-127377380D01*
X135495476Y-127329761D01*
X135447857Y-127234523D01*
X135447857Y-127139285D01*
X135495476Y-127044047D01*
X135590714Y-126996428D01*
X135828809Y-126996428D01*
X135924047Y-126948809D01*
X110495476Y-128172619D02*
X110543095Y-128125000D01*
X110638333Y-128077380D01*
X110876428Y-128077380D01*
X110971666Y-128125000D01*
X111019285Y-128172619D01*
X111066904Y-128267857D01*
X111066904Y-128363095D01*
X111019285Y-128505952D01*
X110447857Y-129077380D01*
X111066904Y-129077380D01*
X111685952Y-128077380D02*
X111781190Y-128077380D01*
X111876428Y-128125000D01*
X111924047Y-128172619D01*
X111971666Y-128267857D01*
X112019285Y-128458333D01*
X112019285Y-128696428D01*
X111971666Y-128886904D01*
X111924047Y-128982142D01*
X111876428Y-129029761D01*
X111781190Y-129077380D01*
X111685952Y-129077380D01*
X111590714Y-129029761D01*
X111543095Y-128982142D01*
X111495476Y-128886904D01*
X111447857Y-128696428D01*
X111447857Y-128458333D01*
X111495476Y-128267857D01*
X111543095Y-128172619D01*
X111590714Y-128125000D01*
X111685952Y-128077380D01*
X112400238Y-128172619D02*
X112447857Y-128125000D01*
X112543095Y-128077380D01*
X112781190Y-128077380D01*
X112876428Y-128125000D01*
X112924047Y-128172619D01*
X112971666Y-128267857D01*
X112971666Y-128363095D01*
X112924047Y-128505952D01*
X112352619Y-129077380D01*
X112971666Y-129077380D01*
X113924047Y-129077380D02*
X113352619Y-129077380D01*
X113638333Y-129077380D02*
X113638333Y-128077380D01*
X113543095Y-128220238D01*
X113447857Y-128315476D01*
X113352619Y-128363095D01*
X115114523Y-129077380D02*
X115114523Y-128077380D01*
X115352619Y-128077380D01*
X115495476Y-128125000D01*
X115590714Y-128220238D01*
X115638333Y-128315476D01*
X115685952Y-128505952D01*
X115685952Y-128648809D01*
X115638333Y-128839285D01*
X115590714Y-128934523D01*
X115495476Y-129029761D01*
X115352619Y-129077380D01*
X115114523Y-129077380D01*
X116495476Y-129029761D02*
X116400238Y-129077380D01*
X116209761Y-129077380D01*
X116114523Y-129029761D01*
X116066904Y-128934523D01*
X116066904Y-128553571D01*
X116114523Y-128458333D01*
X116209761Y-128410714D01*
X116400238Y-128410714D01*
X116495476Y-128458333D01*
X116543095Y-128553571D01*
X116543095Y-128648809D01*
X116066904Y-128744047D01*
X117400238Y-129029761D02*
X117305000Y-129077380D01*
X117114523Y-129077380D01*
X117019285Y-129029761D01*
X116971666Y-128982142D01*
X116924047Y-128886904D01*
X116924047Y-128601190D01*
X116971666Y-128505952D01*
X117019285Y-128458333D01*
X117114523Y-128410714D01*
X117305000Y-128410714D01*
X117400238Y-128458333D01*
X118209761Y-129029761D02*
X118114523Y-129077380D01*
X117924047Y-129077380D01*
X117828809Y-129029761D01*
X117781190Y-128934523D01*
X117781190Y-128553571D01*
X117828809Y-128458333D01*
X117924047Y-128410714D01*
X118114523Y-128410714D01*
X118209761Y-128458333D01*
X118257380Y-128553571D01*
X118257380Y-128648809D01*
X117781190Y-128744047D01*
X118685952Y-129077380D02*
X118685952Y-128410714D01*
X118685952Y-128505952D02*
X118733571Y-128458333D01*
X118828809Y-128410714D01*
X118971666Y-128410714D01*
X119066904Y-128458333D01*
X119114523Y-128553571D01*
X119114523Y-129077380D01*
X119114523Y-128553571D02*
X119162142Y-128458333D01*
X119257380Y-128410714D01*
X119400238Y-128410714D01*
X119495476Y-128458333D01*
X119543095Y-128553571D01*
X119543095Y-129077380D01*
X120019285Y-129077380D02*
X120019285Y-128077380D01*
X120019285Y-128458333D02*
X120114523Y-128410714D01*
X120305000Y-128410714D01*
X120400238Y-128458333D01*
X120447857Y-128505952D01*
X120495476Y-128601190D01*
X120495476Y-128886904D01*
X120447857Y-128982142D01*
X120400238Y-129029761D01*
X120305000Y-129077380D01*
X120114523Y-129077380D01*
X120019285Y-129029761D01*
X121305000Y-129029761D02*
X121209761Y-129077380D01*
X121019285Y-129077380D01*
X120924047Y-129029761D01*
X120876428Y-128934523D01*
X120876428Y-128553571D01*
X120924047Y-128458333D01*
X121019285Y-128410714D01*
X121209761Y-128410714D01*
X121305000Y-128458333D01*
X121352619Y-128553571D01*
X121352619Y-128648809D01*
X120876428Y-128744047D01*
X121781190Y-129077380D02*
X121781190Y-128410714D01*
X121781190Y-128601190D02*
X121828809Y-128505952D01*
X121876428Y-128458333D01*
X121971666Y-128410714D01*
X122066904Y-128410714D01*
D11*
X173232023Y-75532142D02*
X173184404Y-75579761D01*
X173041547Y-75627380D01*
X172946309Y-75627380D01*
X172803452Y-75579761D01*
X172708214Y-75484523D01*
X172660595Y-75389285D01*
X172612976Y-75198809D01*
X172612976Y-75055952D01*
X172660595Y-74865476D01*
X172708214Y-74770238D01*
X172803452Y-74675000D01*
X172946309Y-74627380D01*
X173041547Y-74627380D01*
X173184404Y-74675000D01*
X173232023Y-74722619D01*
X173803452Y-75627380D02*
X173708214Y-75579761D01*
X173660595Y-75484523D01*
X173660595Y-74627380D01*
X174327261Y-75627380D02*
X174232023Y-75579761D01*
X174184404Y-75532142D01*
X174136785Y-75436904D01*
X174136785Y-75151190D01*
X174184404Y-75055952D01*
X174232023Y-75008333D01*
X174327261Y-74960714D01*
X174470119Y-74960714D01*
X174565357Y-75008333D01*
X174612976Y-75055952D01*
X174660595Y-75151190D01*
X174660595Y-75436904D01*
X174612976Y-75532142D01*
X174565357Y-75579761D01*
X174470119Y-75627380D01*
X174327261Y-75627380D01*
X175041547Y-75579761D02*
X175136785Y-75627380D01*
X175327261Y-75627380D01*
X175422500Y-75579761D01*
X175470119Y-75484523D01*
X175470119Y-75436904D01*
X175422500Y-75341666D01*
X175327261Y-75294047D01*
X175184404Y-75294047D01*
X175089166Y-75246428D01*
X175041547Y-75151190D01*
X175041547Y-75103571D01*
X175089166Y-75008333D01*
X175184404Y-74960714D01*
X175327261Y-74960714D01*
X175422500Y-75008333D01*
X176279642Y-75579761D02*
X176184404Y-75627380D01*
X175993928Y-75627380D01*
X175898690Y-75579761D01*
X175851071Y-75484523D01*
X175851071Y-75103571D01*
X175898690Y-75008333D01*
X175993928Y-74960714D01*
X176184404Y-74960714D01*
X176279642Y-75008333D01*
X176327261Y-75103571D01*
X176327261Y-75198809D01*
X175851071Y-75294047D01*
X177803452Y-74627380D02*
X177803452Y-75341666D01*
X177755833Y-75484523D01*
X177660595Y-75579761D01*
X177517738Y-75627380D01*
X177422500Y-75627380D01*
X178184404Y-74627380D02*
X178803452Y-74627380D01*
X178470119Y-75008333D01*
X178612976Y-75008333D01*
X178708214Y-75055952D01*
X178755833Y-75103571D01*
X178803452Y-75198809D01*
X178803452Y-75436904D01*
X178755833Y-75532142D01*
X178708214Y-75579761D01*
X178612976Y-75627380D01*
X178327261Y-75627380D01*
X178232023Y-75579761D01*
X178184404Y-75532142D01*
X172517738Y-76610714D02*
X172898690Y-76610714D01*
X172660595Y-76277380D02*
X172660595Y-77134523D01*
X172708214Y-77229761D01*
X172803452Y-77277380D01*
X172898690Y-77277380D01*
X173374880Y-77277380D02*
X173279642Y-77229761D01*
X173232023Y-77182142D01*
X173184404Y-77086904D01*
X173184404Y-76801190D01*
X173232023Y-76705952D01*
X173279642Y-76658333D01*
X173374880Y-76610714D01*
X173517738Y-76610714D01*
X173612976Y-76658333D01*
X173660595Y-76705952D01*
X173708214Y-76801190D01*
X173708214Y-77086904D01*
X173660595Y-77182142D01*
X173612976Y-77229761D01*
X173517738Y-77277380D01*
X173374880Y-77277380D01*
X175279642Y-77229761D02*
X175184404Y-77277380D01*
X174993928Y-77277380D01*
X174898690Y-77229761D01*
X174851071Y-77134523D01*
X174851071Y-76753571D01*
X174898690Y-76658333D01*
X174993928Y-76610714D01*
X175184404Y-76610714D01*
X175279642Y-76658333D01*
X175327261Y-76753571D01*
X175327261Y-76848809D01*
X174851071Y-76944047D01*
X175755833Y-76610714D02*
X175755833Y-77277380D01*
X175755833Y-76705952D02*
X175803452Y-76658333D01*
X175898690Y-76610714D01*
X176041547Y-76610714D01*
X176136785Y-76658333D01*
X176184404Y-76753571D01*
X176184404Y-77277380D01*
X177089166Y-77277380D02*
X177089166Y-76753571D01*
X177041547Y-76658333D01*
X176946309Y-76610714D01*
X176755833Y-76610714D01*
X176660595Y-76658333D01*
X177089166Y-77229761D02*
X176993928Y-77277380D01*
X176755833Y-77277380D01*
X176660595Y-77229761D01*
X176612976Y-77134523D01*
X176612976Y-77039285D01*
X176660595Y-76944047D01*
X176755833Y-76896428D01*
X176993928Y-76896428D01*
X177089166Y-76848809D01*
X177565357Y-77277380D02*
X177565357Y-76277380D01*
X177565357Y-76658333D02*
X177660595Y-76610714D01*
X177851071Y-76610714D01*
X177946309Y-76658333D01*
X177993928Y-76705952D01*
X178041547Y-76801190D01*
X178041547Y-77086904D01*
X177993928Y-77182142D01*
X177946309Y-77229761D01*
X177851071Y-77277380D01*
X177660595Y-77277380D01*
X177565357Y-77229761D01*
X178612976Y-77277380D02*
X178517738Y-77229761D01*
X178470119Y-77134523D01*
X178470119Y-76277380D01*
X179374880Y-77229761D02*
X179279642Y-77277380D01*
X179089166Y-77277380D01*
X178993928Y-77229761D01*
X178946309Y-77134523D01*
X178946309Y-76753571D01*
X178993928Y-76658333D01*
X179089166Y-76610714D01*
X179279642Y-76610714D01*
X179374880Y-76658333D01*
X179422500Y-76753571D01*
X179422500Y-76848809D01*
X178946309Y-76944047D01*
X173184404Y-78927380D02*
X172612976Y-78927380D01*
X172898690Y-78927380D02*
X172898690Y-77927380D01*
X172803452Y-78070238D01*
X172708214Y-78165476D01*
X172612976Y-78213095D01*
X173565357Y-78022619D02*
X173612976Y-77975000D01*
X173708214Y-77927380D01*
X173946309Y-77927380D01*
X174041547Y-77975000D01*
X174089166Y-78022619D01*
X174136785Y-78117857D01*
X174136785Y-78213095D01*
X174089166Y-78355952D01*
X173517738Y-78927380D01*
X174136785Y-78927380D01*
X174422500Y-77927380D02*
X174755833Y-78927380D01*
X175089166Y-77927380D01*
X176327261Y-78927380D02*
X176232023Y-78879761D01*
X176184404Y-78832142D01*
X176136785Y-78736904D01*
X176136785Y-78451190D01*
X176184404Y-78355952D01*
X176232023Y-78308333D01*
X176327261Y-78260714D01*
X176470119Y-78260714D01*
X176565357Y-78308333D01*
X176612976Y-78355952D01*
X176660595Y-78451190D01*
X176660595Y-78736904D01*
X176612976Y-78832142D01*
X176565357Y-78879761D01*
X176470119Y-78927380D01*
X176327261Y-78927380D01*
X177089166Y-78260714D02*
X177089166Y-78927380D01*
X177089166Y-78355952D02*
X177136785Y-78308333D01*
X177232023Y-78260714D01*
X177374880Y-78260714D01*
X177470119Y-78308333D01*
X177517738Y-78403571D01*
X177517738Y-78927380D01*
X172517738Y-79910714D02*
X172898690Y-79910714D01*
X172660595Y-80577380D02*
X172660595Y-79720238D01*
X172708214Y-79625000D01*
X172803452Y-79577380D01*
X172898690Y-79577380D01*
X173374880Y-80577380D02*
X173279642Y-80529761D01*
X173232023Y-80434523D01*
X173232023Y-79577380D01*
X173898690Y-80577380D02*
X173803452Y-80529761D01*
X173755833Y-80482142D01*
X173708214Y-80386904D01*
X173708214Y-80101190D01*
X173755833Y-80005952D01*
X173803452Y-79958333D01*
X173898690Y-79910714D01*
X174041547Y-79910714D01*
X174136785Y-79958333D01*
X174184404Y-80005952D01*
X174232023Y-80101190D01*
X174232023Y-80386904D01*
X174184404Y-80482142D01*
X174136785Y-80529761D01*
X174041547Y-80577380D01*
X173898690Y-80577380D01*
X174660595Y-79910714D02*
X174660595Y-80910714D01*
X174660595Y-79958333D02*
X174755833Y-79910714D01*
X174946309Y-79910714D01*
X175041547Y-79958333D01*
X175089166Y-80005952D01*
X175136785Y-80101190D01*
X175136785Y-80386904D01*
X175089166Y-80482142D01*
X175041547Y-80529761D01*
X174946309Y-80577380D01*
X174755833Y-80577380D01*
X174660595Y-80529761D01*
X175565357Y-79910714D02*
X175565357Y-80910714D01*
X175565357Y-79958333D02*
X175660595Y-79910714D01*
X175851071Y-79910714D01*
X175946309Y-79958333D01*
X175993928Y-80005952D01*
X176041547Y-80101190D01*
X176041547Y-80386904D01*
X175993928Y-80482142D01*
X175946309Y-80529761D01*
X175851071Y-80577380D01*
X175660595Y-80577380D01*
X175565357Y-80529761D01*
X176374880Y-79910714D02*
X176612976Y-80577380D01*
X176851071Y-79910714D02*
X176612976Y-80577380D01*
X176517738Y-80815476D01*
X176470119Y-80863095D01*
X176374880Y-80910714D01*
X177993928Y-79910714D02*
X177993928Y-80910714D01*
X177993928Y-79958333D02*
X178089166Y-79910714D01*
X178279642Y-79910714D01*
X178374880Y-79958333D01*
X178422500Y-80005952D01*
X178470119Y-80101190D01*
X178470119Y-80386904D01*
X178422500Y-80482142D01*
X178374880Y-80529761D01*
X178279642Y-80577380D01*
X178089166Y-80577380D01*
X177993928Y-80529761D01*
X178803452Y-79910714D02*
X178993928Y-80577380D01*
X179184404Y-80101190D01*
X179374880Y-80577380D01*
X179565357Y-79910714D01*
X179946309Y-80577380D02*
X179946309Y-79910714D01*
X179946309Y-80101190D02*
X179993928Y-80005952D01*
X180041547Y-79958333D01*
X180136785Y-79910714D01*
X180232023Y-79910714D01*
X180565357Y-80482142D02*
X180612976Y-80529761D01*
X180565357Y-80577380D01*
X180517738Y-80529761D01*
X180565357Y-80482142D01*
X180565357Y-80577380D01*
X173089166Y-82179761D02*
X172993928Y-82227380D01*
X172803452Y-82227380D01*
X172708214Y-82179761D01*
X172660595Y-82132142D01*
X172612976Y-82036904D01*
X172612976Y-81751190D01*
X172660595Y-81655952D01*
X172708214Y-81608333D01*
X172803452Y-81560714D01*
X172993928Y-81560714D01*
X173089166Y-81608333D01*
X173660595Y-82227380D02*
X173565357Y-82179761D01*
X173517738Y-82132142D01*
X173470119Y-82036904D01*
X173470119Y-81751190D01*
X173517738Y-81655952D01*
X173565357Y-81608333D01*
X173660595Y-81560714D01*
X173803452Y-81560714D01*
X173898690Y-81608333D01*
X173946309Y-81655952D01*
X173993928Y-81751190D01*
X173993928Y-82036904D01*
X173946309Y-82132142D01*
X173898690Y-82179761D01*
X173803452Y-82227380D01*
X173660595Y-82227380D01*
X174422500Y-81560714D02*
X174422500Y-82227380D01*
X174422500Y-81655952D02*
X174470119Y-81608333D01*
X174565357Y-81560714D01*
X174708214Y-81560714D01*
X174803452Y-81608333D01*
X174851071Y-81703571D01*
X174851071Y-82227380D01*
X175327261Y-81560714D02*
X175327261Y-82227380D01*
X175327261Y-81655952D02*
X175374880Y-81608333D01*
X175470119Y-81560714D01*
X175612976Y-81560714D01*
X175708214Y-81608333D01*
X175755833Y-81703571D01*
X175755833Y-82227380D01*
X176612976Y-82179761D02*
X176517738Y-82227380D01*
X176327261Y-82227380D01*
X176232023Y-82179761D01*
X176184404Y-82084523D01*
X176184404Y-81703571D01*
X176232023Y-81608333D01*
X176327261Y-81560714D01*
X176517738Y-81560714D01*
X176612976Y-81608333D01*
X176660595Y-81703571D01*
X176660595Y-81798809D01*
X176184404Y-81894047D01*
X177517738Y-82179761D02*
X177422500Y-82227380D01*
X177232023Y-82227380D01*
X177136785Y-82179761D01*
X177089166Y-82132142D01*
X177041547Y-82036904D01*
X177041547Y-81751190D01*
X177089166Y-81655952D01*
X177136785Y-81608333D01*
X177232023Y-81560714D01*
X177422500Y-81560714D01*
X177517738Y-81608333D01*
X177803452Y-81560714D02*
X178184404Y-81560714D01*
X177946309Y-81227380D02*
X177946309Y-82084523D01*
X177993928Y-82179761D01*
X178089166Y-82227380D01*
X178184404Y-82227380D01*
X178660595Y-82227380D02*
X178565357Y-82179761D01*
X178517738Y-82132142D01*
X178470119Y-82036904D01*
X178470119Y-81751190D01*
X178517738Y-81655952D01*
X178565357Y-81608333D01*
X178660595Y-81560714D01*
X178803452Y-81560714D01*
X178898690Y-81608333D01*
X178946309Y-81655952D01*
X178993928Y-81751190D01*
X178993928Y-82036904D01*
X178946309Y-82132142D01*
X178898690Y-82179761D01*
X178803452Y-82227380D01*
X178660595Y-82227380D01*
X179422500Y-82227380D02*
X179422500Y-81560714D01*
X179422500Y-81751190D02*
X179470119Y-81655952D01*
X179517738Y-81608333D01*
X179612976Y-81560714D01*
X179708214Y-81560714D01*
X73384523Y-126877380D02*
X72908333Y-126877380D01*
X72860714Y-127353571D01*
X72908333Y-127305952D01*
X73003571Y-127258333D01*
X73241666Y-127258333D01*
X73336904Y-127305952D01*
X73384523Y-127353571D01*
X73432142Y-127448809D01*
X73432142Y-127686904D01*
X73384523Y-127782142D01*
X73336904Y-127829761D01*
X73241666Y-127877380D01*
X73003571Y-127877380D01*
X72908333Y-127829761D01*
X72860714Y-127782142D01*
X73717857Y-126877380D02*
X74051190Y-127877380D01*
X74384523Y-126877380D01*
X73455952Y-120377380D02*
X72884523Y-120377380D01*
X73170238Y-120377380D02*
X73170238Y-119377380D01*
X73075000Y-119520238D01*
X72979761Y-119615476D01*
X72884523Y-119663095D01*
X73836904Y-119472619D02*
X73884523Y-119425000D01*
X73979761Y-119377380D01*
X74217857Y-119377380D01*
X74313095Y-119425000D01*
X74360714Y-119472619D01*
X74408333Y-119567857D01*
X74408333Y-119663095D01*
X74360714Y-119805952D01*
X73789285Y-120377380D01*
X74408333Y-120377380D01*
X74694047Y-119377380D02*
X75027380Y-120377380D01*
X75360714Y-119377380D01*
X73313095Y-121925000D02*
X73217857Y-121877380D01*
X73075000Y-121877380D01*
X72932142Y-121925000D01*
X72836904Y-122020238D01*
X72789285Y-122115476D01*
X72741666Y-122305952D01*
X72741666Y-122448809D01*
X72789285Y-122639285D01*
X72836904Y-122734523D01*
X72932142Y-122829761D01*
X73075000Y-122877380D01*
X73170238Y-122877380D01*
X73313095Y-122829761D01*
X73360714Y-122782142D01*
X73360714Y-122448809D01*
X73170238Y-122448809D01*
X73789285Y-122877380D02*
X73789285Y-121877380D01*
X74360714Y-122877380D01*
X74360714Y-121877380D01*
X74836904Y-122877380D02*
X74836904Y-121877380D01*
X75075000Y-121877380D01*
X75217857Y-121925000D01*
X75313095Y-122020238D01*
X75360714Y-122115476D01*
X75408333Y-122305952D01*
X75408333Y-122448809D01*
X75360714Y-122639285D01*
X75313095Y-122734523D01*
X75217857Y-122829761D01*
X75075000Y-122877380D01*
X74836904Y-122877380D01*
X73313095Y-124425000D02*
X73217857Y-124377380D01*
X73075000Y-124377380D01*
X72932142Y-124425000D01*
X72836904Y-124520238D01*
X72789285Y-124615476D01*
X72741666Y-124805952D01*
X72741666Y-124948809D01*
X72789285Y-125139285D01*
X72836904Y-125234523D01*
X72932142Y-125329761D01*
X73075000Y-125377380D01*
X73170238Y-125377380D01*
X73313095Y-125329761D01*
X73360714Y-125282142D01*
X73360714Y-124948809D01*
X73170238Y-124948809D01*
X73789285Y-125377380D02*
X73789285Y-124377380D01*
X74360714Y-125377380D01*
X74360714Y-124377380D01*
X74836904Y-125377380D02*
X74836904Y-124377380D01*
X75075000Y-124377380D01*
X75217857Y-124425000D01*
X75313095Y-124520238D01*
X75360714Y-124615476D01*
X75408333Y-124805952D01*
X75408333Y-124948809D01*
X75360714Y-125139285D01*
X75313095Y-125234523D01*
X75217857Y-125329761D01*
X75075000Y-125377380D01*
X74836904Y-125377380D01*
X59382023Y-112932142D02*
X59334404Y-112979761D01*
X59191547Y-113027380D01*
X59096309Y-113027380D01*
X58953452Y-112979761D01*
X58858214Y-112884523D01*
X58810595Y-112789285D01*
X58762976Y-112598809D01*
X58762976Y-112455952D01*
X58810595Y-112265476D01*
X58858214Y-112170238D01*
X58953452Y-112075000D01*
X59096309Y-112027380D01*
X59191547Y-112027380D01*
X59334404Y-112075000D01*
X59382023Y-112122619D01*
X59953452Y-113027380D02*
X59858214Y-112979761D01*
X59810595Y-112884523D01*
X59810595Y-112027380D01*
X60477261Y-113027380D02*
X60382023Y-112979761D01*
X60334404Y-112932142D01*
X60286785Y-112836904D01*
X60286785Y-112551190D01*
X60334404Y-112455952D01*
X60382023Y-112408333D01*
X60477261Y-112360714D01*
X60620119Y-112360714D01*
X60715357Y-112408333D01*
X60762976Y-112455952D01*
X60810595Y-112551190D01*
X60810595Y-112836904D01*
X60762976Y-112932142D01*
X60715357Y-112979761D01*
X60620119Y-113027380D01*
X60477261Y-113027380D01*
X61191547Y-112979761D02*
X61286785Y-113027380D01*
X61477261Y-113027380D01*
X61572500Y-112979761D01*
X61620119Y-112884523D01*
X61620119Y-112836904D01*
X61572500Y-112741666D01*
X61477261Y-112694047D01*
X61334404Y-112694047D01*
X61239166Y-112646428D01*
X61191547Y-112551190D01*
X61191547Y-112503571D01*
X61239166Y-112408333D01*
X61334404Y-112360714D01*
X61477261Y-112360714D01*
X61572500Y-112408333D01*
X62429642Y-112979761D02*
X62334404Y-113027380D01*
X62143928Y-113027380D01*
X62048690Y-112979761D01*
X62001071Y-112884523D01*
X62001071Y-112503571D01*
X62048690Y-112408333D01*
X62143928Y-112360714D01*
X62334404Y-112360714D01*
X62429642Y-112408333D01*
X62477261Y-112503571D01*
X62477261Y-112598809D01*
X62001071Y-112694047D01*
X63953452Y-112027380D02*
X63953452Y-112741666D01*
X63905833Y-112884523D01*
X63810595Y-112979761D01*
X63667738Y-113027380D01*
X63572500Y-113027380D01*
X64334404Y-112027380D02*
X64953452Y-112027380D01*
X64620119Y-112408333D01*
X64762976Y-112408333D01*
X64858214Y-112455952D01*
X64905833Y-112503571D01*
X64953452Y-112598809D01*
X64953452Y-112836904D01*
X64905833Y-112932142D01*
X64858214Y-112979761D01*
X64762976Y-113027380D01*
X64477261Y-113027380D01*
X64382023Y-112979761D01*
X64334404Y-112932142D01*
X66001071Y-112360714D02*
X66382023Y-112360714D01*
X66143928Y-112027380D02*
X66143928Y-112884523D01*
X66191547Y-112979761D01*
X66286785Y-113027380D01*
X66382023Y-113027380D01*
X66858214Y-113027380D02*
X66762976Y-112979761D01*
X66715357Y-112932142D01*
X66667738Y-112836904D01*
X66667738Y-112551190D01*
X66715357Y-112455952D01*
X66762976Y-112408333D01*
X66858214Y-112360714D01*
X67001071Y-112360714D01*
X67096309Y-112408333D01*
X67143928Y-112455952D01*
X67191547Y-112551190D01*
X67191547Y-112836904D01*
X67143928Y-112932142D01*
X67096309Y-112979761D01*
X67001071Y-113027380D01*
X66858214Y-113027380D01*
X59191547Y-114629761D02*
X59096309Y-114677380D01*
X58905833Y-114677380D01*
X58810595Y-114629761D01*
X58762976Y-114534523D01*
X58762976Y-114153571D01*
X58810595Y-114058333D01*
X58905833Y-114010714D01*
X59096309Y-114010714D01*
X59191547Y-114058333D01*
X59239166Y-114153571D01*
X59239166Y-114248809D01*
X58762976Y-114344047D01*
X59667738Y-114010714D02*
X59667738Y-114677380D01*
X59667738Y-114105952D02*
X59715357Y-114058333D01*
X59810595Y-114010714D01*
X59953452Y-114010714D01*
X60048690Y-114058333D01*
X60096309Y-114153571D01*
X60096309Y-114677380D01*
X61001071Y-114677380D02*
X61001071Y-114153571D01*
X60953452Y-114058333D01*
X60858214Y-114010714D01*
X60667738Y-114010714D01*
X60572500Y-114058333D01*
X61001071Y-114629761D02*
X60905833Y-114677380D01*
X60667738Y-114677380D01*
X60572500Y-114629761D01*
X60524880Y-114534523D01*
X60524880Y-114439285D01*
X60572500Y-114344047D01*
X60667738Y-114296428D01*
X60905833Y-114296428D01*
X61001071Y-114248809D01*
X61477261Y-114677380D02*
X61477261Y-113677380D01*
X61477261Y-114058333D02*
X61572500Y-114010714D01*
X61762976Y-114010714D01*
X61858214Y-114058333D01*
X61905833Y-114105952D01*
X61953452Y-114201190D01*
X61953452Y-114486904D01*
X61905833Y-114582142D01*
X61858214Y-114629761D01*
X61762976Y-114677380D01*
X61572500Y-114677380D01*
X61477261Y-114629761D01*
X62524880Y-114677380D02*
X62429642Y-114629761D01*
X62382023Y-114534523D01*
X62382023Y-113677380D01*
X63286785Y-114629761D02*
X63191547Y-114677380D01*
X63001071Y-114677380D01*
X62905833Y-114629761D01*
X62858214Y-114534523D01*
X62858214Y-114153571D01*
X62905833Y-114058333D01*
X63001071Y-114010714D01*
X63191547Y-114010714D01*
X63286785Y-114058333D01*
X63334404Y-114153571D01*
X63334404Y-114248809D01*
X62858214Y-114344047D01*
X65048690Y-114677380D02*
X64477261Y-114677380D01*
X64762976Y-114677380D02*
X64762976Y-113677380D01*
X64667738Y-113820238D01*
X64572500Y-113915476D01*
X64477261Y-113963095D01*
X65429642Y-113772619D02*
X65477261Y-113725000D01*
X65572500Y-113677380D01*
X65810595Y-113677380D01*
X65905833Y-113725000D01*
X65953452Y-113772619D01*
X66001071Y-113867857D01*
X66001071Y-113963095D01*
X65953452Y-114105952D01*
X65382023Y-114677380D01*
X66001071Y-114677380D01*
X66286785Y-113677380D02*
X66620119Y-114677380D01*
X66953452Y-113677380D01*
X59143928Y-115803571D02*
X58810595Y-115803571D01*
X58810595Y-116327380D02*
X58810595Y-115327380D01*
X59286785Y-115327380D01*
X59810595Y-116327380D02*
X59715357Y-116279761D01*
X59667738Y-116184523D01*
X59667738Y-115327380D01*
X60334404Y-116327380D02*
X60239166Y-116279761D01*
X60191547Y-116232142D01*
X60143928Y-116136904D01*
X60143928Y-115851190D01*
X60191547Y-115755952D01*
X60239166Y-115708333D01*
X60334404Y-115660714D01*
X60477261Y-115660714D01*
X60572500Y-115708333D01*
X60620119Y-115755952D01*
X60667738Y-115851190D01*
X60667738Y-116136904D01*
X60620119Y-116232142D01*
X60572500Y-116279761D01*
X60477261Y-116327380D01*
X60334404Y-116327380D01*
X61096309Y-115660714D02*
X61096309Y-116660714D01*
X61096309Y-115708333D02*
X61191547Y-115660714D01*
X61382023Y-115660714D01*
X61477261Y-115708333D01*
X61524880Y-115755952D01*
X61572500Y-115851190D01*
X61572500Y-116136904D01*
X61524880Y-116232142D01*
X61477261Y-116279761D01*
X61382023Y-116327380D01*
X61191547Y-116327380D01*
X61096309Y-116279761D01*
X62001071Y-115660714D02*
X62001071Y-116660714D01*
X62001071Y-115708333D02*
X62096309Y-115660714D01*
X62286785Y-115660714D01*
X62382023Y-115708333D01*
X62429642Y-115755952D01*
X62477261Y-115851190D01*
X62477261Y-116136904D01*
X62429642Y-116232142D01*
X62382023Y-116279761D01*
X62286785Y-116327380D01*
X62096309Y-116327380D01*
X62001071Y-116279761D01*
X62810595Y-115660714D02*
X63048690Y-116327380D01*
X63286785Y-115660714D02*
X63048690Y-116327380D01*
X62953452Y-116565476D01*
X62905833Y-116613095D01*
X62810595Y-116660714D01*
X64429642Y-116327380D02*
X64429642Y-115327380D01*
X64810595Y-115327380D01*
X64905833Y-115375000D01*
X64953452Y-115422619D01*
X65001071Y-115517857D01*
X65001071Y-115660714D01*
X64953452Y-115755952D01*
X64905833Y-115803571D01*
X64810595Y-115851190D01*
X64429642Y-115851190D01*
X65334404Y-115660714D02*
X65524880Y-116327380D01*
X65715357Y-115851190D01*
X65905833Y-116327380D01*
X66096309Y-115660714D01*
X66477261Y-116327380D02*
X66477261Y-115660714D01*
X66477261Y-115851190D02*
X66524880Y-115755952D01*
X66572500Y-115708333D01*
X66667738Y-115660714D01*
X66762976Y-115660714D01*
X78432142Y-130877380D02*
X78432142Y-129877380D01*
X78670238Y-129877380D01*
X78813095Y-129925000D01*
X78908333Y-130020238D01*
X78955952Y-130115476D01*
X79003571Y-130305952D01*
X79003571Y-130448809D01*
X78955952Y-130639285D01*
X78908333Y-130734523D01*
X78813095Y-130829761D01*
X78670238Y-130877380D01*
X78432142Y-130877380D01*
X79289285Y-129877380D02*
X79860714Y-129877380D01*
X79575000Y-130877380D02*
X79575000Y-129877380D01*
X80765476Y-130877380D02*
X80432142Y-130401190D01*
X80194047Y-130877380D02*
X80194047Y-129877380D01*
X80575000Y-129877380D01*
X80670238Y-129925000D01*
X80717857Y-129972619D01*
X80765476Y-130067857D01*
X80765476Y-130210714D01*
X80717857Y-130305952D01*
X80670238Y-130353571D01*
X80575000Y-130401190D01*
X80194047Y-130401190D01*
X79408333Y-127877380D02*
X79075000Y-127401190D01*
X78836904Y-127877380D02*
X78836904Y-126877380D01*
X79217857Y-126877380D01*
X79313095Y-126925000D01*
X79360714Y-126972619D01*
X79408333Y-127067857D01*
X79408333Y-127210714D01*
X79360714Y-127305952D01*
X79313095Y-127353571D01*
X79217857Y-127401190D01*
X78836904Y-127401190D01*
X79741666Y-126877380D02*
X80408333Y-127877380D01*
X80408333Y-126877380D02*
X79741666Y-127877380D01*
X78813095Y-124377380D02*
X79384523Y-124377380D01*
X79098809Y-125377380D02*
X79098809Y-124377380D01*
X79622619Y-124377380D02*
X80289285Y-125377380D01*
X80289285Y-124377380D02*
X79622619Y-125377380D01*
X78455952Y-122210714D02*
X78455952Y-122877380D01*
X78455952Y-122305952D02*
X78503571Y-122258333D01*
X78598809Y-122210714D01*
X78741666Y-122210714D01*
X78836904Y-122258333D01*
X78884523Y-122353571D01*
X78884523Y-122877380D01*
X79360714Y-122782142D02*
X79408333Y-122829761D01*
X79360714Y-122877380D01*
X79313095Y-122829761D01*
X79360714Y-122782142D01*
X79360714Y-122877380D01*
X80265476Y-122829761D02*
X80170238Y-122877380D01*
X79979761Y-122877380D01*
X79884523Y-122829761D01*
X79836904Y-122782142D01*
X79789285Y-122686904D01*
X79789285Y-122401190D01*
X79836904Y-122305952D01*
X79884523Y-122258333D01*
X79979761Y-122210714D01*
X80170238Y-122210714D01*
X80265476Y-122258333D01*
X80694047Y-122782142D02*
X80741666Y-122829761D01*
X80694047Y-122877380D01*
X80646428Y-122829761D01*
X80694047Y-122782142D01*
X80694047Y-122877380D01*
X79027380Y-120282142D02*
X78979761Y-120329761D01*
X78836904Y-120377380D01*
X78741666Y-120377380D01*
X78598809Y-120329761D01*
X78503571Y-120234523D01*
X78455952Y-120139285D01*
X78408333Y-119948809D01*
X78408333Y-119805952D01*
X78455952Y-119615476D01*
X78503571Y-119520238D01*
X78598809Y-119425000D01*
X78741666Y-119377380D01*
X78836904Y-119377380D01*
X78979761Y-119425000D01*
X79027380Y-119472619D01*
X79313095Y-119377380D02*
X79884523Y-119377380D01*
X79598809Y-120377380D02*
X79598809Y-119377380D01*
X80170238Y-120329761D02*
X80313095Y-120377380D01*
X80551190Y-120377380D01*
X80646428Y-120329761D01*
X80694047Y-120282142D01*
X80741666Y-120186904D01*
X80741666Y-120091666D01*
X80694047Y-119996428D01*
X80646428Y-119948809D01*
X80551190Y-119901190D01*
X80360714Y-119853571D01*
X80265476Y-119805952D01*
X80217857Y-119758333D01*
X80170238Y-119663095D01*
X80170238Y-119567857D01*
X80217857Y-119472619D01*
X80265476Y-119425000D01*
X80360714Y-119377380D01*
X80598809Y-119377380D01*
X80741666Y-119425000D01*
X78813095Y-116925000D02*
X78717857Y-116877380D01*
X78575000Y-116877380D01*
X78432142Y-116925000D01*
X78336904Y-117020238D01*
X78289285Y-117115476D01*
X78241666Y-117305952D01*
X78241666Y-117448809D01*
X78289285Y-117639285D01*
X78336904Y-117734523D01*
X78432142Y-117829761D01*
X78575000Y-117877380D01*
X78670238Y-117877380D01*
X78813095Y-117829761D01*
X78860714Y-117782142D01*
X78860714Y-117448809D01*
X78670238Y-117448809D01*
X79289285Y-117877380D02*
X79289285Y-116877380D01*
X79860714Y-117877380D01*
X79860714Y-116877380D01*
X80336904Y-117877380D02*
X80336904Y-116877380D01*
X80575000Y-116877380D01*
X80717857Y-116925000D01*
X80813095Y-117020238D01*
X80860714Y-117115476D01*
X80908333Y-117305952D01*
X80908333Y-117448809D01*
X80860714Y-117639285D01*
X80813095Y-117734523D01*
X80717857Y-117829761D01*
X80575000Y-117877380D01*
X80336904Y-117877380D01*
X82598809Y-132853571D02*
X82265476Y-132853571D01*
X82265476Y-133377380D02*
X82265476Y-132377380D01*
X82741666Y-132377380D01*
X82979761Y-132377380D02*
X83551190Y-132377380D01*
X83265476Y-133377380D02*
X83265476Y-132377380D01*
X83884523Y-133377380D02*
X83884523Y-132377380D01*
X84122619Y-132377380D01*
X84265476Y-132425000D01*
X84360714Y-132520238D01*
X84408333Y-132615476D01*
X84455952Y-132805952D01*
X84455952Y-132948809D01*
X84408333Y-133139285D01*
X84360714Y-133234523D01*
X84265476Y-133329761D01*
X84122619Y-133377380D01*
X83884523Y-133377380D01*
X84884523Y-133377380D02*
X84884523Y-132377380D01*
X103313095Y-96052380D02*
X103313095Y-96861904D01*
X103360714Y-96957142D01*
X103408333Y-97004761D01*
X103503571Y-97052380D01*
X103694047Y-97052380D01*
X103789285Y-97004761D01*
X103836904Y-96957142D01*
X103884523Y-96861904D01*
X103884523Y-96052380D01*
X104313095Y-97004761D02*
X104455952Y-97052380D01*
X104694047Y-97052380D01*
X104789285Y-97004761D01*
X104836904Y-96957142D01*
X104884523Y-96861904D01*
X104884523Y-96766666D01*
X104836904Y-96671428D01*
X104789285Y-96623809D01*
X104694047Y-96576190D01*
X104503571Y-96528571D01*
X104408333Y-96480952D01*
X104360714Y-96433333D01*
X104313095Y-96338095D01*
X104313095Y-96242857D01*
X104360714Y-96147619D01*
X104408333Y-96100000D01*
X104503571Y-96052380D01*
X104741666Y-96052380D01*
X104884523Y-96100000D01*
X105646428Y-96528571D02*
X105789285Y-96576190D01*
X105836904Y-96623809D01*
X105884523Y-96719047D01*
X105884523Y-96861904D01*
X105836904Y-96957142D01*
X105789285Y-97004761D01*
X105694047Y-97052380D01*
X105313095Y-97052380D01*
X105313095Y-96052380D01*
X105646428Y-96052380D01*
X105741666Y-96100000D01*
X105789285Y-96147619D01*
X105836904Y-96242857D01*
X105836904Y-96338095D01*
X105789285Y-96433333D01*
X105741666Y-96480952D01*
X105646428Y-96528571D01*
X105313095Y-96528571D01*
X103265476Y-98702380D02*
X103265476Y-97702380D01*
X103646428Y-97702380D01*
X103741666Y-97750000D01*
X103789285Y-97797619D01*
X103836904Y-97892857D01*
X103836904Y-98035714D01*
X103789285Y-98130952D01*
X103741666Y-98178571D01*
X103646428Y-98226190D01*
X103265476Y-98226190D01*
X104408333Y-98702380D02*
X104313095Y-98654761D01*
X104265476Y-98607142D01*
X104217857Y-98511904D01*
X104217857Y-98226190D01*
X104265476Y-98130952D01*
X104313095Y-98083333D01*
X104408333Y-98035714D01*
X104551190Y-98035714D01*
X104646428Y-98083333D01*
X104694047Y-98130952D01*
X104741666Y-98226190D01*
X104741666Y-98511904D01*
X104694047Y-98607142D01*
X104646428Y-98654761D01*
X104551190Y-98702380D01*
X104408333Y-98702380D01*
X105170238Y-98702380D02*
X105170238Y-98035714D01*
X105170238Y-98226190D02*
X105217857Y-98130952D01*
X105265476Y-98083333D01*
X105360714Y-98035714D01*
X105455952Y-98035714D01*
X105646428Y-98035714D02*
X106027380Y-98035714D01*
X105789285Y-97702380D02*
X105789285Y-98559523D01*
X105836904Y-98654761D01*
X105932142Y-98702380D01*
X106027380Y-98702380D01*
X105075000Y-60425000D02*
G75*
G03*
X105075000Y-60425000I-500000J0D01*
G01*
X107575000Y-60425000D02*
G75*
G03*
X107575000Y-60425000I-500000J0D01*
G01*
X102575000Y-60425000D02*
G75*
G03*
X102575000Y-60425000I-500000J0D01*
G01*
X105075000Y-58425000D02*
G75*
G03*
X105075000Y-58425000I-500000J0D01*
G01*
X107575000Y-58425000D02*
G75*
G03*
X107575000Y-58425000I-500000J0D01*
G01*
X102575000Y-58425000D02*
G75*
G03*
X102575000Y-58425000I-500000J0D01*
G01*
X108075000Y-57425000D02*
X101075000Y-57425000D01*
X108075000Y-61425000D02*
X108075000Y-57425000D01*
X101075000Y-61425000D02*
X108075000Y-61425000D01*
X101075000Y-57425000D02*
X101075000Y-61425000D01*
X100575000Y-102425000D02*
X100575000Y-91925000D01*
X108575000Y-102425000D02*
X100575000Y-102425000D01*
X108575000Y-91925000D02*
X108575000Y-102425000D01*
X100575000Y-91925000D02*
X108575000Y-91925000D01*
X87070238Y-97752380D02*
X87070238Y-96752380D01*
X87451190Y-96752380D01*
X87546428Y-96800000D01*
X87594047Y-96847619D01*
X87641666Y-96942857D01*
X87641666Y-97085714D01*
X87594047Y-97180952D01*
X87546428Y-97228571D01*
X87451190Y-97276190D01*
X87070238Y-97276190D01*
X88070238Y-97752380D02*
X88070238Y-97085714D01*
X88070238Y-96752380D02*
X88022619Y-96800000D01*
X88070238Y-96847619D01*
X88117857Y-96800000D01*
X88070238Y-96752380D01*
X88070238Y-96847619D01*
X88546428Y-97085714D02*
X88546428Y-97752380D01*
X88546428Y-97180952D02*
X88594047Y-97133333D01*
X88689285Y-97085714D01*
X88832142Y-97085714D01*
X88927380Y-97133333D01*
X88975000Y-97228571D01*
X88975000Y-97752380D01*
X89975000Y-97752380D02*
X89403571Y-97752380D01*
X89689285Y-97752380D02*
X89689285Y-96752380D01*
X89594047Y-96895238D01*
X89498809Y-96990476D01*
X89403571Y-97038095D01*
X90355952Y-96847619D02*
X90403571Y-96800000D01*
X90498809Y-96752380D01*
X90736904Y-96752380D01*
X90832142Y-96800000D01*
X90879761Y-96847619D01*
X90927380Y-96942857D01*
X90927380Y-97038095D01*
X90879761Y-97180952D01*
X90308333Y-97752380D01*
X90927380Y-97752380D01*
X86427380Y-98735714D02*
X86808333Y-98735714D01*
X86570238Y-98402380D02*
X86570238Y-99259523D01*
X86617857Y-99354761D01*
X86713095Y-99402380D01*
X86808333Y-99402380D01*
X87284523Y-99402380D02*
X87189285Y-99354761D01*
X87141666Y-99307142D01*
X87094047Y-99211904D01*
X87094047Y-98926190D01*
X87141666Y-98830952D01*
X87189285Y-98783333D01*
X87284523Y-98735714D01*
X87427380Y-98735714D01*
X87522619Y-98783333D01*
X87570238Y-98830952D01*
X87617857Y-98926190D01*
X87617857Y-99211904D01*
X87570238Y-99307142D01*
X87522619Y-99354761D01*
X87427380Y-99402380D01*
X87284523Y-99402380D01*
X89332142Y-98450000D02*
X89236904Y-98402380D01*
X89094047Y-98402380D01*
X88951190Y-98450000D01*
X88855952Y-98545238D01*
X88808333Y-98640476D01*
X88760714Y-98830952D01*
X88760714Y-98973809D01*
X88808333Y-99164285D01*
X88855952Y-99259523D01*
X88951190Y-99354761D01*
X89094047Y-99402380D01*
X89189285Y-99402380D01*
X89332142Y-99354761D01*
X89379761Y-99307142D01*
X89379761Y-98973809D01*
X89189285Y-98973809D01*
X89808333Y-99402380D02*
X89808333Y-98402380D01*
X90379761Y-99402380D01*
X90379761Y-98402380D01*
X90855952Y-99402380D02*
X90855952Y-98402380D01*
X91094047Y-98402380D01*
X91236904Y-98450000D01*
X91332142Y-98545238D01*
X91379761Y-98640476D01*
X91427380Y-98830952D01*
X91427380Y-98973809D01*
X91379761Y-99164285D01*
X91332142Y-99259523D01*
X91236904Y-99354761D01*
X91094047Y-99402380D01*
X90855952Y-99402380D01*
X71789285Y-65472619D02*
X71836904Y-65425000D01*
X71932142Y-65377380D01*
X72170238Y-65377380D01*
X72265476Y-65425000D01*
X72313095Y-65472619D01*
X72360714Y-65567857D01*
X72360714Y-65663095D01*
X72313095Y-65805952D01*
X71741666Y-66377380D01*
X72360714Y-66377380D01*
X63860714Y-66377380D02*
X63289285Y-66377380D01*
X63575000Y-66377380D02*
X63575000Y-65377380D01*
X63479761Y-65520238D01*
X63384523Y-65615476D01*
X63289285Y-65663095D01*
X71765476Y-105877380D02*
X72384523Y-105877380D01*
X72051190Y-106258333D01*
X72194047Y-106258333D01*
X72289285Y-106305952D01*
X72336904Y-106353571D01*
X72384523Y-106448809D01*
X72384523Y-106686904D01*
X72336904Y-106782142D01*
X72289285Y-106829761D01*
X72194047Y-106877380D01*
X71908333Y-106877380D01*
X71813095Y-106829761D01*
X71765476Y-106782142D01*
X73241666Y-106210714D02*
X73241666Y-106877380D01*
X73003571Y-105829761D02*
X72765476Y-106544047D01*
X73384523Y-106544047D01*
X63027380Y-107829761D02*
X63027380Y-107210714D01*
X63408333Y-107544047D01*
X63408333Y-107401190D01*
X63455952Y-107305952D01*
X63503571Y-107258333D01*
X63598809Y-107210714D01*
X63836904Y-107210714D01*
X63932142Y-107258333D01*
X63979761Y-107305952D01*
X64027380Y-107401190D01*
X64027380Y-107686904D01*
X63979761Y-107782142D01*
X63932142Y-107829761D01*
X63360714Y-106353571D02*
X64027380Y-106353571D01*
X62979761Y-106591666D02*
X63694047Y-106829761D01*
X63694047Y-106210714D01*
X63646428Y-105829761D02*
X63646428Y-105067857D01*
X64027380Y-104591666D02*
X63027380Y-104591666D01*
X63027380Y-104210714D01*
X63075000Y-104115476D01*
X63122619Y-104067857D01*
X63217857Y-104020238D01*
X63360714Y-104020238D01*
X63455952Y-104067857D01*
X63503571Y-104115476D01*
X63551190Y-104210714D01*
X63551190Y-104591666D01*
X64027380Y-103591666D02*
X63360714Y-103591666D01*
X63027380Y-103591666D02*
X63075000Y-103639285D01*
X63122619Y-103591666D01*
X63075000Y-103544047D01*
X63027380Y-103591666D01*
X63122619Y-103591666D01*
X63360714Y-103115476D02*
X64027380Y-103115476D01*
X63455952Y-103115476D02*
X63408333Y-103067857D01*
X63360714Y-102972619D01*
X63360714Y-102829761D01*
X63408333Y-102734523D01*
X63503571Y-102686904D01*
X64027380Y-102686904D01*
X63503571Y-101115476D02*
X63503571Y-101448809D01*
X64027380Y-101448809D02*
X63027380Y-101448809D01*
X63027380Y-100972619D01*
X64027380Y-100448809D02*
X63979761Y-100544047D01*
X63884523Y-100591666D01*
X63027380Y-100591666D01*
X64027380Y-99925000D02*
X63979761Y-100020238D01*
X63932142Y-100067857D01*
X63836904Y-100115476D01*
X63551190Y-100115476D01*
X63455952Y-100067857D01*
X63408333Y-100020238D01*
X63360714Y-99925000D01*
X63360714Y-99782142D01*
X63408333Y-99686904D01*
X63455952Y-99639285D01*
X63551190Y-99591666D01*
X63836904Y-99591666D01*
X63932142Y-99639285D01*
X63979761Y-99686904D01*
X64027380Y-99782142D01*
X64027380Y-99925000D01*
X63360714Y-99163095D02*
X64360714Y-99163095D01*
X63408333Y-99163095D02*
X63360714Y-99067857D01*
X63360714Y-98877380D01*
X63408333Y-98782142D01*
X63455952Y-98734523D01*
X63551190Y-98686904D01*
X63836904Y-98686904D01*
X63932142Y-98734523D01*
X63979761Y-98782142D01*
X64027380Y-98877380D01*
X64027380Y-99067857D01*
X63979761Y-99163095D01*
X63360714Y-98258333D02*
X64360714Y-98258333D01*
X63408333Y-98258333D02*
X63360714Y-98163095D01*
X63360714Y-97972619D01*
X63408333Y-97877380D01*
X63455952Y-97829761D01*
X63551190Y-97782142D01*
X63836904Y-97782142D01*
X63932142Y-97829761D01*
X63979761Y-97877380D01*
X64027380Y-97972619D01*
X64027380Y-98163095D01*
X63979761Y-98258333D01*
X63360714Y-97448809D02*
X64027380Y-97210714D01*
X63360714Y-96972619D02*
X64027380Y-97210714D01*
X64265476Y-97305952D01*
X64313095Y-97353571D01*
X64360714Y-97448809D01*
X64027380Y-95829761D02*
X63027380Y-95829761D01*
X63503571Y-95829761D02*
X63503571Y-95258333D01*
X64027380Y-95258333D02*
X63027380Y-95258333D01*
X63979761Y-94401190D02*
X64027380Y-94496428D01*
X64027380Y-94686904D01*
X63979761Y-94782142D01*
X63884523Y-94829761D01*
X63503571Y-94829761D01*
X63408333Y-94782142D01*
X63360714Y-94686904D01*
X63360714Y-94496428D01*
X63408333Y-94401190D01*
X63503571Y-94353571D01*
X63598809Y-94353571D01*
X63694047Y-94829761D01*
X64027380Y-93496428D02*
X63503571Y-93496428D01*
X63408333Y-93544047D01*
X63360714Y-93639285D01*
X63360714Y-93829761D01*
X63408333Y-93925000D01*
X63979761Y-93496428D02*
X64027380Y-93591666D01*
X64027380Y-93829761D01*
X63979761Y-93925000D01*
X63884523Y-93972619D01*
X63789285Y-93972619D01*
X63694047Y-93925000D01*
X63646428Y-93829761D01*
X63646428Y-93591666D01*
X63598809Y-93496428D01*
X64027380Y-92591666D02*
X63027380Y-92591666D01*
X63979761Y-92591666D02*
X64027380Y-92686904D01*
X64027380Y-92877380D01*
X63979761Y-92972619D01*
X63932142Y-93020238D01*
X63836904Y-93067857D01*
X63551190Y-93067857D01*
X63455952Y-93020238D01*
X63408333Y-92972619D01*
X63360714Y-92877380D01*
X63360714Y-92686904D01*
X63408333Y-92591666D01*
X63979761Y-91734523D02*
X64027380Y-91829761D01*
X64027380Y-92020238D01*
X63979761Y-92115476D01*
X63884523Y-92163095D01*
X63503571Y-92163095D01*
X63408333Y-92115476D01*
X63360714Y-92020238D01*
X63360714Y-91829761D01*
X63408333Y-91734523D01*
X63503571Y-91686904D01*
X63598809Y-91686904D01*
X63694047Y-92163095D01*
X64027380Y-91258333D02*
X63360714Y-91258333D01*
X63551190Y-91258333D02*
X63455952Y-91210714D01*
X63408333Y-91163095D01*
X63360714Y-91067857D01*
X63360714Y-90972619D01*
X163813095Y-66925000D02*
X163717857Y-66877380D01*
X163575000Y-66877380D01*
X163432142Y-66925000D01*
X163336904Y-67020238D01*
X163289285Y-67115476D01*
X163241666Y-67305952D01*
X163241666Y-67448809D01*
X163289285Y-67639285D01*
X163336904Y-67734523D01*
X163432142Y-67829761D01*
X163575000Y-67877380D01*
X163670238Y-67877380D01*
X163813095Y-67829761D01*
X163860714Y-67782142D01*
X163860714Y-67448809D01*
X163670238Y-67448809D01*
X164289285Y-67877380D02*
X164289285Y-66877380D01*
X164860714Y-67877380D01*
X164860714Y-66877380D01*
X165336904Y-67877380D02*
X165336904Y-66877380D01*
X165575000Y-66877380D01*
X165717857Y-66925000D01*
X165813095Y-67020238D01*
X165860714Y-67115476D01*
X165908333Y-67305952D01*
X165908333Y-67448809D01*
X165860714Y-67639285D01*
X165813095Y-67734523D01*
X165717857Y-67829761D01*
X165575000Y-67877380D01*
X165336904Y-67877380D01*
X163813095Y-64425000D02*
X163717857Y-64377380D01*
X163575000Y-64377380D01*
X163432142Y-64425000D01*
X163336904Y-64520238D01*
X163289285Y-64615476D01*
X163241666Y-64805952D01*
X163241666Y-64948809D01*
X163289285Y-65139285D01*
X163336904Y-65234523D01*
X163432142Y-65329761D01*
X163575000Y-65377380D01*
X163670238Y-65377380D01*
X163813095Y-65329761D01*
X163860714Y-65282142D01*
X163860714Y-64948809D01*
X163670238Y-64948809D01*
X164289285Y-65377380D02*
X164289285Y-64377380D01*
X164860714Y-65377380D01*
X164860714Y-64377380D01*
X165336904Y-65377380D02*
X165336904Y-64377380D01*
X165575000Y-64377380D01*
X165717857Y-64425000D01*
X165813095Y-64520238D01*
X165860714Y-64615476D01*
X165908333Y-64805952D01*
X165908333Y-64948809D01*
X165860714Y-65139285D01*
X165813095Y-65234523D01*
X165717857Y-65329761D01*
X165575000Y-65377380D01*
X165336904Y-65377380D01*
X164098809Y-70377380D02*
X163527380Y-70377380D01*
X163813095Y-70377380D02*
X163813095Y-69377380D01*
X163717857Y-69520238D01*
X163622618Y-69615476D01*
X163527380Y-69663095D01*
X164479761Y-69472619D02*
X164527380Y-69425000D01*
X164622618Y-69377380D01*
X164860714Y-69377380D01*
X164955952Y-69425000D01*
X165003571Y-69472619D01*
X165051190Y-69567857D01*
X165051190Y-69663095D01*
X165003571Y-69805952D01*
X164432142Y-70377380D01*
X165051190Y-70377380D01*
X165336904Y-69377380D02*
X165670237Y-70377380D01*
X166003571Y-69377380D01*
X165003571Y-61877380D02*
X164527381Y-61877380D01*
X164479762Y-62353571D01*
X164527381Y-62305952D01*
X164622619Y-62258333D01*
X164860714Y-62258333D01*
X164955952Y-62305952D01*
X165003571Y-62353571D01*
X165051190Y-62448809D01*
X165051190Y-62686904D01*
X165003571Y-62782142D01*
X164955952Y-62829761D01*
X164860714Y-62877380D01*
X164622619Y-62877380D01*
X164527381Y-62829761D01*
X164479762Y-62782142D01*
X165336905Y-61877380D02*
X165670238Y-62877380D01*
X166003571Y-61877380D01*
D12*
X137575000Y-62925000D02*
X137575000Y-66425000D01*
X137575000Y-66425000D02*
X138075000Y-64925000D01*
X137575000Y-66425000D02*
X137075000Y-64925000D01*
X140575000Y-66425000D02*
X140075000Y-64925000D01*
X140575000Y-66425000D02*
X141075000Y-64925000D01*
X140575000Y-62925000D02*
X140575000Y-66425000D01*
D13*
X98205000Y-61535000D02*
X98205000Y-58995000D01*
X98205000Y-58995000D02*
X95535000Y-58995000D01*
X95535000Y-61535000D02*
X95535000Y-99765000D01*
X95535000Y-56325000D02*
X95535000Y-58995000D01*
X110905000Y-58995000D02*
X113575000Y-58995000D01*
X110905000Y-58995000D02*
X110905000Y-97095000D01*
X110905000Y-97095000D02*
X113575000Y-97095000D01*
X98205000Y-61535000D02*
X95535000Y-61535000D01*
X98205000Y-61535000D02*
X98205000Y-97095000D01*
X98205000Y-97095000D02*
X95535000Y-97095000D01*
X95535000Y-99765000D02*
X113575000Y-99765000D01*
X113575000Y-99765000D02*
X113575000Y-56325000D01*
X113575000Y-56325000D02*
X95535000Y-56325000D01*
X145579000Y-87742379D02*
X144949000Y-87742379D01*
X145264000Y-87427379D02*
X145264000Y-88057379D01*
X143827000Y-94168620D02*
X143023000Y-94168620D01*
X144058000Y-94128620D02*
X142792000Y-94128620D01*
X144227000Y-94088620D02*
X142623000Y-94088620D01*
X144365000Y-94048620D02*
X142485000Y-94048620D01*
X144484000Y-94008620D02*
X142366000Y-94008620D01*
X144590000Y-93968620D02*
X142260000Y-93968620D01*
X144687000Y-93928620D02*
X142163000Y-93928620D01*
X144775000Y-93888620D02*
X142075000Y-93888620D01*
X144857000Y-93848620D02*
X141993000Y-93848620D01*
X144934000Y-93808620D02*
X141916000Y-93808620D01*
X145006000Y-93768620D02*
X141844000Y-93768620D01*
X145075000Y-93728620D02*
X141775000Y-93728620D01*
X145139000Y-93688620D02*
X141711000Y-93688620D01*
X145201000Y-93648620D02*
X141649000Y-93648620D01*
X145259000Y-93608620D02*
X141591000Y-93608620D01*
X145315000Y-93568620D02*
X141535000Y-93568620D01*
X145369000Y-93528620D02*
X141481000Y-93528620D01*
X145420000Y-93488620D02*
X141430000Y-93488620D01*
X145469000Y-93448620D02*
X141381000Y-93448620D01*
X145517000Y-93408620D02*
X141333000Y-93408620D01*
X145562000Y-93368620D02*
X141288000Y-93368620D01*
X145607000Y-93328620D02*
X141243000Y-93328620D01*
X145649000Y-93288620D02*
X141201000Y-93288620D01*
X145690000Y-93248620D02*
X141160000Y-93248620D01*
X142385000Y-93208620D02*
X141120000Y-93208620D01*
X145730000Y-93208620D02*
X144465000Y-93208620D01*
X142385000Y-93168620D02*
X141082000Y-93168620D01*
X145768000Y-93168620D02*
X144465000Y-93168620D01*
X142385000Y-93128620D02*
X141045000Y-93128620D01*
X145805000Y-93128620D02*
X144465000Y-93128620D01*
X142385000Y-93088620D02*
X141009000Y-93088620D01*
X145841000Y-93088620D02*
X144465000Y-93088620D01*
X142385000Y-93048620D02*
X140975000Y-93048620D01*
X145875000Y-93048620D02*
X144465000Y-93048620D01*
X142385000Y-93008620D02*
X140941000Y-93008620D01*
X145909000Y-93008620D02*
X144465000Y-93008620D01*
X142385000Y-92968620D02*
X140909000Y-92968620D01*
X145941000Y-92968620D02*
X144465000Y-92968620D01*
X142385000Y-92928620D02*
X140877000Y-92928620D01*
X145973000Y-92928620D02*
X144465000Y-92928620D01*
X142385000Y-92888620D02*
X140847000Y-92888620D01*
X146003000Y-92888620D02*
X144465000Y-92888620D01*
X142385000Y-92848620D02*
X140818000Y-92848620D01*
X146032000Y-92848620D02*
X144465000Y-92848620D01*
X142385000Y-92808620D02*
X140789000Y-92808620D01*
X146061000Y-92808620D02*
X144465000Y-92808620D01*
X142385000Y-92768620D02*
X140761000Y-92768620D01*
X146089000Y-92768620D02*
X144465000Y-92768620D01*
X142385000Y-92728620D02*
X140735000Y-92728620D01*
X146115000Y-92728620D02*
X144465000Y-92728620D01*
X142385000Y-92688620D02*
X140709000Y-92688620D01*
X146141000Y-92688620D02*
X144465000Y-92688620D01*
X142385000Y-92648620D02*
X140683000Y-92648620D01*
X146167000Y-92648620D02*
X144465000Y-92648620D01*
X142385000Y-92608620D02*
X140659000Y-92608620D01*
X146191000Y-92608620D02*
X144465000Y-92608620D01*
X142385000Y-92568620D02*
X140635000Y-92568620D01*
X146215000Y-92568620D02*
X144465000Y-92568620D01*
X142385000Y-92528620D02*
X140613000Y-92528620D01*
X146237000Y-92528620D02*
X144465000Y-92528620D01*
X142385000Y-92488620D02*
X140591000Y-92488620D01*
X146259000Y-92488620D02*
X144465000Y-92488620D01*
X142385000Y-92448620D02*
X140569000Y-92448620D01*
X146281000Y-92448620D02*
X144465000Y-92448620D01*
X142385000Y-92408620D02*
X140549000Y-92408620D01*
X146301000Y-92408620D02*
X144465000Y-92408620D01*
X142385000Y-92368620D02*
X140529000Y-92368620D01*
X146321000Y-92368620D02*
X144465000Y-92368620D01*
X142385000Y-92328620D02*
X140509000Y-92328620D01*
X146341000Y-92328620D02*
X144465000Y-92328620D01*
X142385000Y-92288620D02*
X140491000Y-92288620D01*
X146359000Y-92288620D02*
X144465000Y-92288620D01*
X142385000Y-92248620D02*
X140473000Y-92248620D01*
X146377000Y-92248620D02*
X144465000Y-92248620D01*
X142385000Y-92208620D02*
X140455000Y-92208620D01*
X146395000Y-92208620D02*
X144465000Y-92208620D01*
X142385000Y-92168620D02*
X140439000Y-92168620D01*
X146411000Y-92168620D02*
X144465000Y-92168620D01*
X142385000Y-92128620D02*
X140423000Y-92128620D01*
X146427000Y-92128620D02*
X144465000Y-92128620D01*
X142385000Y-92088620D02*
X140407000Y-92088620D01*
X146443000Y-92088620D02*
X144465000Y-92088620D01*
X142385000Y-92048620D02*
X140392000Y-92048620D01*
X146458000Y-92048620D02*
X144465000Y-92048620D01*
X142385000Y-92008620D02*
X140378000Y-92008620D01*
X146472000Y-92008620D02*
X144465000Y-92008620D01*
X142385000Y-91968620D02*
X140364000Y-91968620D01*
X146486000Y-91968620D02*
X144465000Y-91968620D01*
X142385000Y-91928620D02*
X140351000Y-91928620D01*
X146499000Y-91928620D02*
X144465000Y-91928620D01*
X142385000Y-91888620D02*
X140339000Y-91888620D01*
X146511000Y-91888620D02*
X144465000Y-91888620D01*
X142385000Y-91848620D02*
X140327000Y-91848620D01*
X146523000Y-91848620D02*
X144465000Y-91848620D01*
X142385000Y-91808620D02*
X140315000Y-91808620D01*
X146535000Y-91808620D02*
X144465000Y-91808620D01*
X142385000Y-91768620D02*
X140304000Y-91768620D01*
X146546000Y-91768620D02*
X144465000Y-91768620D01*
X142385000Y-91728620D02*
X140294000Y-91728620D01*
X146556000Y-91728620D02*
X144465000Y-91728620D01*
X142385000Y-91688620D02*
X140284000Y-91688620D01*
X146566000Y-91688620D02*
X144465000Y-91688620D01*
X142385000Y-91648620D02*
X140275000Y-91648620D01*
X146575000Y-91648620D02*
X144465000Y-91648620D01*
X142385000Y-91607620D02*
X140266000Y-91607620D01*
X146584000Y-91607620D02*
X144465000Y-91607620D01*
X142385000Y-91567620D02*
X140258000Y-91567620D01*
X146592000Y-91567620D02*
X144465000Y-91567620D01*
X142385000Y-91527620D02*
X140250000Y-91527620D01*
X146600000Y-91527620D02*
X144465000Y-91527620D01*
X142385000Y-91487620D02*
X140243000Y-91487620D01*
X146607000Y-91487620D02*
X144465000Y-91487620D01*
X142385000Y-91447620D02*
X140236000Y-91447620D01*
X146614000Y-91447620D02*
X144465000Y-91447620D01*
X142385000Y-91407620D02*
X140230000Y-91407620D01*
X146620000Y-91407620D02*
X144465000Y-91407620D01*
X142385000Y-91367620D02*
X140224000Y-91367620D01*
X146626000Y-91367620D02*
X144465000Y-91367620D01*
X142385000Y-91327620D02*
X140219000Y-91327620D01*
X146631000Y-91327620D02*
X144465000Y-91327620D01*
X142385000Y-91287620D02*
X140214000Y-91287620D01*
X146636000Y-91287620D02*
X144465000Y-91287620D01*
X142385000Y-91247620D02*
X140210000Y-91247620D01*
X146640000Y-91247620D02*
X144465000Y-91247620D01*
X142385000Y-91207620D02*
X140207000Y-91207620D01*
X146643000Y-91207620D02*
X144465000Y-91207620D01*
X142385000Y-91167620D02*
X140203000Y-91167620D01*
X146647000Y-91167620D02*
X144465000Y-91167620D01*
X146649000Y-91127620D02*
X140201000Y-91127620D01*
X146652000Y-91087620D02*
X140198000Y-91087620D01*
X146653000Y-91047620D02*
X140197000Y-91047620D01*
X146655000Y-91007620D02*
X140195000Y-91007620D01*
X146655000Y-90967620D02*
X140195000Y-90967620D01*
X146655000Y-90927620D02*
X140195000Y-90927620D01*
X146695000Y-90927620D02*
G75*
G03*
X146695000Y-90927620I-3270000J0D01*
G01*
X151475000Y-103465000D02*
X151475000Y-100725000D01*
X156715000Y-103465000D02*
X156715000Y-100725000D01*
X156715000Y-100725000D02*
X151475000Y-100725000D01*
X156715000Y-103465000D02*
X151475000Y-103465000D01*
X146695000Y-100195000D02*
G75*
G03*
X146695000Y-100195000I-3270000J0D01*
G01*
X146655000Y-100195000D02*
X140195000Y-100195000D01*
X146655000Y-100235000D02*
X140195000Y-100235000D01*
X146655000Y-100275000D02*
X140195000Y-100275000D01*
X146653000Y-100315000D02*
X140197000Y-100315000D01*
X146652000Y-100355000D02*
X140198000Y-100355000D01*
X146649000Y-100395000D02*
X140201000Y-100395000D01*
X146647000Y-100435000D02*
X144465000Y-100435000D01*
X142385000Y-100435000D02*
X140203000Y-100435000D01*
X146643000Y-100475000D02*
X144465000Y-100475000D01*
X142385000Y-100475000D02*
X140207000Y-100475000D01*
X146640000Y-100515000D02*
X144465000Y-100515000D01*
X142385000Y-100515000D02*
X140210000Y-100515000D01*
X146636000Y-100555000D02*
X144465000Y-100555000D01*
X142385000Y-100555000D02*
X140214000Y-100555000D01*
X146631000Y-100595000D02*
X144465000Y-100595000D01*
X142385000Y-100595000D02*
X140219000Y-100595000D01*
X146626000Y-100635000D02*
X144465000Y-100635000D01*
X142385000Y-100635000D02*
X140224000Y-100635000D01*
X146620000Y-100675000D02*
X144465000Y-100675000D01*
X142385000Y-100675000D02*
X140230000Y-100675000D01*
X146614000Y-100715000D02*
X144465000Y-100715000D01*
X142385000Y-100715000D02*
X140236000Y-100715000D01*
X146607000Y-100755000D02*
X144465000Y-100755000D01*
X142385000Y-100755000D02*
X140243000Y-100755000D01*
X146600000Y-100795000D02*
X144465000Y-100795000D01*
X142385000Y-100795000D02*
X140250000Y-100795000D01*
X146592000Y-100835000D02*
X144465000Y-100835000D01*
X142385000Y-100835000D02*
X140258000Y-100835000D01*
X146584000Y-100875000D02*
X144465000Y-100875000D01*
X142385000Y-100875000D02*
X140266000Y-100875000D01*
X146575000Y-100916000D02*
X144465000Y-100916000D01*
X142385000Y-100916000D02*
X140275000Y-100916000D01*
X146566000Y-100956000D02*
X144465000Y-100956000D01*
X142385000Y-100956000D02*
X140284000Y-100956000D01*
X146556000Y-100996000D02*
X144465000Y-100996000D01*
X142385000Y-100996000D02*
X140294000Y-100996000D01*
X146546000Y-101036000D02*
X144465000Y-101036000D01*
X142385000Y-101036000D02*
X140304000Y-101036000D01*
X146535000Y-101076000D02*
X144465000Y-101076000D01*
X142385000Y-101076000D02*
X140315000Y-101076000D01*
X146523000Y-101116000D02*
X144465000Y-101116000D01*
X142385000Y-101116000D02*
X140327000Y-101116000D01*
X146511000Y-101156000D02*
X144465000Y-101156000D01*
X142385000Y-101156000D02*
X140339000Y-101156000D01*
X146499000Y-101196000D02*
X144465000Y-101196000D01*
X142385000Y-101196000D02*
X140351000Y-101196000D01*
X146486000Y-101236000D02*
X144465000Y-101236000D01*
X142385000Y-101236000D02*
X140364000Y-101236000D01*
X146472000Y-101276000D02*
X144465000Y-101276000D01*
X142385000Y-101276000D02*
X140378000Y-101276000D01*
X146458000Y-101316000D02*
X144465000Y-101316000D01*
X142385000Y-101316000D02*
X140392000Y-101316000D01*
X146443000Y-101356000D02*
X144465000Y-101356000D01*
X142385000Y-101356000D02*
X140407000Y-101356000D01*
X146427000Y-101396000D02*
X144465000Y-101396000D01*
X142385000Y-101396000D02*
X140423000Y-101396000D01*
X146411000Y-101436000D02*
X144465000Y-101436000D01*
X142385000Y-101436000D02*
X140439000Y-101436000D01*
X146395000Y-101476000D02*
X144465000Y-101476000D01*
X142385000Y-101476000D02*
X140455000Y-101476000D01*
X146377000Y-101516000D02*
X144465000Y-101516000D01*
X142385000Y-101516000D02*
X140473000Y-101516000D01*
X146359000Y-101556000D02*
X144465000Y-101556000D01*
X142385000Y-101556000D02*
X140491000Y-101556000D01*
X146341000Y-101596000D02*
X144465000Y-101596000D01*
X142385000Y-101596000D02*
X140509000Y-101596000D01*
X146321000Y-101636000D02*
X144465000Y-101636000D01*
X142385000Y-101636000D02*
X140529000Y-101636000D01*
X146301000Y-101676000D02*
X144465000Y-101676000D01*
X142385000Y-101676000D02*
X140549000Y-101676000D01*
X146281000Y-101716000D02*
X144465000Y-101716000D01*
X142385000Y-101716000D02*
X140569000Y-101716000D01*
X146259000Y-101756000D02*
X144465000Y-101756000D01*
X142385000Y-101756000D02*
X140591000Y-101756000D01*
X146237000Y-101796000D02*
X144465000Y-101796000D01*
X142385000Y-101796000D02*
X140613000Y-101796000D01*
X146215000Y-101836000D02*
X144465000Y-101836000D01*
X142385000Y-101836000D02*
X140635000Y-101836000D01*
X146191000Y-101876000D02*
X144465000Y-101876000D01*
X142385000Y-101876000D02*
X140659000Y-101876000D01*
X146167000Y-101916000D02*
X144465000Y-101916000D01*
X142385000Y-101916000D02*
X140683000Y-101916000D01*
X146141000Y-101956000D02*
X144465000Y-101956000D01*
X142385000Y-101956000D02*
X140709000Y-101956000D01*
X146115000Y-101996000D02*
X144465000Y-101996000D01*
X142385000Y-101996000D02*
X140735000Y-101996000D01*
X146089000Y-102036000D02*
X144465000Y-102036000D01*
X142385000Y-102036000D02*
X140761000Y-102036000D01*
X146061000Y-102076000D02*
X144465000Y-102076000D01*
X142385000Y-102076000D02*
X140789000Y-102076000D01*
X146032000Y-102116000D02*
X144465000Y-102116000D01*
X142385000Y-102116000D02*
X140818000Y-102116000D01*
X146003000Y-102156000D02*
X144465000Y-102156000D01*
X142385000Y-102156000D02*
X140847000Y-102156000D01*
X145973000Y-102196000D02*
X144465000Y-102196000D01*
X142385000Y-102196000D02*
X140877000Y-102196000D01*
X145941000Y-102236000D02*
X144465000Y-102236000D01*
X142385000Y-102236000D02*
X140909000Y-102236000D01*
X145909000Y-102276000D02*
X144465000Y-102276000D01*
X142385000Y-102276000D02*
X140941000Y-102276000D01*
X145875000Y-102316000D02*
X144465000Y-102316000D01*
X142385000Y-102316000D02*
X140975000Y-102316000D01*
X145841000Y-102356000D02*
X144465000Y-102356000D01*
X142385000Y-102356000D02*
X141009000Y-102356000D01*
X145805000Y-102396000D02*
X144465000Y-102396000D01*
X142385000Y-102396000D02*
X141045000Y-102396000D01*
X145768000Y-102436000D02*
X144465000Y-102436000D01*
X142385000Y-102436000D02*
X141082000Y-102436000D01*
X145730000Y-102476000D02*
X144465000Y-102476000D01*
X142385000Y-102476000D02*
X141120000Y-102476000D01*
X145690000Y-102516000D02*
X141160000Y-102516000D01*
X145649000Y-102556000D02*
X141201000Y-102556000D01*
X145607000Y-102596000D02*
X141243000Y-102596000D01*
X145562000Y-102636000D02*
X141288000Y-102636000D01*
X145517000Y-102676000D02*
X141333000Y-102676000D01*
X145469000Y-102716000D02*
X141381000Y-102716000D01*
X145420000Y-102756000D02*
X141430000Y-102756000D01*
X145369000Y-102796000D02*
X141481000Y-102796000D01*
X145315000Y-102836000D02*
X141535000Y-102836000D01*
X145259000Y-102876000D02*
X141591000Y-102876000D01*
X145201000Y-102916000D02*
X141649000Y-102916000D01*
X145139000Y-102956000D02*
X141711000Y-102956000D01*
X145075000Y-102996000D02*
X141775000Y-102996000D01*
X145006000Y-103036000D02*
X141844000Y-103036000D01*
X144934000Y-103076000D02*
X141916000Y-103076000D01*
X144857000Y-103116000D02*
X141993000Y-103116000D01*
X144775000Y-103156000D02*
X142075000Y-103156000D01*
X144687000Y-103196000D02*
X142163000Y-103196000D01*
X144590000Y-103236000D02*
X142260000Y-103236000D01*
X144484000Y-103276000D02*
X142366000Y-103276000D01*
X144365000Y-103316000D02*
X142485000Y-103316000D01*
X144227000Y-103356000D02*
X142623000Y-103356000D01*
X144058000Y-103396000D02*
X142792000Y-103396000D01*
X143827000Y-103436000D02*
X143023000Y-103436000D01*
X145264000Y-96694759D02*
X145264000Y-97324759D01*
X145579000Y-97009759D02*
X144949000Y-97009759D01*
X156715000Y-80995000D02*
X151475000Y-80995000D01*
X156715000Y-78255000D02*
X151475000Y-78255000D01*
X156715000Y-80995000D02*
X156715000Y-78255000D01*
X151475000Y-80995000D02*
X151475000Y-78255000D01*
X146695000Y-81660241D02*
G75*
G03*
X146695000Y-81660241I-3270000J0D01*
G01*
X146655000Y-81660241D02*
X140195000Y-81660241D01*
X146655000Y-81700241D02*
X140195000Y-81700241D01*
X146655000Y-81740241D02*
X140195000Y-81740241D01*
X146653000Y-81780241D02*
X140197000Y-81780241D01*
X146652000Y-81820241D02*
X140198000Y-81820241D01*
X146649000Y-81860241D02*
X140201000Y-81860241D01*
X146647000Y-81900241D02*
X144465000Y-81900241D01*
X142385000Y-81900241D02*
X140203000Y-81900241D01*
X146643000Y-81940241D02*
X144465000Y-81940241D01*
X142385000Y-81940241D02*
X140207000Y-81940241D01*
X146640000Y-81980241D02*
X144465000Y-81980241D01*
X142385000Y-81980241D02*
X140210000Y-81980241D01*
X146636000Y-82020241D02*
X144465000Y-82020241D01*
X142385000Y-82020241D02*
X140214000Y-82020241D01*
X146631000Y-82060241D02*
X144465000Y-82060241D01*
X142385000Y-82060241D02*
X140219000Y-82060241D01*
X146626000Y-82100241D02*
X144465000Y-82100241D01*
X142385000Y-82100241D02*
X140224000Y-82100241D01*
X146620000Y-82140241D02*
X144465000Y-82140241D01*
X142385000Y-82140241D02*
X140230000Y-82140241D01*
X146614000Y-82180241D02*
X144465000Y-82180241D01*
X142385000Y-82180241D02*
X140236000Y-82180241D01*
X146607000Y-82220241D02*
X144465000Y-82220241D01*
X142385000Y-82220241D02*
X140243000Y-82220241D01*
X146600000Y-82260241D02*
X144465000Y-82260241D01*
X142385000Y-82260241D02*
X140250000Y-82260241D01*
X146592000Y-82300241D02*
X144465000Y-82300241D01*
X142385000Y-82300241D02*
X140258000Y-82300241D01*
X146584000Y-82340241D02*
X144465000Y-82340241D01*
X142385000Y-82340241D02*
X140266000Y-82340241D01*
X146575000Y-82381241D02*
X144465000Y-82381241D01*
X142385000Y-82381241D02*
X140275000Y-82381241D01*
X146566000Y-82421241D02*
X144465000Y-82421241D01*
X142385000Y-82421241D02*
X140284000Y-82421241D01*
X146556000Y-82461241D02*
X144465000Y-82461241D01*
X142385000Y-82461241D02*
X140294000Y-82461241D01*
X146546000Y-82501241D02*
X144465000Y-82501241D01*
X142385000Y-82501241D02*
X140304000Y-82501241D01*
X146535000Y-82541241D02*
X144465000Y-82541241D01*
X142385000Y-82541241D02*
X140315000Y-82541241D01*
X146523000Y-82581241D02*
X144465000Y-82581241D01*
X142385000Y-82581241D02*
X140327000Y-82581241D01*
X146511000Y-82621241D02*
X144465000Y-82621241D01*
X142385000Y-82621241D02*
X140339000Y-82621241D01*
X146499000Y-82661241D02*
X144465000Y-82661241D01*
X142385000Y-82661241D02*
X140351000Y-82661241D01*
X146486000Y-82701241D02*
X144465000Y-82701241D01*
X142385000Y-82701241D02*
X140364000Y-82701241D01*
X146472000Y-82741241D02*
X144465000Y-82741241D01*
X142385000Y-82741241D02*
X140378000Y-82741241D01*
X146458000Y-82781241D02*
X144465000Y-82781241D01*
X142385000Y-82781241D02*
X140392000Y-82781241D01*
X146443000Y-82821241D02*
X144465000Y-82821241D01*
X142385000Y-82821241D02*
X140407000Y-82821241D01*
X146427000Y-82861241D02*
X144465000Y-82861241D01*
X142385000Y-82861241D02*
X140423000Y-82861241D01*
X146411000Y-82901241D02*
X144465000Y-82901241D01*
X142385000Y-82901241D02*
X140439000Y-82901241D01*
X146395000Y-82941241D02*
X144465000Y-82941241D01*
X142385000Y-82941241D02*
X140455000Y-82941241D01*
X146377000Y-82981241D02*
X144465000Y-82981241D01*
X142385000Y-82981241D02*
X140473000Y-82981241D01*
X146359000Y-83021241D02*
X144465000Y-83021241D01*
X142385000Y-83021241D02*
X140491000Y-83021241D01*
X146341000Y-83061241D02*
X144465000Y-83061241D01*
X142385000Y-83061241D02*
X140509000Y-83061241D01*
X146321000Y-83101241D02*
X144465000Y-83101241D01*
X142385000Y-83101241D02*
X140529000Y-83101241D01*
X146301000Y-83141241D02*
X144465000Y-83141241D01*
X142385000Y-83141241D02*
X140549000Y-83141241D01*
X146281000Y-83181241D02*
X144465000Y-83181241D01*
X142385000Y-83181241D02*
X140569000Y-83181241D01*
X146259000Y-83221241D02*
X144465000Y-83221241D01*
X142385000Y-83221241D02*
X140591000Y-83221241D01*
X146237000Y-83261241D02*
X144465000Y-83261241D01*
X142385000Y-83261241D02*
X140613000Y-83261241D01*
X146215000Y-83301241D02*
X144465000Y-83301241D01*
X142385000Y-83301241D02*
X140635000Y-83301241D01*
X146191000Y-83341241D02*
X144465000Y-83341241D01*
X142385000Y-83341241D02*
X140659000Y-83341241D01*
X146167000Y-83381241D02*
X144465000Y-83381241D01*
X142385000Y-83381241D02*
X140683000Y-83381241D01*
X146141000Y-83421241D02*
X144465000Y-83421241D01*
X142385000Y-83421241D02*
X140709000Y-83421241D01*
X146115000Y-83461241D02*
X144465000Y-83461241D01*
X142385000Y-83461241D02*
X140735000Y-83461241D01*
X146089000Y-83501241D02*
X144465000Y-83501241D01*
X142385000Y-83501241D02*
X140761000Y-83501241D01*
X146061000Y-83541241D02*
X144465000Y-83541241D01*
X142385000Y-83541241D02*
X140789000Y-83541241D01*
X146032000Y-83581241D02*
X144465000Y-83581241D01*
X142385000Y-83581241D02*
X140818000Y-83581241D01*
X146003000Y-83621241D02*
X144465000Y-83621241D01*
X142385000Y-83621241D02*
X140847000Y-83621241D01*
X145973000Y-83661241D02*
X144465000Y-83661241D01*
X142385000Y-83661241D02*
X140877000Y-83661241D01*
X145941000Y-83701241D02*
X144465000Y-83701241D01*
X142385000Y-83701241D02*
X140909000Y-83701241D01*
X145909000Y-83741241D02*
X144465000Y-83741241D01*
X142385000Y-83741241D02*
X140941000Y-83741241D01*
X145875000Y-83781241D02*
X144465000Y-83781241D01*
X142385000Y-83781241D02*
X140975000Y-83781241D01*
X145841000Y-83821241D02*
X144465000Y-83821241D01*
X142385000Y-83821241D02*
X141009000Y-83821241D01*
X145805000Y-83861241D02*
X144465000Y-83861241D01*
X142385000Y-83861241D02*
X141045000Y-83861241D01*
X145768000Y-83901241D02*
X144465000Y-83901241D01*
X142385000Y-83901241D02*
X141082000Y-83901241D01*
X145730000Y-83941241D02*
X144465000Y-83941241D01*
X142385000Y-83941241D02*
X141120000Y-83941241D01*
X145690000Y-83981241D02*
X141160000Y-83981241D01*
X145649000Y-84021241D02*
X141201000Y-84021241D01*
X145607000Y-84061241D02*
X141243000Y-84061241D01*
X145562000Y-84101241D02*
X141288000Y-84101241D01*
X145517000Y-84141241D02*
X141333000Y-84141241D01*
X145469000Y-84181241D02*
X141381000Y-84181241D01*
X145420000Y-84221241D02*
X141430000Y-84221241D01*
X145369000Y-84261241D02*
X141481000Y-84261241D01*
X145315000Y-84301241D02*
X141535000Y-84301241D01*
X145259000Y-84341241D02*
X141591000Y-84341241D01*
X145201000Y-84381241D02*
X141649000Y-84381241D01*
X145139000Y-84421241D02*
X141711000Y-84421241D01*
X145075000Y-84461241D02*
X141775000Y-84461241D01*
X145006000Y-84501241D02*
X141844000Y-84501241D01*
X144934000Y-84541241D02*
X141916000Y-84541241D01*
X144857000Y-84581241D02*
X141993000Y-84581241D01*
X144775000Y-84621241D02*
X142075000Y-84621241D01*
X144687000Y-84661241D02*
X142163000Y-84661241D01*
X144590000Y-84701241D02*
X142260000Y-84701241D01*
X144484000Y-84741241D02*
X142366000Y-84741241D01*
X144365000Y-84781241D02*
X142485000Y-84781241D01*
X144227000Y-84821241D02*
X142623000Y-84821241D01*
X144058000Y-84861241D02*
X142792000Y-84861241D01*
X143827000Y-84901241D02*
X143023000Y-84901241D01*
X145264000Y-78160000D02*
X145264000Y-78790000D01*
X145579000Y-78475000D02*
X144949000Y-78475000D01*
X132905000Y-82315000D02*
G75*
G03*
X132905000Y-82315000I-2500000J0D01*
G01*
X131950000Y-79755000D02*
X128860000Y-79755000D01*
X130404538Y-85305000D02*
G75*
G03*
X131949830Y-79755000I462J2990000D01*
G01*
X130405462Y-85305000D02*
G75*
G02*
X128860170Y-79755000I-462J2990000D01*
G01*
X72075000Y-129915000D02*
X58075000Y-129915000D01*
X72075000Y-116915000D02*
X72075000Y-129915000D01*
X72075000Y-116915000D02*
X58075000Y-116915000D01*
X58075000Y-129915000D02*
X58075000Y-116915000D01*
X65575000Y-129915000D02*
X65575000Y-116915000D01*
X84935000Y-115795000D02*
X84935000Y-131155000D01*
X84935000Y-131155000D02*
X87595000Y-131155000D01*
X87595000Y-131155000D02*
X87595000Y-115795000D01*
X87595000Y-115795000D02*
X84935000Y-115795000D01*
X87595000Y-116745000D02*
X93595000Y-116745000D01*
X93595000Y-116745000D02*
X93595000Y-117505000D01*
X93595000Y-117505000D02*
X87595000Y-117505000D01*
X87595000Y-116805000D02*
X93595000Y-116805000D01*
X87595000Y-116925000D02*
X93595000Y-116925000D01*
X87595000Y-117045000D02*
X93595000Y-117045000D01*
X87595000Y-117165000D02*
X93595000Y-117165000D01*
X87595000Y-117285000D02*
X93595000Y-117285000D01*
X87595000Y-117405000D02*
X93595000Y-117405000D01*
X84605000Y-116745000D02*
X84935000Y-116745000D01*
X84605000Y-117505000D02*
X84935000Y-117505000D01*
X84935000Y-118395000D02*
X87595000Y-118395000D01*
X87595000Y-119285000D02*
X93595000Y-119285000D01*
X93595000Y-119285000D02*
X93595000Y-120045000D01*
X93595000Y-120045000D02*
X87595000Y-120045000D01*
X84537929Y-119285000D02*
X84935000Y-119285000D01*
X84537929Y-120045000D02*
X84935000Y-120045000D01*
X84935000Y-120935000D02*
X87595000Y-120935000D01*
X87595000Y-121825000D02*
X93595000Y-121825000D01*
X93595000Y-121825000D02*
X93595000Y-122585000D01*
X93595000Y-122585000D02*
X87595000Y-122585000D01*
X84537929Y-121825000D02*
X84935000Y-121825000D01*
X84537929Y-122585000D02*
X84935000Y-122585000D01*
X84935000Y-123475000D02*
X87595000Y-123475000D01*
X87595000Y-124365000D02*
X93595000Y-124365000D01*
X93595000Y-124365000D02*
X93595000Y-125125000D01*
X93595000Y-125125000D02*
X87595000Y-125125000D01*
X84537929Y-124365000D02*
X84935000Y-124365000D01*
X84537929Y-125125000D02*
X84935000Y-125125000D01*
X84935000Y-126015000D02*
X87595000Y-126015000D01*
X87595000Y-126905000D02*
X93595000Y-126905000D01*
X93595000Y-126905000D02*
X93595000Y-127665000D01*
X93595000Y-127665000D02*
X87595000Y-127665000D01*
X84537929Y-126905000D02*
X84935000Y-126905000D01*
X84537929Y-127665000D02*
X84935000Y-127665000D01*
X84935000Y-128555000D02*
X87595000Y-128555000D01*
X87595000Y-129445000D02*
X93595000Y-129445000D01*
X93595000Y-129445000D02*
X93595000Y-130205000D01*
X93595000Y-130205000D02*
X87595000Y-130205000D01*
X84537929Y-129445000D02*
X84935000Y-129445000D01*
X84537929Y-130205000D02*
X84935000Y-130205000D01*
X82225000Y-117125000D02*
X82225000Y-115855000D01*
X82225000Y-115855000D02*
X83495000Y-115855000D01*
X65505000Y-107545000D02*
X70705000Y-107545000D01*
X65505000Y-66845000D02*
X65505000Y-107545000D01*
X70705000Y-64245000D02*
X70705000Y-107545000D01*
X65505000Y-66845000D02*
X68105000Y-66845000D01*
X68105000Y-66845000D02*
X68105000Y-64245000D01*
X68105000Y-64245000D02*
X70705000Y-64245000D01*
X65505000Y-65575000D02*
X65505000Y-64245000D01*
X65505000Y-64245000D02*
X66835000Y-64245000D01*
X173045000Y-59845000D02*
X173045000Y-72845000D01*
X180545000Y-59845000D02*
X180545000Y-72845000D01*
X166545000Y-72845000D02*
X180545000Y-72845000D01*
X166545000Y-72845000D02*
X166545000Y-59845000D01*
X166545000Y-59845000D02*
X180545000Y-59845000D01*
X105452064Y-53735000D02*
X103997936Y-53735000D01*
X105452064Y-51915000D02*
X103997936Y-51915000D01*
X131315000Y-92072064D02*
X131315000Y-90617936D01*
X129495000Y-92072064D02*
X129495000Y-90617936D01*
D14*
X134455000Y-59925000D02*
X134455000Y-69725000D01*
X143655000Y-69725000D02*
X143655000Y-59925000D01*
X143655000Y-59925000D02*
X134455000Y-59925000D01*
X134455000Y-69725000D02*
X143655000Y-69725000D01*
D10*
X133755000Y-67325000D02*
G75*
G03*
X133755000Y-67325000I-100000J0D01*
G01*
D13*
X156423000Y-85610000D02*
X156423000Y-96110000D01*
X151482000Y-85610000D02*
X151482000Y-96110000D01*
X156423000Y-85610000D02*
X151482000Y-85610000D01*
X156423000Y-96110000D02*
X151482000Y-96110000D01*
X153663000Y-85610000D02*
X153663000Y-87217000D01*
X153663000Y-89423000D02*
X153663000Y-89758000D01*
X153663000Y-91963000D02*
X153663000Y-92298000D01*
X153663000Y-94503000D02*
X153663000Y-96110000D01*
X156423000Y-89010000D02*
X154405000Y-89010000D01*
X156423000Y-92711000D02*
X154405000Y-92711000D01*
X165495000Y-80955000D02*
X165495000Y-79625000D01*
X166825000Y-80955000D02*
X165495000Y-80955000D01*
X168095000Y-80955000D02*
X168095000Y-78295000D01*
X168095000Y-78295000D02*
X170695000Y-78295000D01*
X168095000Y-80955000D02*
X170695000Y-80955000D01*
X170695000Y-80955000D02*
X170695000Y-78295000D01*
X85825000Y-98125000D02*
X85825000Y-99525000D01*
X85125000Y-100225000D02*
X84525000Y-100225000D01*
X83825000Y-99525000D02*
X83825000Y-98125000D01*
X84525000Y-97425000D02*
X85125000Y-97425000D01*
X85825000Y-99525000D02*
G75*
G02*
X85125000Y-100225000I-700000J0D01*
G01*
X84525000Y-100225000D02*
G75*
G02*
X83825000Y-99525000I0J700000D01*
G01*
X83825000Y-98125000D02*
G75*
G02*
X84525000Y-97425000I700000J0D01*
G01*
X85125000Y-97425000D02*
G75*
G02*
X85825000Y-98125000I0J-700000D01*
G01*
X151045000Y-70225000D02*
X156245000Y-70225000D01*
X151045000Y-62545000D02*
X151045000Y-70225000D01*
X156245000Y-59945000D02*
X156245000Y-70225000D01*
X151045000Y-62545000D02*
X153645000Y-62545000D01*
X153645000Y-62545000D02*
X153645000Y-59945000D01*
X153645000Y-59945000D02*
X156245000Y-59945000D01*
X151045000Y-61275000D02*
X151045000Y-59945000D01*
X151045000Y-59945000D02*
X152375000Y-59945000D01*
D11*
X60115476Y-47677380D02*
X60115476Y-46677380D01*
X60448809Y-47391666D01*
X60782142Y-46677380D01*
X60782142Y-47677380D01*
X61258333Y-47677380D02*
X61258333Y-46677380D01*
X61829761Y-47677380D02*
X61401190Y-47105952D01*
X61829761Y-46677380D02*
X61258333Y-47248809D01*
X62782142Y-47677380D02*
X62210714Y-47677380D01*
X62496428Y-47677380D02*
X62496428Y-46677380D01*
X62401190Y-46820238D01*
X62305952Y-46915476D01*
X62210714Y-46963095D01*
X177476176Y-47677380D02*
X177476176Y-46677380D01*
X177809509Y-47391666D01*
X178142842Y-46677380D01*
X178142842Y-47677380D01*
X178619033Y-47677380D02*
X178619033Y-46677380D01*
X179190461Y-47677380D02*
X178761890Y-47105952D01*
X179190461Y-46677380D02*
X178619033Y-47248809D01*
X179571414Y-46772619D02*
X179619033Y-46725000D01*
X179714271Y-46677380D01*
X179952366Y-46677380D01*
X180047604Y-46725000D01*
X180095223Y-46772619D01*
X180142842Y-46867857D01*
X180142842Y-46963095D01*
X180095223Y-47105952D01*
X179523795Y-47677380D01*
X180142842Y-47677380D01*
X60115476Y-134827380D02*
X60115476Y-133827380D01*
X60448809Y-134541666D01*
X60782142Y-133827380D01*
X60782142Y-134827380D01*
X61258333Y-134827380D02*
X61258333Y-133827380D01*
X61829761Y-134827380D02*
X61401190Y-134255952D01*
X61829761Y-133827380D02*
X61258333Y-134398809D01*
X62163095Y-133827380D02*
X62782142Y-133827380D01*
X62448809Y-134208333D01*
X62591666Y-134208333D01*
X62686904Y-134255952D01*
X62734523Y-134303571D01*
X62782142Y-134398809D01*
X62782142Y-134636904D01*
X62734523Y-134732142D01*
X62686904Y-134779761D01*
X62591666Y-134827380D01*
X62305952Y-134827380D01*
X62210714Y-134779761D01*
X62163095Y-134732142D01*
X177476176Y-134827380D02*
X177476176Y-133827380D01*
X177809509Y-134541666D01*
X178142842Y-133827380D01*
X178142842Y-134827380D01*
X178619033Y-134827380D02*
X178619033Y-133827380D01*
X179190461Y-134827380D02*
X178761890Y-134255952D01*
X179190461Y-133827380D02*
X178619033Y-134398809D01*
X180047604Y-134160714D02*
X180047604Y-134827380D01*
X179809509Y-133779761D02*
X179571414Y-134494047D01*
X180190461Y-134494047D01*
X103767857Y-55391666D02*
X104244047Y-55391666D01*
X103672619Y-55677380D02*
X104005952Y-54677380D01*
X104339285Y-55677380D01*
X104672619Y-55677380D02*
X104672619Y-55010714D01*
X104672619Y-55201190D02*
X104720238Y-55105952D01*
X104767857Y-55058333D01*
X104863095Y-55010714D01*
X104958333Y-55010714D01*
X105720238Y-55677380D02*
X105720238Y-54677380D01*
X105720238Y-55629761D02*
X105625000Y-55677380D01*
X105434523Y-55677380D01*
X105339285Y-55629761D01*
X105291666Y-55582142D01*
X105244047Y-55486904D01*
X105244047Y-55201190D01*
X105291666Y-55105952D01*
X105339285Y-55058333D01*
X105434523Y-55010714D01*
X105625000Y-55010714D01*
X105720238Y-55058333D01*
X106625000Y-55010714D02*
X106625000Y-55677380D01*
X106196428Y-55010714D02*
X106196428Y-55534523D01*
X106244047Y-55629761D01*
X106339285Y-55677380D01*
X106482142Y-55677380D01*
X106577380Y-55629761D01*
X106625000Y-55582142D01*
X107101190Y-55677380D02*
X107101190Y-55010714D01*
X107101190Y-54677380D02*
X107053571Y-54725000D01*
X107101190Y-54772619D01*
X107148809Y-54725000D01*
X107101190Y-54677380D01*
X107101190Y-54772619D01*
X107577380Y-55010714D02*
X107577380Y-55677380D01*
X107577380Y-55105952D02*
X107625000Y-55058333D01*
X107720238Y-55010714D01*
X107863095Y-55010714D01*
X107958333Y-55058333D01*
X108005952Y-55153571D01*
X108005952Y-55677380D01*
X108625000Y-55677380D02*
X108529761Y-55629761D01*
X108482142Y-55582142D01*
X108434523Y-55486904D01*
X108434523Y-55201190D01*
X108482142Y-55105952D01*
X108529761Y-55058333D01*
X108625000Y-55010714D01*
X108767857Y-55010714D01*
X108863095Y-55058333D01*
X108910714Y-55105952D01*
X108958333Y-55201190D01*
X108958333Y-55486904D01*
X108910714Y-55582142D01*
X108863095Y-55629761D01*
X108767857Y-55677380D01*
X108625000Y-55677380D01*
X110148809Y-55677380D02*
X110148809Y-54677380D01*
X110720238Y-55677380D01*
X110720238Y-54677380D01*
X111625000Y-55677380D02*
X111625000Y-55153571D01*
X111577380Y-55058333D01*
X111482142Y-55010714D01*
X111291666Y-55010714D01*
X111196428Y-55058333D01*
X111625000Y-55629761D02*
X111529761Y-55677380D01*
X111291666Y-55677380D01*
X111196428Y-55629761D01*
X111148809Y-55534523D01*
X111148809Y-55439285D01*
X111196428Y-55344047D01*
X111291666Y-55296428D01*
X111529761Y-55296428D01*
X111625000Y-55248809D01*
X112101190Y-55010714D02*
X112101190Y-55677380D01*
X112101190Y-55105952D02*
X112148809Y-55058333D01*
X112244047Y-55010714D01*
X112386904Y-55010714D01*
X112482142Y-55058333D01*
X112529761Y-55153571D01*
X112529761Y-55677380D01*
X113148809Y-55677380D02*
X113053571Y-55629761D01*
X113005952Y-55582142D01*
X112958333Y-55486904D01*
X112958333Y-55201190D01*
X113005952Y-55105952D01*
X113053571Y-55058333D01*
X113148809Y-55010714D01*
X113291666Y-55010714D01*
X113386904Y-55058333D01*
X113434523Y-55105952D01*
X113482142Y-55201190D01*
X113482142Y-55486904D01*
X113434523Y-55582142D01*
X113386904Y-55629761D01*
X113291666Y-55677380D01*
X113148809Y-55677380D01*
X146808333Y-94082142D02*
X146760714Y-94129761D01*
X146617857Y-94177380D01*
X146522619Y-94177380D01*
X146379761Y-94129761D01*
X146284523Y-94034523D01*
X146236904Y-93939285D01*
X146189285Y-93748809D01*
X146189285Y-93605952D01*
X146236904Y-93415476D01*
X146284523Y-93320238D01*
X146379761Y-93225000D01*
X146522619Y-93177380D01*
X146617857Y-93177380D01*
X146760714Y-93225000D01*
X146808333Y-93272619D01*
X147760714Y-94177380D02*
X147189285Y-94177380D01*
X147475000Y-94177380D02*
X147475000Y-93177380D01*
X147379761Y-93320238D01*
X147284523Y-93415476D01*
X147189285Y-93463095D01*
X155908333Y-99782142D02*
X155860714Y-99829761D01*
X155717857Y-99877380D01*
X155622619Y-99877380D01*
X155479761Y-99829761D01*
X155384523Y-99734523D01*
X155336904Y-99639285D01*
X155289285Y-99448809D01*
X155289285Y-99305952D01*
X155336904Y-99115476D01*
X155384523Y-99020238D01*
X155479761Y-98925000D01*
X155622619Y-98877380D01*
X155717857Y-98877380D01*
X155860714Y-98925000D01*
X155908333Y-98972619D01*
X156289285Y-98972619D02*
X156336904Y-98925000D01*
X156432142Y-98877380D01*
X156670238Y-98877380D01*
X156765476Y-98925000D01*
X156813095Y-98972619D01*
X156860714Y-99067857D01*
X156860714Y-99163095D01*
X156813095Y-99305952D01*
X156241666Y-99877380D01*
X156860714Y-99877380D01*
X146908333Y-103532142D02*
X146860714Y-103579761D01*
X146717857Y-103627380D01*
X146622619Y-103627380D01*
X146479761Y-103579761D01*
X146384523Y-103484523D01*
X146336904Y-103389285D01*
X146289285Y-103198809D01*
X146289285Y-103055952D01*
X146336904Y-102865476D01*
X146384523Y-102770238D01*
X146479761Y-102675000D01*
X146622619Y-102627380D01*
X146717857Y-102627380D01*
X146860714Y-102675000D01*
X146908333Y-102722619D01*
X147241666Y-102627380D02*
X147860714Y-102627380D01*
X147527380Y-103008333D01*
X147670238Y-103008333D01*
X147765476Y-103055952D01*
X147813095Y-103103571D01*
X147860714Y-103198809D01*
X147860714Y-103436904D01*
X147813095Y-103532142D01*
X147765476Y-103579761D01*
X147670238Y-103627380D01*
X147384523Y-103627380D01*
X147289285Y-103579761D01*
X147241666Y-103532142D01*
X155908333Y-77282142D02*
X155860714Y-77329761D01*
X155717857Y-77377380D01*
X155622619Y-77377380D01*
X155479761Y-77329761D01*
X155384523Y-77234523D01*
X155336904Y-77139285D01*
X155289285Y-76948809D01*
X155289285Y-76805952D01*
X155336904Y-76615476D01*
X155384523Y-76520238D01*
X155479761Y-76425000D01*
X155622619Y-76377380D01*
X155717857Y-76377380D01*
X155860714Y-76425000D01*
X155908333Y-76472619D01*
X156765476Y-76710714D02*
X156765476Y-77377380D01*
X156527380Y-76329761D02*
X156289285Y-77044047D01*
X156908333Y-77044047D01*
X146108333Y-85532142D02*
X146060714Y-85579761D01*
X145917857Y-85627380D01*
X145822619Y-85627380D01*
X145679761Y-85579761D01*
X145584523Y-85484523D01*
X145536904Y-85389285D01*
X145489285Y-85198809D01*
X145489285Y-85055952D01*
X145536904Y-84865476D01*
X145584523Y-84770238D01*
X145679761Y-84675000D01*
X145822619Y-84627380D01*
X145917857Y-84627380D01*
X146060714Y-84675000D01*
X146108333Y-84722619D01*
X147013095Y-84627380D02*
X146536904Y-84627380D01*
X146489285Y-85103571D01*
X146536904Y-85055952D01*
X146632142Y-85008333D01*
X146870238Y-85008333D01*
X146965476Y-85055952D01*
X147013095Y-85103571D01*
X147060714Y-85198809D01*
X147060714Y-85436904D01*
X147013095Y-85532142D01*
X146965476Y-85579761D01*
X146870238Y-85627380D01*
X146632142Y-85627380D01*
X146536904Y-85579761D01*
X146489285Y-85532142D01*
X132336904Y-78377380D02*
X132336904Y-77377380D01*
X132575000Y-77377380D01*
X132717857Y-77425000D01*
X132813095Y-77520238D01*
X132860714Y-77615476D01*
X132908333Y-77805952D01*
X132908333Y-77948809D01*
X132860714Y-78139285D01*
X132813095Y-78234523D01*
X132717857Y-78329761D01*
X132575000Y-78377380D01*
X132336904Y-78377380D01*
X133860714Y-78377380D02*
X133289285Y-78377380D01*
X133575000Y-78377380D02*
X133575000Y-77377380D01*
X133479761Y-77520238D01*
X133384523Y-77615476D01*
X133289285Y-77663095D01*
X71091666Y-115627380D02*
X71091666Y-116341666D01*
X71044047Y-116484523D01*
X70948809Y-116579761D01*
X70805952Y-116627380D01*
X70710714Y-116627380D01*
X72091666Y-116627380D02*
X71520238Y-116627380D01*
X71805952Y-116627380D02*
X71805952Y-115627380D01*
X71710714Y-115770238D01*
X71615476Y-115865476D01*
X71520238Y-115913095D01*
X83241666Y-113377380D02*
X83241666Y-114091666D01*
X83194047Y-114234523D01*
X83098809Y-114329761D01*
X82955952Y-114377380D01*
X82860714Y-114377380D01*
X83670238Y-113472619D02*
X83717857Y-113425000D01*
X83813095Y-113377380D01*
X84051190Y-113377380D01*
X84146428Y-113425000D01*
X84194047Y-113472619D01*
X84241666Y-113567857D01*
X84241666Y-113663095D01*
X84194047Y-113805952D01*
X83622619Y-114377380D01*
X84241666Y-114377380D01*
X70241666Y-62377380D02*
X70241666Y-63091666D01*
X70194047Y-63234523D01*
X70098809Y-63329761D01*
X69955952Y-63377380D01*
X69860714Y-63377380D01*
X71146428Y-62710714D02*
X71146428Y-63377380D01*
X70908333Y-62329761D02*
X70670238Y-63044047D01*
X71289285Y-63044047D01*
X168241666Y-58377380D02*
X168241666Y-59091666D01*
X168194047Y-59234523D01*
X168098809Y-59329761D01*
X167955952Y-59377380D01*
X167860714Y-59377380D01*
X168860714Y-58805952D02*
X168765476Y-58758333D01*
X168717857Y-58710714D01*
X168670238Y-58615476D01*
X168670238Y-58567857D01*
X168717857Y-58472619D01*
X168765476Y-58425000D01*
X168860714Y-58377380D01*
X169051190Y-58377380D01*
X169146428Y-58425000D01*
X169194047Y-58472619D01*
X169241666Y-58567857D01*
X169241666Y-58615476D01*
X169194047Y-58710714D01*
X169146428Y-58758333D01*
X169051190Y-58805952D01*
X168860714Y-58805952D01*
X168765476Y-58853571D01*
X168717857Y-58901190D01*
X168670238Y-58996428D01*
X168670238Y-59186904D01*
X168717857Y-59282142D01*
X168765476Y-59329761D01*
X168860714Y-59377380D01*
X169051190Y-59377380D01*
X169146428Y-59329761D01*
X169194047Y-59282142D01*
X169241666Y-59186904D01*
X169241666Y-58996428D01*
X169194047Y-58901190D01*
X169146428Y-58853571D01*
X169051190Y-58805952D01*
X106278333Y-51217380D02*
X105945000Y-50741190D01*
X105706904Y-51217380D02*
X105706904Y-50217380D01*
X106087857Y-50217380D01*
X106183095Y-50265000D01*
X106230714Y-50312619D01*
X106278333Y-50407857D01*
X106278333Y-50550714D01*
X106230714Y-50645952D01*
X106183095Y-50693571D01*
X106087857Y-50741190D01*
X105706904Y-50741190D01*
X107230714Y-51217380D02*
X106659285Y-51217380D01*
X106945000Y-51217380D02*
X106945000Y-50217380D01*
X106849761Y-50360238D01*
X106754523Y-50455476D01*
X106659285Y-50503095D01*
X130408333Y-88377380D02*
X130075000Y-87901190D01*
X129836904Y-88377380D02*
X129836904Y-87377380D01*
X130217857Y-87377380D01*
X130313095Y-87425000D01*
X130360714Y-87472619D01*
X130408333Y-87567857D01*
X130408333Y-87710714D01*
X130360714Y-87805952D01*
X130313095Y-87853571D01*
X130217857Y-87901190D01*
X129836904Y-87901190D01*
X130789285Y-87472619D02*
X130836904Y-87425000D01*
X130932142Y-87377380D01*
X131170238Y-87377380D01*
X131265476Y-87425000D01*
X131313095Y-87472619D01*
X131360714Y-87567857D01*
X131360714Y-87663095D01*
X131313095Y-87805952D01*
X130741666Y-88377380D01*
X131360714Y-88377380D01*
X139363095Y-58679761D02*
X139505952Y-58727380D01*
X139744047Y-58727380D01*
X139839285Y-58679761D01*
X139886904Y-58632142D01*
X139934523Y-58536904D01*
X139934523Y-58441666D01*
X139886904Y-58346428D01*
X139839285Y-58298809D01*
X139744047Y-58251190D01*
X139553571Y-58203571D01*
X139458333Y-58155952D01*
X139410714Y-58108333D01*
X139363095Y-58013095D01*
X139363095Y-57917857D01*
X139410714Y-57822619D01*
X139458333Y-57775000D01*
X139553571Y-57727380D01*
X139791666Y-57727380D01*
X139934523Y-57775000D01*
X140886904Y-58727380D02*
X140315476Y-58727380D01*
X140601190Y-58727380D02*
X140601190Y-57727380D01*
X140505952Y-57870238D01*
X140410714Y-57965476D01*
X140315476Y-58013095D01*
X155313095Y-83877380D02*
X155313095Y-84686904D01*
X155360714Y-84782142D01*
X155408333Y-84829761D01*
X155503571Y-84877380D01*
X155694047Y-84877380D01*
X155789285Y-84829761D01*
X155836904Y-84782142D01*
X155884523Y-84686904D01*
X155884523Y-83877380D01*
X156884523Y-84877380D02*
X156313095Y-84877380D01*
X156598809Y-84877380D02*
X156598809Y-83877380D01*
X156503571Y-84020238D01*
X156408333Y-84115476D01*
X156313095Y-84163095D01*
X169941666Y-76577380D02*
X169941666Y-77291666D01*
X169894047Y-77434523D01*
X169798809Y-77529761D01*
X169655952Y-77577380D01*
X169560714Y-77577380D01*
X170322619Y-76577380D02*
X170941666Y-76577380D01*
X170608333Y-76958333D01*
X170751190Y-76958333D01*
X170846428Y-77005952D01*
X170894047Y-77053571D01*
X170941666Y-77148809D01*
X170941666Y-77386904D01*
X170894047Y-77482142D01*
X170846428Y-77529761D01*
X170751190Y-77577380D01*
X170465476Y-77577380D01*
X170370238Y-77529761D01*
X170322619Y-77482142D01*
X85091666Y-95927380D02*
X85091666Y-96641666D01*
X85044047Y-96784523D01*
X84948809Y-96879761D01*
X84805952Y-96927380D01*
X84710714Y-96927380D01*
X86044047Y-95927380D02*
X85567857Y-95927380D01*
X85520238Y-96403571D01*
X85567857Y-96355952D01*
X85663095Y-96308333D01*
X85901190Y-96308333D01*
X85996428Y-96355952D01*
X86044047Y-96403571D01*
X86091666Y-96498809D01*
X86091666Y-96736904D01*
X86044047Y-96832142D01*
X85996428Y-96879761D01*
X85901190Y-96927380D01*
X85663095Y-96927380D01*
X85567857Y-96879761D01*
X85520238Y-96832142D01*
X155241666Y-58427380D02*
X155241666Y-59141666D01*
X155194047Y-59284523D01*
X155098809Y-59379761D01*
X154955952Y-59427380D01*
X154860714Y-59427380D01*
X156146428Y-58427380D02*
X155955952Y-58427380D01*
X155860714Y-58475000D01*
X155813095Y-58522619D01*
X155717857Y-58665476D01*
X155670238Y-58855952D01*
X155670238Y-59236904D01*
X155717857Y-59332142D01*
X155765476Y-59379761D01*
X155860714Y-59427380D01*
X156051190Y-59427380D01*
X156146428Y-59379761D01*
X156194047Y-59332142D01*
X156241666Y-59236904D01*
X156241666Y-58998809D01*
X156194047Y-58903571D01*
X156146428Y-58855952D01*
X156051190Y-58808333D01*
X155860714Y-58808333D01*
X155765476Y-58855952D01*
X155717857Y-58903571D01*
X155670238Y-58998809D01*
M02*
