G04 #@! TF.GenerationSoftware,KiCad,Pcbnew,(5.1.10)-1*
G04 #@! TF.CreationDate,2021-12-19T22:42:05+01:00*
G04 #@! TF.ProjectId,DrawBridge,44726177-4272-4696-9467-652e6b696361,1.0*
G04 #@! TF.SameCoordinates,Original*
G04 #@! TF.FileFunction,Soldermask,Top*
G04 #@! TF.FilePolarity,Negative*
%FSLAX46Y46*%
G04 Gerber Fmt 4.6, Leading zero omitted, Abs format (unit mm)*
G04 Created by KiCad (PCBNEW (5.1.10)-1) date 2021-12-19 22:42:05*
%MOMM*%
%LPD*%
G01*
G04 APERTURE LIST*
%ADD10C,4.200000*%
%ADD11C,7.000000*%
%ADD12O,2.200000X2.200000*%
%ADD13C,2.380000*%
%ADD14C,2.200000*%
%ADD15C,2.400000*%
%ADD16O,2.600000X2.400000*%
%ADD17O,2.300000X2.300000*%
%ADD18C,2.058000*%
%ADD19O,2.600000X2.505000*%
%ADD20C,0.100000*%
G04 APERTURE END LIST*
D10*
X61425000Y-51425000D03*
D11*
X61425000Y-51425000D03*
X178785700Y-51425000D03*
D10*
X178785700Y-51425000D03*
X61425000Y-138575000D03*
D11*
X61425000Y-138575000D03*
X178785700Y-138575000D03*
D10*
X178785700Y-138575000D03*
G36*
G01*
X95835000Y-61065000D02*
X95835000Y-59465000D01*
G75*
G02*
X96135000Y-59165000I300000J0D01*
G01*
X97735000Y-59165000D01*
G75*
G02*
X98035000Y-59465000I0J-300000D01*
G01*
X98035000Y-61065000D01*
G75*
G02*
X97735000Y-61365000I-300000J0D01*
G01*
X96135000Y-61365000D01*
G75*
G02*
X95835000Y-61065000I0J300000D01*
G01*
G37*
D12*
X112175000Y-93285000D03*
X96935000Y-62805000D03*
X112175000Y-90745000D03*
X96935000Y-65345000D03*
X112175000Y-88205000D03*
X96935000Y-67885000D03*
X112175000Y-85665000D03*
X96935000Y-70425000D03*
X112175000Y-83125000D03*
X96935000Y-72965000D03*
X112175000Y-80585000D03*
X96935000Y-75505000D03*
X112175000Y-78045000D03*
X96935000Y-78045000D03*
X112175000Y-75505000D03*
X96935000Y-80585000D03*
X112175000Y-72965000D03*
X96935000Y-83125000D03*
X112175000Y-70425000D03*
X96935000Y-85665000D03*
X112175000Y-67885000D03*
X96935000Y-88205000D03*
X112175000Y-65345000D03*
X96935000Y-90745000D03*
X112175000Y-62805000D03*
X96935000Y-93285000D03*
X112175000Y-60265000D03*
X96935000Y-95825000D03*
X112175000Y-95825000D03*
D13*
X96935000Y-57725000D03*
X112175000Y-57725000D03*
X112175000Y-98365000D03*
X96935000Y-98365000D03*
D14*
X143425000Y-92177620D03*
G36*
G01*
X142625000Y-88577620D02*
X144225000Y-88577620D01*
G75*
G02*
X144525000Y-88877620I0J-300000D01*
G01*
X144525000Y-90477620D01*
G75*
G02*
X144225000Y-90777620I-300000J0D01*
G01*
X142625000Y-90777620D01*
G75*
G02*
X142325000Y-90477620I0J300000D01*
G01*
X142325000Y-88877620D01*
G75*
G02*
X142625000Y-88577620I300000J0D01*
G01*
G37*
X152845000Y-102095000D03*
X155345000Y-102095000D03*
G36*
G01*
X142625000Y-97845000D02*
X144225000Y-97845000D01*
G75*
G02*
X144525000Y-98145000I0J-300000D01*
G01*
X144525000Y-99745000D01*
G75*
G02*
X144225000Y-100045000I-300000J0D01*
G01*
X142625000Y-100045000D01*
G75*
G02*
X142325000Y-99745000I0J300000D01*
G01*
X142325000Y-98145000D01*
G75*
G02*
X142625000Y-97845000I300000J0D01*
G01*
G37*
X143425000Y-101445000D03*
X155345000Y-79625000D03*
X152845000Y-79625000D03*
G36*
G01*
X142625000Y-79310241D02*
X144225000Y-79310241D01*
G75*
G02*
X144525000Y-79610241I0J-300000D01*
G01*
X144525000Y-81210241D01*
G75*
G02*
X144225000Y-81510241I-300000J0D01*
G01*
X142625000Y-81510241D01*
G75*
G02*
X142325000Y-81210241I0J300000D01*
G01*
X142325000Y-79610241D01*
G75*
G02*
X142625000Y-79310241I300000J0D01*
G01*
G37*
X143425000Y-82910241D03*
G36*
G01*
X129505000Y-79845000D02*
X131305000Y-79845000D01*
G75*
G02*
X131605000Y-80145000I0J-300000D01*
G01*
X131605000Y-81945000D01*
G75*
G02*
X131305000Y-82245000I-300000J0D01*
G01*
X129505000Y-82245000D01*
G75*
G02*
X129205000Y-81945000I0J300000D01*
G01*
X129205000Y-80145000D01*
G75*
G02*
X129505000Y-79845000I300000J0D01*
G01*
G37*
D15*
X130405000Y-83585000D03*
D16*
X69625000Y-127165000D03*
X69625000Y-124665000D03*
X69625000Y-122165000D03*
X69625000Y-119665000D03*
G36*
G01*
X82345000Y-117975000D02*
X82345000Y-116275000D01*
G75*
G02*
X82645000Y-115975000I300000J0D01*
G01*
X84345000Y-115975000D01*
G75*
G02*
X84645000Y-116275000I0J-300000D01*
G01*
X84645000Y-117975000D01*
G75*
G02*
X84345000Y-118275000I-300000J0D01*
G01*
X82645000Y-118275000D01*
G75*
G02*
X82345000Y-117975000I0J300000D01*
G01*
G37*
D17*
X83495000Y-119665000D03*
X83495000Y-122205000D03*
X83495000Y-124745000D03*
X83495000Y-127285000D03*
X83495000Y-129825000D03*
G36*
G01*
X65685000Y-66425000D02*
X65685000Y-64725000D01*
G75*
G02*
X65985000Y-64425000I300000J0D01*
G01*
X67685000Y-64425000D01*
G75*
G02*
X67985000Y-64725000I0J-300000D01*
G01*
X67985000Y-66425000D01*
G75*
G02*
X67685000Y-66725000I-300000J0D01*
G01*
X65985000Y-66725000D01*
G75*
G02*
X65685000Y-66425000I0J300000D01*
G01*
G37*
X69375000Y-65575000D03*
X66835000Y-68115000D03*
X69375000Y-68115000D03*
X66835000Y-70655000D03*
X69375000Y-70655000D03*
X66835000Y-73195000D03*
X69375000Y-73195000D03*
X66835000Y-75735000D03*
X69375000Y-75735000D03*
X66835000Y-78275000D03*
X69375000Y-78275000D03*
X66835000Y-80815000D03*
X69375000Y-80815000D03*
X66835000Y-83355000D03*
X69375000Y-83355000D03*
X66835000Y-85895000D03*
X69375000Y-85895000D03*
X66835000Y-88435000D03*
X69375000Y-88435000D03*
X66835000Y-90975000D03*
X69375000Y-90975000D03*
X66835000Y-93515000D03*
X69375000Y-93515000D03*
X66835000Y-96055000D03*
X69375000Y-96055000D03*
X66835000Y-98595000D03*
X69375000Y-98595000D03*
X66835000Y-101135000D03*
X69375000Y-101135000D03*
X66835000Y-103675000D03*
X69375000Y-103675000D03*
X66835000Y-106215000D03*
X69375000Y-106215000D03*
D16*
X168995000Y-70095000D03*
X168995000Y-67595000D03*
X168995000Y-65095000D03*
X168995000Y-62595000D03*
G36*
G01*
X107225000Y-52015384D02*
X107225000Y-53634616D01*
G75*
G02*
X106859616Y-54000000I-365384J0D01*
G01*
X105690384Y-54000000D01*
G75*
G02*
X105325000Y-53634616I0J365384D01*
G01*
X105325000Y-52015384D01*
G75*
G02*
X105690384Y-51650000I365384J0D01*
G01*
X106859616Y-51650000D01*
G75*
G02*
X107225000Y-52015384I0J-365384D01*
G01*
G37*
G36*
G01*
X104125000Y-52015384D02*
X104125000Y-53634616D01*
G75*
G02*
X103759616Y-54000000I-365384J0D01*
G01*
X102590384Y-54000000D01*
G75*
G02*
X102225000Y-53634616I0J365384D01*
G01*
X102225000Y-52015384D01*
G75*
G02*
X102590384Y-51650000I365384J0D01*
G01*
X103759616Y-51650000D01*
G75*
G02*
X104125000Y-52015384I0J-365384D01*
G01*
G37*
G36*
G01*
X131214616Y-90745000D02*
X129595384Y-90745000D01*
G75*
G02*
X129230000Y-90379616I0J365384D01*
G01*
X129230000Y-89210384D01*
G75*
G02*
X129595384Y-88845000I365384J0D01*
G01*
X131214616Y-88845000D01*
G75*
G02*
X131580000Y-89210384I0J-365384D01*
G01*
X131580000Y-90379616D01*
G75*
G02*
X131214616Y-90745000I-365384J0D01*
G01*
G37*
G36*
G01*
X131214616Y-93845000D02*
X129595384Y-93845000D01*
G75*
G02*
X129230000Y-93479616I0J365384D01*
G01*
X129230000Y-92310384D01*
G75*
G02*
X129595384Y-91945000I365384J0D01*
G01*
X131214616Y-91945000D01*
G75*
G02*
X131580000Y-92310384I0J-365384D01*
G01*
X131580000Y-93479616D01*
G75*
G02*
X131214616Y-93845000I-365384J0D01*
G01*
G37*
G36*
G01*
X135026000Y-68054000D02*
X135026000Y-66596000D01*
G75*
G02*
X135326000Y-66296000I300000J0D01*
G01*
X136784000Y-66296000D01*
G75*
G02*
X137084000Y-66596000I0J-300000D01*
G01*
X137084000Y-68054000D01*
G75*
G02*
X136784000Y-68354000I-300000J0D01*
G01*
X135326000Y-68354000D01*
G75*
G02*
X135026000Y-68054000I0J300000D01*
G01*
G37*
D18*
X136055000Y-62325000D03*
X142055000Y-62325000D03*
X142055000Y-67325000D03*
G36*
G01*
X152255000Y-87067500D02*
X154255000Y-87067500D01*
G75*
G02*
X154555000Y-87367500I0J-300000D01*
G01*
X154555000Y-89272500D01*
G75*
G02*
X154255000Y-89572500I-300000J0D01*
G01*
X152255000Y-89572500D01*
G75*
G02*
X151955000Y-89272500I0J300000D01*
G01*
X151955000Y-87367500D01*
G75*
G02*
X152255000Y-87067500I300000J0D01*
G01*
G37*
D19*
X153255000Y-90860000D03*
X153255000Y-93400000D03*
D17*
X169365000Y-79625000D03*
G36*
G01*
X167675000Y-80775000D02*
X165975000Y-80775000D01*
G75*
G02*
X165675000Y-80475000I0J300000D01*
G01*
X165675000Y-78775000D01*
G75*
G02*
X165975000Y-78475000I300000J0D01*
G01*
X167675000Y-78475000D01*
G75*
G02*
X167975000Y-78775000I0J-300000D01*
G01*
X167975000Y-80475000D01*
G75*
G02*
X167675000Y-80775000I-300000J0D01*
G01*
G37*
D20*
G36*
X85874398Y-99481113D02*
G01*
X85874398Y-99499534D01*
X85872953Y-99528943D01*
X85868143Y-99577774D01*
X85863824Y-99606888D01*
X85854252Y-99655013D01*
X85847097Y-99683577D01*
X85832853Y-99730532D01*
X85822937Y-99758247D01*
X85804160Y-99803580D01*
X85791569Y-99830202D01*
X85768438Y-99873475D01*
X85753308Y-99898718D01*
X85726048Y-99939517D01*
X85708506Y-99963170D01*
X85677378Y-100001099D01*
X85657608Y-100022911D01*
X85622911Y-100057608D01*
X85601099Y-100077378D01*
X85563170Y-100108506D01*
X85539517Y-100126048D01*
X85498718Y-100153308D01*
X85473475Y-100168438D01*
X85430202Y-100191569D01*
X85403580Y-100204160D01*
X85358247Y-100222937D01*
X85330532Y-100232853D01*
X85283577Y-100247097D01*
X85255013Y-100254252D01*
X85206888Y-100263824D01*
X85177774Y-100268143D01*
X85128943Y-100272953D01*
X85099534Y-100274398D01*
X85081113Y-100274398D01*
X85075000Y-100275000D01*
X84575000Y-100275000D01*
X84568887Y-100274398D01*
X84550466Y-100274398D01*
X84521057Y-100272953D01*
X84472226Y-100268143D01*
X84443112Y-100263824D01*
X84394987Y-100254252D01*
X84366423Y-100247097D01*
X84319468Y-100232853D01*
X84291753Y-100222937D01*
X84246420Y-100204160D01*
X84219798Y-100191569D01*
X84176525Y-100168438D01*
X84151282Y-100153308D01*
X84110483Y-100126048D01*
X84086830Y-100108506D01*
X84048901Y-100077378D01*
X84027089Y-100057608D01*
X83992392Y-100022911D01*
X83972622Y-100001099D01*
X83941494Y-99963170D01*
X83923952Y-99939517D01*
X83896692Y-99898718D01*
X83881562Y-99873475D01*
X83858431Y-99830202D01*
X83845840Y-99803580D01*
X83827063Y-99758247D01*
X83817147Y-99730532D01*
X83802903Y-99683577D01*
X83795748Y-99655013D01*
X83786176Y-99606888D01*
X83781857Y-99577774D01*
X83777047Y-99528943D01*
X83775602Y-99499534D01*
X83775602Y-99481113D01*
X83775000Y-99475000D01*
X83775000Y-98975000D01*
X83780764Y-98916473D01*
X83797836Y-98860195D01*
X83825559Y-98808329D01*
X83862868Y-98762868D01*
X83908329Y-98725559D01*
X83960195Y-98697836D01*
X84016473Y-98680764D01*
X84075000Y-98675000D01*
X85575000Y-98675000D01*
X85633527Y-98680764D01*
X85689805Y-98697836D01*
X85741671Y-98725559D01*
X85787132Y-98762868D01*
X85824441Y-98808329D01*
X85852164Y-98860195D01*
X85869236Y-98916473D01*
X85875000Y-98975000D01*
X85875000Y-99475000D01*
X85874398Y-99481113D01*
G37*
G36*
X85869236Y-98733527D02*
G01*
X85852164Y-98789805D01*
X85824441Y-98841671D01*
X85787132Y-98887132D01*
X85741671Y-98924441D01*
X85689805Y-98952164D01*
X85633527Y-98969236D01*
X85575000Y-98975000D01*
X84075000Y-98975000D01*
X84016473Y-98969236D01*
X83960195Y-98952164D01*
X83908329Y-98924441D01*
X83862868Y-98887132D01*
X83825559Y-98841671D01*
X83797836Y-98789805D01*
X83780764Y-98733527D01*
X83775000Y-98675000D01*
X83775000Y-98175000D01*
X83775602Y-98168887D01*
X83775602Y-98150466D01*
X83777047Y-98121057D01*
X83781857Y-98072226D01*
X83786176Y-98043112D01*
X83795748Y-97994987D01*
X83802903Y-97966423D01*
X83817147Y-97919468D01*
X83827063Y-97891753D01*
X83845840Y-97846420D01*
X83858431Y-97819798D01*
X83881562Y-97776525D01*
X83896692Y-97751282D01*
X83923952Y-97710483D01*
X83941494Y-97686830D01*
X83972622Y-97648901D01*
X83992392Y-97627089D01*
X84027089Y-97592392D01*
X84048901Y-97572622D01*
X84086830Y-97541494D01*
X84110483Y-97523952D01*
X84151282Y-97496692D01*
X84176525Y-97481562D01*
X84219798Y-97458431D01*
X84246420Y-97445840D01*
X84291753Y-97427063D01*
X84319468Y-97417147D01*
X84366423Y-97402903D01*
X84394987Y-97395748D01*
X84443112Y-97386176D01*
X84472226Y-97381857D01*
X84521057Y-97377047D01*
X84550466Y-97375602D01*
X84568887Y-97375602D01*
X84575000Y-97375000D01*
X85075000Y-97375000D01*
X85081113Y-97375602D01*
X85099534Y-97375602D01*
X85128943Y-97377047D01*
X85177774Y-97381857D01*
X85206888Y-97386176D01*
X85255013Y-97395748D01*
X85283577Y-97402903D01*
X85330532Y-97417147D01*
X85358247Y-97427063D01*
X85403580Y-97445840D01*
X85430202Y-97458431D01*
X85473475Y-97481562D01*
X85498718Y-97496692D01*
X85539517Y-97523952D01*
X85563170Y-97541494D01*
X85601099Y-97572622D01*
X85622911Y-97592392D01*
X85657608Y-97627089D01*
X85677378Y-97648901D01*
X85708506Y-97686830D01*
X85726048Y-97710483D01*
X85753308Y-97751282D01*
X85768438Y-97776525D01*
X85791569Y-97819798D01*
X85804160Y-97846420D01*
X85822937Y-97891753D01*
X85832853Y-97919468D01*
X85847097Y-97966423D01*
X85854252Y-97994987D01*
X85863824Y-98043112D01*
X85868143Y-98072226D01*
X85872953Y-98121057D01*
X85874398Y-98150466D01*
X85874398Y-98168887D01*
X85875000Y-98175000D01*
X85875000Y-98675000D01*
X85869236Y-98733527D01*
G37*
G36*
G01*
X151225000Y-62125000D02*
X151225000Y-60425000D01*
G75*
G02*
X151525000Y-60125000I300000J0D01*
G01*
X153225000Y-60125000D01*
G75*
G02*
X153525000Y-60425000I0J-300000D01*
G01*
X153525000Y-62125000D01*
G75*
G02*
X153225000Y-62425000I-300000J0D01*
G01*
X151525000Y-62425000D01*
G75*
G02*
X151225000Y-62125000I0J300000D01*
G01*
G37*
D17*
X154915000Y-61275000D03*
X152375000Y-63815000D03*
X154915000Y-63815000D03*
X152375000Y-66355000D03*
X154915000Y-66355000D03*
X152375000Y-68895000D03*
X154915000Y-68895000D03*
M02*
